<svg version="1.1" viewBox="0.0 0.0 960.0 540.0" fill="none" stroke="none" stroke-linecap="square" stroke-miterlimit="10" xmlns:xlink="http://www.w3.org/1999/xlink" xmlns="http://www.w3.org/2000/svg"><clipPath id="g3b21310e702_0_61.0"><path d="m0 0l960.0 0l0 540.0l-960.0 0l0 -540.0z" clip-rule="nonzero"/></clipPath><g clip-path="url(#g3b21310e702_0_61.0)"><path fill="#ffffff" d="m0 0l960.0 0l0 540.0l-960.0 0z" fill-rule="evenodd"/><path fill="#000000" fill-opacity="0.0" d="m208.15749 90.0018l0 0c0 -49.706623 40.295166 -90.0018 90.001785 -90.0018l363.68143 0l0 0c23.869995 0 46.762268 9.482306 63.64093 26.360916c16.878601 16.878613 26.3609 39.77092 26.3609 63.640884l0 359.9964c0 49.706635 -40.295166 90.0018 -90.00183 90.0018l-363.68143 0c-49.70662 0 -90.001785 -40.295166 -90.001785 -90.0018z" fill-rule="evenodd"/><path fill="#000000" d="m314.91602 56.24741q-0.3125 0 -0.546875 -0.15625q-0.234375 -0.15625 -0.234375 -0.46875l0 -16.21875q0 -0.234375 0.171875 -0.390625q0.1875 -0.15625 0.5 -0.1875l4.375 0q1.390625 0 2.5 0.5q1.125 0.5 1.765625 1.609375q0.640625 1.109375 0.640625 2.953125l0 0.234375q0 1.859375 -0.65625 2.96875q-0.65625 1.109375 -1.78125 1.609375q-1.125 0.5 -2.515625 0.5l-3.421875 0l0 6.421875q0 0.3125 -0.25 0.46875q-0.25 0.15625 -0.546875 0.15625zm0.796875 -8.40625l3.421875 0q1.59375 0 2.484375 -0.890625q0.90625 -0.90625 0.90625 -2.765625l0 -0.28125q0 -1.859375 -0.90625 -2.734375q-0.890625 -0.890625 -2.484375 -0.890625l-3.421875 0l0 7.5625zm13.427551 8.578125q-1.109375 0 -1.953125 -0.28125q-0.828125 -0.296875 -1.3125 -0.6875q-0.46875 -0.390625 -0.46875 -0.75q0 -0.171875 0.0625 -0.328125q0.078125 -0.15625 0.203125 -0.265625q0.140625 -0.125 0.28125 -0.125q0.265625 0 0.578125 0.28125q0.328125 0.265625 0.90625 0.5625q0.59375 0.28125 1.65625 0.28125q1.359375 0 1.90625 -0.515625q0.546875 -0.515625 0.546875 -1.171875q0 -0.796875 -0.421875 -1.234375q-0.40625 -0.4375 -1.09375 -0.6875q-0.671875 -0.25 -1.421875 -0.453125q-0.75 -0.203125 -1.4375 -0.515625q-0.671875 -0.328125 -1.09375 -0.90625q-0.40625 -0.578125 -0.40625 -1.546875q0 -0.765625 0.375 -1.515625q0.375 -0.75 1.203125 -1.234375q0.828125 -0.484375 2.1875 -0.484375q0.78125 0 1.515625 0.171875q0.734375 0.15625 1.203125 0.4375q0.46875 0.265625 0.46875 0.546875q0 0.125 -0.09375 0.3125q-0.078125 0.1875 -0.21875 0.34375q-0.140625 0.15625 -0.328125 0.15625q-0.1875 0 -0.515625 -0.171875q-0.328125 -0.1875 -0.828125 -0.34375q-0.5 -0.15625 -1.1875 -0.15625q-0.859375 0 -1.390625 0.3125q-0.515625 0.3125 -0.75 0.734375q-0.234375 0.40625 -0.234375 0.8125q0 0.703125 0.421875 1.0625q0.421875 0.34375 1.09375 0.578125q0.6875 0.21875 1.4375 0.421875q0.75 0.203125 1.421875 0.5625q0.6875 0.359375 1.109375 1.0q0.421875 0.640625 0.421875 1.71875q0 1.40625 -1.0 2.25q-1.0 0.828125 -2.84375 0.828125zm10.862061 0q-1.5 0 -2.65625 -0.578125q-1.15625 -0.578125 -1.8125 -1.578125q-0.640625 -1.015625 -0.640625 -2.375l0 -2.671875q0 -1.1875 0.609375 -2.1875q0.625 -1.0 1.65625 -1.59375q1.046875 -0.59375 2.28125 -0.59375q1.1875 0 2.203125 0.5625q1.015625 0.546875 1.625 1.53125q0.625 0.96875 0.625 2.234375q0 0.9375 -0.3125 1.328125q-0.3125 0.390625 -0.78125 0.484375q-0.453125 0.09375 -0.984375 0.09375l-5.375 0l0 0.890625q0 1.421875 1.015625 2.265625q1.03125 0.828125 2.609375 0.828125q0.953125 0 1.46875 -0.234375q0.53125 -0.25 0.828125 -0.484375q0.296875 -0.234375 0.5625 -0.234375q0.1875 0 0.34375 0.140625q0.15625 0.125 0.234375 0.296875q0.078125 0.15625 0.078125 0.296875q0 0.265625 -0.4375 0.65625q-0.421875 0.375 -1.234375 0.65625q-0.796875 0.265625 -1.90625 0.265625zm-3.5625 -6.484375l4.765625 0q0.703125 0 0.9375 -0.15625q0.25 -0.15625 0.25 -0.65625q0 -0.765625 -0.375 -1.453125q-0.359375 -0.6875 -1.046875 -1.109375q-0.671875 -0.4375 -1.5625 -0.4375q-0.796875 0 -1.484375 0.390625q-0.671875 0.390625 -1.078125 1.046875q-0.40625 0.65625 -0.40625 1.46875l0 0.90625zm14.225739 6.484375q-1.265625 0 -2.296875 -0.625q-1.015625 -0.625 -1.640625 -1.65625q-0.625 -1.03125 -0.625 -2.203125l0 -6.359375q0 -0.21875 0.234375 -0.40625q0.25 -0.1875 0.5625 -0.1875q0.3125 0 0.53125 0.1875q0.234375 0.1875 0.234375 0.40625l0 6.359375q0 0.78125 0.390625 1.484375q0.40625 0.6875 1.078125 1.125q0.671875 0.4375 1.5 0.4375q0.859375 0 1.515625 -0.421875q0.671875 -0.4375 1.0625 -1.140625q0.40625 -0.703125 0.40625 -1.484375l0 -6.390625q0 -0.234375 0.234375 -0.390625q0.234375 -0.171875 0.546875 -0.171875q0.359375 0 0.5625 0.171875q0.203125 0.15625 0.203125 0.390625l0 6.390625q0 1.21875 -0.609375 2.234375q-0.609375 1.0 -1.65625 1.625q-1.03125 0.625 -2.234375 0.625zm11.178101 0q-1.125 0 -2.109375 -0.625q-0.96875 -0.640625 -1.546875 -1.6875q-0.5625 -1.046875 -0.5625 -2.21875l0 -2.59375q0 -1.25 0.5625 -2.25q0.578125 -1.0 1.546875 -1.59375q0.984375 -0.609375 2.15625 -0.609375q1.15625 0 1.953125 0.5625q0.796875 0.546875 1.1875 1.234375l0 -8.0q0 -0.265625 0.234375 -0.421875q0.234375 -0.15625 0.546875 -0.15625q0.359375 0 0.5625 0.15625q0.203125 0.15625 0.203125 0.421875l0 16.984375q0 0.25 -0.203125 0.4375q-0.203125 0.1875 -0.5625 0.1875q-0.28125 0 -0.5 -0.1875q-0.21875 -0.1875 -0.21875 -0.4375l0 -1.046875q-0.375 0.75 -1.265625 1.296875q-0.890625 0.546875 -1.984375 0.546875zm0.25 -1.4375q0.859375 0 1.515625 -0.4375q0.65625 -0.4375 1.03125 -1.0q0.390625 -0.5625 0.390625 -0.921875l0 -3.328125q0 -0.953125 -0.4375 -1.625q-0.421875 -0.671875 -1.09375 -1.03125q-0.65625 -0.375 -1.375 -0.375q-0.8125 0 -1.484375 0.4375q-0.65625 0.4375 -1.0625 1.140625q-0.40625 0.6875 -0.40625 1.453125l0 2.59375q0 0.78125 0.40625 1.5q0.40625 0.71875 1.0625 1.15625q0.671875 0.4375 1.453125 0.4375zm11.563995 1.4375q-1.21875 0 -2.25 -0.625q-1.015625 -0.640625 -1.65625 -1.671875q-0.625 -1.046875 -0.625 -2.234375l0 -2.59375q0 -1.203125 0.609375 -2.203125q0.625 -1.015625 1.65625 -1.625q1.03125 -0.625 2.265625 -0.625q1.21875 0 2.25 0.609375q1.03125 0.59375 1.65625 1.59375q0.625 1.0 0.625 2.25l0 2.59375q0 1.171875 -0.625 2.21875q-0.625 1.046875 -1.65625 1.6875q-1.03125 0.625 -2.25 0.625zm0 -1.4375q0.828125 0 1.5 -0.4375q0.671875 -0.4375 1.0625 -1.15625q0.40625 -0.71875 0.40625 -1.5l0 -2.59375q0 -0.765625 -0.390625 -1.453125q-0.390625 -0.703125 -1.078125 -1.140625q-0.671875 -0.4375 -1.5 -0.4375q-0.84375 0 -1.515625 0.4375q-0.65625 0.4375 -1.0625 1.140625q-0.40625 0.6875 -0.40625 1.453125l0 2.59375q0 0.78125 0.40625 1.5q0.40625 0.71875 1.078125 1.15625q0.6875 0.4375 1.5 0.4375zm12.5971985 1.265625q-0.296875 0 -0.515625 -0.15625q-0.21875 -0.171875 -0.21875 -0.4375l0 -13.203125q0 -1.21875 0.578125 -2.203125q0.59375 -0.984375 1.546875 -1.578125q0.96875 -0.609375 2.125 -0.609375l0.59375 0q0.328125 0 0.484375 0.21875q0.171875 0.21875 0.171875 0.5q0 0.265625 -0.171875 0.484375q-0.15625 0.203125 -0.484375 0.203125l-0.40625 0q-0.8125 0 -1.46875 0.40625q-0.65625 0.390625 -1.03125 1.046875q-0.359375 0.65625 -0.390625 1.40625l0 2.65625l3.40625 0q0.265625 0 0.40625 0.1875q0.140625 0.1875 0.140625 0.421875q0 0.265625 -0.140625 0.46875q-0.140625 0.203125 -0.40625 0.203125l-3.40625 0l0 9.390625q0 0.265625 -0.234375 0.4375q-0.234375 0.15625 -0.578125 0.15625zm10.970673 0.171875q-1.265625 0 -2.296875 -0.625q-1.015625 -0.625 -1.640625 -1.65625q-0.625 -1.03125 -0.625 -2.203125l0 -6.359375q0 -0.21875 0.234375 -0.40625q0.25 -0.1875 0.5625 -0.1875q0.3125 0 0.53125 0.1875q0.234375 0.1875 0.234375 0.40625l0 6.359375q0 0.78125 0.390625 1.484375q0.40625 0.6875 1.078125 1.125q0.671875 0.4375 1.5 0.4375q0.859375 0 1.515625 -0.421875q0.671875 -0.4375 1.0625 -1.140625q0.40625 -0.703125 0.40625 -1.484375l0 -6.390625q0 -0.234375 0.234375 -0.390625q0.234375 -0.171875 0.546875 -0.171875q0.359375 0 0.5625 0.171875q0.203125 0.15625 0.203125 0.390625l0 6.390625q0 1.21875 -0.609375 2.234375q-0.609375 1.0 -1.65625 1.625q-1.03125 0.625 -2.234375 0.625zm8.115601 -0.171875q-0.296875 0 -0.53125 -0.1875q-0.21875 -0.1875 -0.21875 -0.4375l0 -10.078125q0 -0.25 0.21875 -0.40625q0.234375 -0.15625 0.53125 -0.15625q0.3125 0 0.53125 0.15625q0.21875 0.15625 0.21875 0.40625l0 1.09375q0.375 -0.6875 1.1875 -1.234375q0.8125 -0.5625 2.0 -0.5625q1.140625 0 2.109375 0.609375q0.96875 0.59375 1.53125 1.59375q0.578125 1.0 0.578125 2.25l0 6.328125q0 0.3125 -0.25 0.46875q-0.234375 0.15625 -0.53125 0.15625q-0.265625 0 -0.515625 -0.15625q-0.25 -0.15625 -0.25 -0.46875l0 -6.328125q0 -0.765625 -0.40625 -1.453125q-0.40625 -0.703125 -1.078125 -1.140625q-0.65625 -0.4375 -1.46875 -0.4375q-0.71875 0 -1.375 0.375q-0.65625 0.359375 -1.078125 1.03125q-0.40625 0.671875 -0.40625 1.625l0 6.328125q0 0.25 -0.234375 0.4375q-0.21875 0.1875 -0.5625 0.1875zm15.255402 0.171875q-1.578125 0 -2.609375 -0.59375q-1.015625 -0.609375 -1.515625 -1.625q-0.5 -1.03125 -0.5 -2.3125l0 -2.546875q0 -1.265625 0.484375 -2.28125q0.5 -1.03125 1.53125 -1.625q1.03125 -0.59375 2.609375 -0.59375q1.0 0 1.75 0.25q0.75 0.25 1.15625 0.609375q0.421875 0.34375 0.421875 0.6875q0 0.140625 -0.078125 0.328125q-0.078125 0.171875 -0.234375 0.296875q-0.15625 0.125 -0.34375 0.125q-0.21875 0 -0.5 -0.21875q-0.265625 -0.234375 -0.75 -0.4375q-0.46875 -0.21875 -1.34375 -0.21875q-1.5625 0 -2.359375 0.828125q-0.796875 0.8125 -0.796875 2.25l0 2.546875q0 1.453125 0.796875 2.28125q0.796875 0.8125 2.375 0.8125q0.90625 0 1.40625 -0.21875q0.5 -0.234375 0.765625 -0.453125q0.28125 -0.234375 0.515625 -0.234375q0.21875 0 0.375 0.125q0.15625 0.109375 0.234375 0.28125q0.09375 0.171875 0.09375 0.359375q0 0.3125 -0.4375 0.6875q-0.421875 0.359375 -1.203125 0.625q-0.765625 0.265625 -1.84375 0.265625zm11.317139 -0.171875q-0.3125 0 -0.546875 -0.1875q-0.21875 -0.1875 -0.21875 -0.4375l0 -16.984375q0 -0.265625 0.21875 -0.421875q0.234375 -0.15625 0.546875 -0.15625q0.328125 0 0.546875 0.15625q0.234375 0.15625 0.234375 0.421875l0 16.984375q0 0.25 -0.234375 0.4375q-0.21875 0.1875 -0.546875 0.1875zm8.081238 0.171875q-1.21875 0 -2.25 -0.625q-1.015625 -0.640625 -1.65625 -1.671875q-0.625 -1.046875 -0.625 -2.234375l0 -2.59375q0 -1.203125 0.609375 -2.203125q0.625 -1.015625 1.65625 -1.625q1.03125 -0.625 2.265625 -0.625q1.21875 0 2.25 0.609375q1.03125 0.59375 1.65625 1.59375q0.625 1.0 0.625 2.25l0 2.59375q0 1.171875 -0.625 2.21875q-0.625 1.046875 -1.65625 1.6875q-1.03125 0.625 -2.25 0.625zm0 -1.4375q0.828125 0 1.5 -0.4375q0.671875 -0.4375 1.0625 -1.15625q0.40625 -0.71875 0.40625 -1.5l0 -2.59375q0 -0.765625 -0.390625 -1.453125q-0.390625 -0.703125 -1.078125 -1.140625q-0.671875 -0.4375 -1.5 -0.4375q-0.84375 0 -1.515625 0.4375q-0.65625 0.4375 -1.0625 1.140625q-0.40625 0.6875 -0.40625 1.453125l0 2.59375q0 0.78125 0.40625 1.5q0.40625 0.71875 1.078125 1.15625q0.6875 0.4375 1.5 0.4375zm9.581604 1.4375q-1.34375 0 -2.296875 -0.765625q-0.953125 -0.78125 -0.953125 -2.390625q0 -1.296875 0.703125 -2.0q0.703125 -0.703125 1.953125 -0.984375q1.25 -0.28125 2.90625 -0.28125l1.203125 0l0 -0.5625q0 -0.765625 -0.28125 -1.515625q-0.265625 -0.75 -0.875 -1.234375q-0.59375 -0.5 -1.65625 -0.5q-0.78125 0 -1.28125 0.171875q-0.5 0.171875 -0.796875 0.359375q-0.28125 0.171875 -0.46875 0.171875q-0.28125 0 -0.453125 -0.28125q-0.15625 -0.296875 -0.15625 -0.5625q0 -0.3125 0.484375 -0.578125q0.484375 -0.28125 1.234375 -0.453125q0.75 -0.171875 1.484375 -0.171875q1.609375 0 2.546875 0.65625q0.9375 0.640625 1.34375 1.703125q0.421875 1.046875 0.421875 2.234375l0 6.1875q0 0.265625 -0.203125 0.453125q-0.1875 0.171875 -0.546875 0.171875q-0.296875 0 -0.515625 -0.171875q-0.203125 -0.1875 -0.203125 -0.453125l0 -1.046875q-0.625 0.6875 -1.515625 1.265625q-0.875 0.578125 -2.078125 0.578125zm0.375 -1.3125q0.78125 0 1.5 -0.40625q0.71875 -0.40625 1.171875 -0.984375q0.46875 -0.59375 0.46875 -1.109375l0 -1.53125l-1.0 0q-1.0625 0 -2.03125 0.140625q-0.96875 0.125 -1.578125 0.5625q-0.609375 0.421875 -0.609375 1.34375q0 1.03125 0.609375 1.515625q0.609375 0.46875 1.46875 0.46875zm11.374176 1.3125q-1.125 0 -2.109375 -0.625q-0.96875 -0.640625 -1.546875 -1.6875q-0.5625 -1.046875 -0.5625 -2.21875l0 -2.59375q0 -1.25 0.5625 -2.25q0.578125 -1.0 1.546875 -1.59375q0.984375 -0.609375 2.15625 -0.609375q1.15625 0 1.953125 0.5625q0.796875 0.546875 1.1875 1.234375l0 -8.0q0 -0.265625 0.234375 -0.421875q0.234375 -0.15625 0.546875 -0.15625q0.359375 0 0.5625 0.15625q0.203125 0.15625 0.203125 0.421875l0 16.984375q0 0.25 -0.203125 0.4375q-0.203125 0.1875 -0.5625 0.1875q-0.28125 0 -0.5 -0.1875q-0.21875 -0.1875 -0.21875 -0.4375l0 -1.046875q-0.375 0.75 -1.265625 1.296875q-0.890625 0.546875 -1.984375 0.546875zm0.25 -1.4375q0.859375 0 1.515625 -0.4375q0.65625 -0.4375 1.03125 -1.0q0.390625 -0.5625 0.390625 -0.921875l0 -3.328125q0 -0.953125 -0.4375 -1.625q-0.421875 -0.671875 -1.09375 -1.03125q-0.65625 -0.375 -1.375 -0.375q-0.8125 0 -1.484375 0.4375q-0.65625 0.4375 -1.0625 1.140625q-0.40625 0.6875 -0.40625 1.453125l0 2.59375q0 0.78125 0.40625 1.5q0.40625 0.71875 1.0625 1.15625q0.671875 0.4375 1.453125 0.4375zm14.73587 1.4375q-1.34375 0 -2.296875 -0.765625q-0.953125 -0.78125 -0.953125 -2.390625q0 -1.296875 0.703125 -2.0q0.703125 -0.703125 1.953125 -0.984375q1.25 -0.28125 2.90625 -0.28125l1.203125 0l0 -0.5625q0 -0.765625 -0.28125 -1.515625q-0.265625 -0.75 -0.875 -1.234375q-0.59375 -0.5 -1.65625 -0.5q-0.78125 0 -1.28125 0.171875q-0.5 0.171875 -0.796875 0.359375q-0.28125 0.171875 -0.46875 0.171875q-0.28125 0 -0.453125 -0.28125q-0.15625 -0.296875 -0.15625 -0.5625q0 -0.3125 0.484375 -0.578125q0.484375 -0.28125 1.234375 -0.453125q0.75 -0.171875 1.484375 -0.171875q1.609375 0 2.546875 0.65625q0.9375 0.640625 1.34375 1.703125q0.421875 1.046875 0.421875 2.234375l0 6.1875q0 0.265625 -0.203125 0.453125q-0.1875 0.171875 -0.546875 0.171875q-0.296875 0 -0.515625 -0.171875q-0.203125 -0.1875 -0.203125 -0.453125l0 -1.046875q-0.625 0.6875 -1.515625 1.265625q-0.875 0.578125 -2.078125 0.578125zm0.375 -1.3125q0.78125 0 1.5 -0.40625q0.71875 -0.40625 1.171875 -0.984375q0.46875 -0.59375 0.46875 -1.109375l0 -1.53125l-1.0 0q-1.0625 0 -2.03125 0.140625q-0.96875 0.125 -1.578125 0.5625q-0.609375 0.421875 -0.609375 1.34375q0 1.03125 0.609375 1.515625q0.609375 0.46875 1.46875 0.46875zm8.311676 1.140625q-0.296875 0 -0.53125 -0.1875q-0.21875 -0.1875 -0.21875 -0.4375l0 -10.078125q0 -0.25 0.21875 -0.40625q0.234375 -0.15625 0.53125 -0.15625q0.3125 0 0.53125 0.15625q0.21875 0.15625 0.21875 0.40625l0 1.09375q0.375 -0.6875 1.1875 -1.234375q0.8125 -0.5625 2.0 -0.5625q1.140625 0 2.1093445 0.609375q0.96875 0.59375 1.53125 1.59375q0.578125 1.0 0.578125 2.25l0 6.328125q0 0.3125 -0.25 0.46875q-0.234375 0.15625 -0.53125 0.15625q-0.265625 0 -0.515625 -0.15625q-0.25 -0.15625 -0.25 -0.46875l0 -6.328125q0 -0.765625 -0.40625 -1.453125q-0.40625 -0.703125 -1.0780945 -1.140625q-0.65625 -0.4375 -1.46875 -0.4375q-0.71875 0 -1.375 0.375q-0.65625 0.359375 -1.078125 1.03125q-0.40625 0.671875 -0.40625 1.625l0 6.328125q0 0.25 -0.234375 0.4375q-0.21875 0.1875 -0.5625 0.1875zm14.833527 0.171875q-1.125 0 -2.109375 -0.625q-0.96875 -0.640625 -1.546875 -1.6875q-0.5625 -1.046875 -0.5625 -2.21875l0 -2.59375q0 -1.25 0.5625 -2.25q0.578125 -1.0 1.546875 -1.59375q0.984375 -0.609375 2.15625 -0.609375q1.15625 0 1.953125 0.5625q0.796875 0.546875 1.1875 1.234375l0 -8.0q0 -0.265625 0.234375 -0.421875q0.234375 -0.15625 0.546875 -0.15625q0.359375 0 0.5625 0.15625q0.203125 0.15625 0.203125 0.421875l0 16.984375q0 0.25 -0.203125 0.4375q-0.203125 0.1875 -0.5625 0.1875q-0.28125 0 -0.5 -0.1875q-0.21875 -0.1875 -0.21875 -0.4375l0 -1.046875q-0.375 0.75 -1.265625 1.296875q-0.890625 0.546875 -1.984375 0.546875zm0.25 -1.4375q0.859375 0 1.515625 -0.4375q0.65625 -0.4375 1.03125 -1.0q0.390625 -0.5625 0.390625 -0.921875l0 -3.328125q0 -0.953125 -0.4375 -1.625q-0.421875 -0.671875 -1.09375 -1.03125q-0.65625 -0.375 -1.375 -0.375q-0.8125 0 -1.484375 0.4375q-0.65625 0.4375 -1.0625 1.140625q-0.40625 0.6875 -0.40625 1.453125l0 2.59375q0 0.78125 0.40625 1.5q0.40625 0.71875 1.0625 1.15625q0.671875 0.4375 1.453125 0.4375zm13.282745 1.265625q-0.3125 0 -0.515625 -0.171875q-0.203125 -0.1875 -0.203125 -0.421875l0 -16.234375q0 -0.28125 0.21875 -0.4375q0.234375 -0.15625 0.5 -0.15625l3.90625 0q1.328125 0 2.4375 0.3125q1.109375 0.3125 1.765625 1.1875q0.65625 0.859375 0.65625 2.546875q0 1.515625 -0.5625 2.53125q-0.5625 1.0 -1.46875 1.40625q0.734375 0.28125 1.28125 0.78125q0.5625 0.5 0.859375 1.296875q0.3125 0.78125 0.3125 2.015625l0 0.4375q0 1.8125 -0.625 2.890625q-0.609375 1.0625 -1.6875 1.546875q-1.0625 0.46875 -2.375 0.46875l-4.5 0zm0.859375 -1.453125l3.421875 0q1.578125 0 2.453125 -0.84375q0.890625 -0.84375 0.890625 -2.6875l0 -0.40625q0 -1.859375 -0.890625 -2.609375q-0.875 -0.765625 -2.453125 -0.765625l-3.421875 0l0 7.3125zm0 -8.671875l3.09375 0q1.671875 0 2.453125 -0.6875q0.78125 -0.703125 0.78125 -2.390625q0 -1.125 -0.4375 -1.71875q-0.421875 -0.59375 -1.15625 -0.8125q-0.734375 -0.234375 -1.734375 -0.234375l-3.0 0l0 5.84375zm12.022644 10.125q-0.3125 0 -0.546875 -0.15625q-0.234375 -0.15625 -0.234375 -0.46875l0 -16.21875q0 -0.234375 0.171875 -0.390625q0.1875 -0.15625 0.5 -0.1875l4.375 0q1.390625 0 2.5 0.5q1.125 0.5 1.765625 1.609375q0.640625 1.109375 0.640625 2.953125l0 0.234375q0 1.859375 -0.65625 2.96875q-0.65625 1.109375 -1.78125 1.609375q-1.125 0.5 -2.515625 0.5l-3.421875 0l0 6.421875q0 0.3125 -0.25 0.46875q-0.25 0.15625 -0.546875 0.15625zm0.796875 -8.40625l3.421875 0q1.59375 0 2.484375 -0.890625q0.90625 -0.90625 0.90625 -2.765625l0 -0.28125q0 -1.859375 -0.90625 -2.734375q-0.890625 -0.890625 -2.484375 -0.890625l-3.421875 0l0 7.5625zm11.760498 8.40625q-0.3125 0 -0.546875 -0.140625q-0.234375 -0.140625 -0.234375 -0.453125l0 -16.234375q0 -0.28125 0.21875 -0.4375q0.234375 -0.15625 0.5 -0.15625l8.421875 0q0.3125 0 0.453125 0.234375q0.15625 0.21875 0.15625 0.453125q0 0.3125 -0.15625 0.546875q-0.15625 0.21875 -0.453125 0.21875l-7.5625 0l0 6.5625l3.75 0q0.265625 0 0.421875 0.21875q0.15625 0.203125 0.15625 0.484375q0 0.21875 -0.140625 0.4375q-0.125 0.21875 -0.4375 0.21875l-3.75 0l0 7.453125q0 0.3125 -0.25 0.453125q-0.25 0.140625 -0.546875 0.140625zm19.20929 0q-1.828125 0 -2.8125 -0.828125q-0.984375 -0.84375 -0.984375 -2.671875l0 -12.5625q0 -0.265625 0.25 -0.40625q0.265625 -0.15625 0.515625 -0.15625q0.3125 0 0.546875 0.15625q0.25 0.140625 0.25 0.40625l0 4.796875l3.09375 0q0.234375 0 0.375 0.1875q0.140625 0.1875 0.140625 0.453125q0 0.265625 -0.140625 0.453125q-0.140625 0.1875 -0.375 0.1875l-3.09375 0l0 6.484375q0 1.171875 0.5 1.640625q0.5 0.453125 1.734375 0.453125l0.671875 0q0.328125 0 0.5 0.203125q0.1875 0.203125 0.1875 0.484375q0 0.296875 -0.1875 0.515625q-0.171875 0.203125 -0.5 0.203125l-0.671875 0zm7.1740723 0.171875q-1.21875 0 -2.25 -0.625q-1.015625 -0.640625 -1.65625 -1.671875q-0.625 -1.046875 -0.625 -2.234375l0 -2.59375q0 -1.203125 0.609375 -2.203125q0.625 -1.015625 1.65625 -1.625q1.03125 -0.625 2.265625 -0.625q1.21875 0 2.25 0.609375q1.03125 0.59375 1.65625 1.59375q0.625 1.0 0.625 2.25l0 2.59375q0 1.171875 -0.625 2.21875q-0.625 1.046875 -1.65625 1.6875q-1.03125 0.625 -2.25 0.625zm0 -1.4375q0.828125 0 1.5 -0.4375q0.671875 -0.4375 1.0625 -1.15625q0.40625 -0.71875 0.40625 -1.5l0 -2.59375q0 -0.765625 -0.390625 -1.453125q-0.390625 -0.703125 -1.078125 -1.140625q-0.671875 -0.4375 -1.5 -0.4375q-0.84375 0 -1.515625 0.4375q-0.65625 0.4375 -1.0625 1.140625q-0.40625 0.6875 -0.40625 1.453125l0 2.59375q0 0.78125 0.40625 1.5q0.40625 0.71875 1.078125 1.15625q0.6875 0.4375 1.5 0.4375zm12.894043 1.265625q-0.3125 0 -0.515625 -0.171875q-0.203125 -0.1875 -0.203125 -0.421875l0 -16.234375q0 -0.28125 0.21875 -0.4375q0.234375 -0.15625 0.5 -0.15625l3.90625 0q1.328125 0 2.4375 0.3125q1.109375 0.3125 1.765625 1.1875q0.65625 0.859375 0.65625 2.546875q0 1.515625 -0.5625 2.53125q-0.5625 1.0 -1.46875 1.40625q0.734375 0.28125 1.28125 0.78125q0.5625 0.5 0.859375 1.296875q0.3125 0.78125 0.3125 2.015625l0 0.4375q0 1.8125 -0.625 2.890625q-0.609375 1.0625 -1.6875 1.546875q-1.0625 0.46875 -2.375 0.46875l-4.5 0zm0.859375 -1.453125l3.421875 0q1.578125 0 2.453125 -0.84375q0.890625 -0.84375 0.890625 -2.6875l0 -0.40625q0 -1.859375 -0.890625 -2.609375q-0.875 -0.765625 -2.453125 -0.765625l-3.421875 0l0 7.3125zm0 -8.671875l3.09375 0q1.671875 0 2.453125 -0.6875q0.78125 -0.703125 0.78125 -2.390625q0 -1.125 -0.4375 -1.71875q-0.421875 -0.59375 -1.15625 -0.8125q-0.734375 -0.234375 -1.734375 -0.234375l-3.0 0l0 5.84375zm12.022583 10.125q-0.3125 0 -0.546875 -0.15625q-0.234375 -0.15625 -0.234375 -0.46875l0 -16.21875q0 -0.234375 0.171875 -0.390625q0.1875 -0.15625 0.5 -0.1875l4.375 0q1.390625 0 2.5 0.5q1.125 0.5 1.765625 1.609375q0.640625 1.109375 0.640625 2.953125l0 0.234375q0 1.859375 -0.65625 2.96875q-0.65625 1.109375 -1.78125 1.609375q-1.125 0.5 -2.515625 0.5l-3.421875 0l0 6.421875q0 0.3125 -0.25 0.46875q-0.25 0.15625 -0.546875 0.15625zm0.796875 -8.40625l3.421875 0q1.59375 0 2.484375 -0.890625q0.90625 -0.90625 0.90625 -2.765625l0 -0.28125q0 -1.859375 -0.90625 -2.734375q-0.890625 -0.890625 -2.484375 -0.890625l-3.421875 0l0 7.5625zm11.760498 8.40625q-0.3125 0 -0.546875 -0.140625q-0.234375 -0.140625 -0.234375 -0.453125l0 -16.234375q0 -0.28125 0.21875 -0.4375q0.234375 -0.15625 0.5 -0.15625l8.421875 0q0.3125 0 0.453125 0.234375q0.15625 0.21875 0.15625 0.453125q0 0.3125 -0.15625 0.546875q-0.15625 0.21875 -0.453125 0.21875l-7.5625 0l0 6.5625l3.75 0q0.265625 0 0.421875 0.21875q0.15625 0.203125 0.15625 0.484375q0 0.21875 -0.140625 0.4375q-0.125 0.21875 -0.4375 0.21875l-3.75 0l0 7.453125q0 0.3125 -0.25 0.453125q-0.25 0.140625 -0.546875 0.140625zm19.70935 0.171875q-1.578125 0 -2.609375 -0.59375q-1.015625 -0.609375 -1.515625 -1.625q-0.5 -1.03125 -0.5 -2.3125l0 -2.546875q0 -1.265625 0.484375 -2.28125q0.5 -1.03125 1.53125 -1.625q1.03125 -0.59375 2.609375 -0.59375q1.0 0 1.75 0.25q0.75 0.25 1.15625 0.609375q0.421875 0.34375 0.421875 0.6875q0 0.140625 -0.078125 0.328125q-0.078125 0.171875 -0.234375 0.296875q-0.15625 0.125 -0.34375 0.125q-0.21875 0 -0.5 -0.21875q-0.265625 -0.234375 -0.75 -0.4375q-0.46875 -0.21875 -1.34375 -0.21875q-1.5625 0 -2.359375 0.828125q-0.796875 0.8125 -0.796875 2.25l0 2.546875q0 1.453125 0.796875 2.28125q0.796875 0.8125 2.375 0.8125q0.90625 0 1.40625 -0.21875q0.5 -0.234375 0.765625 -0.453125q0.28125 -0.234375 0.515625 -0.234375q0.21875 0 0.375 0.125q0.15625 0.109375 0.234375 0.28125q0.09375 0.171875 0.09375 0.359375q0 0.3125 -0.4375 0.6875q-0.421875 0.359375 -1.203125 0.625q-0.765625 0.265625 -1.84375 0.265625zm8.082764 0q-1.34375 0 -2.296875 -0.765625q-0.953125 -0.78125 -0.953125 -2.390625q0 -1.296875 0.703125 -2.0q0.703125 -0.703125 1.953125 -0.984375q1.25 -0.28125 2.90625 -0.28125l1.203125 0l0 -0.5625q0 -0.765625 -0.28125 -1.515625q-0.265625 -0.75 -0.875 -1.234375q-0.59375 -0.5 -1.65625 -0.5q-0.78125 0 -1.28125 0.171875q-0.5 0.171875 -0.796875 0.359375q-0.28125 0.171875 -0.46875 0.171875q-0.28125 0 -0.453125 -0.28125q-0.15625 -0.296875 -0.15625 -0.5625q0 -0.3125 0.484375 -0.578125q0.484375 -0.28125 1.234375 -0.453125q0.75 -0.171875 1.484375 -0.171875q1.609375 0 2.546875 0.65625q0.9375 0.640625 1.34375 1.703125q0.421875 1.046875 0.421875 2.234375l0 6.1875q0 0.265625 -0.203125 0.453125q-0.1875 0.171875 -0.546875 0.171875q-0.296875 0 -0.515625 -0.171875q-0.203125 -0.1875 -0.203125 -0.453125l0 -1.046875q-0.625 0.6875 -1.515625 1.265625q-0.875 0.578125 -2.078125 0.578125zm0.375 -1.3125q0.78125 0 1.5 -0.40625q0.71875 -0.40625 1.171875 -0.984375q0.46875 -0.59375 0.46875 -1.109375l0 -1.53125l-1.0 0q-1.0625 0 -2.03125 0.140625q-0.96875 0.125 -1.578125 0.5625q-0.609375 0.421875 -0.609375 1.34375q0 1.03125 0.609375 1.515625q0.609375 0.46875 1.46875 0.46875zm8.530457 1.140625q-0.3125 0 -0.546875 -0.1875q-0.21875 -0.1875 -0.21875 -0.4375l0 -16.984375q0 -0.265625 0.21875 -0.421875q0.234375 -0.15625 0.546875 -0.15625q0.328125 0 0.546875 0.15625q0.234375 0.15625 0.234375 0.421875l0 16.984375q0 0.25 -0.234375 0.4375q-0.21875 0.1875 -0.546875 0.1875zm4.956238 0q-0.3125 0 -0.546875 -0.1875q-0.21875 -0.1875 -0.21875 -0.4375l0 -16.984375q0 -0.265625 0.21875 -0.421875q0.234375 -0.15625 0.546875 -0.15625q0.328125 0 0.546875 0.15625q0.234375 0.15625 0.234375 0.421875l0 16.984375q0 0.25 -0.234375 0.4375q-0.21875 0.1875 -0.546875 0.1875z" fill-rule="nonzero"/><path fill="#000000" fill-opacity="0.0" d="m362.27676 456.18933l0 48.44095" fill-rule="evenodd"/><path stroke="#666666" stroke-width="1.3779527559055118" stroke-linejoin="round" stroke-linecap="butt" stroke-dasharray="1.3779527559055118,4.133858267716535" d="m362.2768 456.18933l0 40.17325" fill-rule="evenodd"/><path stroke="#666666" stroke-width="1.3779527559055118" stroke-linecap="butt" d="m360.00076 496.36258l2.2760315 6.2532654l2.276001 -6.2532654z" fill-rule="evenodd"/><path fill="#f3f3f3" d="m310.16653 404.09485l104.22046 0l0 52.094482l-104.22046 0z" fill-rule="evenodd"/><path stroke="#666666" stroke-width="5.10761154855643" stroke-linejoin="round" stroke-linecap="butt" d="m310.16653 404.09485l104.22046 0l0 52.094482l-104.22046 0z" fill-rule="evenodd"/><path fill="#000000" d="m336.3211 436.02344l0 -11.75l-1.515625 0l-0.015625 8.765625l-4.5625 -8.765625l-1.515625 0l0 11.75l1.5 0l0.03125 -8.78125l4.5625 8.78125l1.515625 0zm6.8891296 -6.296875l0 -3.4375l-1.5 0l0 3.4375l-3.28125 0l0 1.484375l3.28125 0l0 3.640625l1.5 0l0 -3.640625l3.28125 0l0 -1.484375l-3.28125 0zm13.029724 -4.609375l0 -0.84375l-7.9375 0l0 1.3125l6.359375 0l-4.859375 10.4375l1.578125 0l4.859375 -10.90625zm5.4828796 9.9375q0 0.46875 0.296875 0.796875q0.296875 0.328125 0.875 0.328125q0.578125 0 0.875 -0.328125q0.3125 -0.328125 0.3125 -0.796875q0 -0.484375 -0.3125 -0.8125q-0.296875 -0.34375 -0.875 -0.34375q-0.59375 0 -0.890625 0.34375q-0.28125 0.34375 -0.28125 0.8125zm0 -7.078125q0 0.46875 0.296875 0.796875q0.296875 0.328125 0.875 0.328125q0.578125 0 0.875 -0.328125q0.3125 -0.328125 0.3125 -0.796875q0 -0.484375 -0.3125 -0.8125q-0.296875 -0.34375 -0.875 -0.34375q-0.59375 0 -0.890625 0.34375q-0.28125 0.34375 -0.28125 0.8125zm19.434479 7.078125q0 0.46875 0.296875 0.796875q0.296875 0.328125 0.875 0.328125q0.578125 0 0.875 -0.328125q0.3125 -0.328125 0.3125 -0.796875q0 -0.484375 -0.3125 -0.8125q-0.296875 -0.34375 -0.875 -0.34375q-0.59375 0 -0.890625 0.34375q-0.28125 0.34375 -0.28125 0.8125zm9.920349 0q0 0.46875 0.296875 0.796875q0.296875 0.328125 0.875 0.328125q0.578125 0 0.875 -0.328125q0.3125 -0.328125 0.3125 -0.796875q0 -0.484375 -0.3125 -0.8125q-0.296875 -0.34375 -0.875 -0.34375q-0.59375 0 -0.890625 0.34375q-0.28125 0.34375 -0.28125 0.8125z" fill-rule="nonzero"/><path fill="#000000" fill-opacity="0.0" d="m362.2608 360.11722l0.03149414 43.968506" fill-rule="evenodd"/><path stroke="#666666" stroke-width="1.3779527559055118" stroke-linejoin="round" stroke-linecap="butt" d="m362.26077 360.11722l0.025604248 35.700775" fill-rule="evenodd"/><path fill="#666666" stroke="#666666" stroke-width="1.3779527559055118" stroke-linecap="butt" d="m360.01035 395.81964l2.280487 6.251648l2.2715454 -6.2549133z" fill-rule="evenodd"/><path fill="#000000" fill-opacity="0.0" d="m362.28616 174.25728l0 37.70079" fill-rule="evenodd"/><path stroke="#666666" stroke-width="1.3779527559055118" stroke-linejoin="round" stroke-linecap="butt" d="m362.28616 174.25728l0 29.433075" fill-rule="evenodd"/><path fill="#666666" stroke="#666666" stroke-width="1.3779527559055118" stroke-linecap="butt" d="m360.01016 203.69035l2.276001 6.2532806l2.2760315 -6.2532806z" fill-rule="evenodd"/><path fill="#f3f3f3" d="m310.286 301.74817l91.26849 0l0 52.09366l-91.26849 0z" fill-rule="evenodd"/><path stroke="#a9a9a9" stroke-width="1.3779527559055118" stroke-linejoin="round" stroke-linecap="butt" d="m310.286 301.74817l91.26849 0l0 52.09366l-91.26849 0z" fill-rule="evenodd"/><path fill="#f3f3f3" d="m316.62656 308.02353l91.26849 0l0 52.09369l-91.26849 0z" fill-rule="evenodd"/><path stroke="#a9a9a9" stroke-width="1.3779527559055118" stroke-linejoin="round" stroke-linecap="butt" d="m316.62656 308.02353l91.26849 0l0 52.09369l-91.26849 0z" fill-rule="evenodd"/><path fill="#f3f3f3" d="m322.9671 314.29892l91.26846 0l0 52.09366l-91.26846 0z" fill-rule="evenodd"/><path stroke="#a9a9a9" stroke-width="1.3779527559055118" stroke-linejoin="round" stroke-linecap="butt" d="m322.9671 314.29892l91.26846 0l0 52.09366l-91.26846 0z" fill-rule="evenodd"/><path fill="#000000" d="m357.7208 345.25836q0 0.46875 0.296875 0.796875q0.296875 0.328125 0.875 0.328125q0.578125 0 0.875 -0.328125q0.3125 -0.328125 0.3125 -0.796875q0 -0.484375 -0.3125 -0.8125q-0.296875 -0.34375 -0.875 -0.34375q-0.59375 0 -0.890625 0.34375q-0.28125 0.34375 -0.28125 0.8125zm9.920349 0q0 0.46875 0.296875 0.796875q0.296875 0.328125 0.875 0.328125q0.578125 0 0.875 -0.328125q0.3125 -0.328125 0.3125 -0.796875q0 -0.484375 -0.3125 -0.8125q-0.296875 -0.34375 -0.875 -0.34375q-0.59375 0 -0.890625 0.34375q-0.28125 0.34375 -0.28125 0.8125zm9.92038 0q0 0.46875 0.296875 0.796875q0.296875 0.328125 0.875 0.328125q0.578125 0 0.875 -0.328125q0.3125 -0.328125 0.3125 -0.796875q0 -0.484375 -0.3125 -0.8125q-0.296875 -0.34375 -0.875 -0.34375q-0.59375 0 -0.890625 0.34375q-0.28125 0.34375 -0.28125 0.8125z" fill-rule="nonzero"/><path fill="#000000" fill-opacity="0.0" d="m362.28024 264.05048l-0.03149414 43.968506" fill-rule="evenodd"/><path stroke="#666666" stroke-width="1.3779527559055118" stroke-linejoin="round" stroke-linecap="butt" d="m362.28027 264.05048l-0.025604248 35.700806" fill-rule="evenodd"/><path fill="#666666" stroke="#666666" stroke-width="1.3779527559055118" stroke-linecap="butt" d="m359.97867 299.74963l2.2715454 6.2549133l2.280487 -6.251648z" fill-rule="evenodd"/><path fill="#f3f3f3" d="m256.08145 122.162796l212.40942 0l0 52.094482l-212.40942 0z" fill-rule="evenodd"/><path stroke="#666666" stroke-width="5.10761154855643" stroke-linejoin="round" stroke-linecap="butt" d="m256.08145 122.162796l212.40942 0l0 52.094482l-212.40942 0z" fill-rule="evenodd"/><path fill="#000000" d="m331.37033 144.09138l0 -11.75l-1.515625 0l-0.015625 8.765625l-4.5625 -8.765625l-1.515625 0l0 11.75l1.5 0l0.03125 -8.78125l4.5625 8.78125l1.515625 0zm5.5610046 -0.96875q0 0.46875 0.296875 0.796875q0.296875 0.328125 0.875 0.328125q0.578125 0 0.875 -0.328125q0.3125 -0.328125 0.3125 -0.796875q0 -0.484375 -0.3125 -0.8125q-0.296875 -0.34375 -0.875 -0.34375q-0.59375 0 -0.890625 0.34375q-0.28125 0.34375 -0.28125 0.8125zm0 -7.078125q0 0.46875 0.296875 0.796875q0.296875 0.328125 0.875 0.328125q0.578125 0 0.875 -0.328125q0.3125 -0.328125 0.3125 -0.796875q0 -0.484375 -0.3125 -0.8125q-0.296875 -0.34375 -0.875 -0.34375q-0.59375 0 -0.890625 0.34375q-0.28125 0.34375 -0.28125 0.8125zm21.684479 8.046875l0 -11.75l-0.125 0l-4.453125 1.703125l0 1.375l3.078125 -1.171875l0 9.84375l1.5 0zm12.310974 -8.6875q0 -0.765625 -0.265625 -1.359375q-0.265625 -0.609375 -0.734375 -1.015625q-0.46875 -0.421875 -1.109375 -0.640625q-0.640625 -0.21875 -1.375 -0.21875q-0.75 0 -1.390625 0.21875q-0.640625 0.21875 -1.078125 0.640625q-0.46875 0.40625 -0.734375 1.015625q-0.25 0.59375 -0.25 1.359375q0 0.4375 0.125 0.84375q0.125 0.390625 0.328125 0.71875q0.21875 0.34375 0.53125 0.609375q0.328125 0.265625 0.703125 0.46875q-0.4375 0.1875 -0.8125 0.484375q-0.359375 0.28125 -0.609375 0.640625q-0.265625 0.375 -0.40625 0.8125q-0.140625 0.4375 -0.140625 0.9375q0 0.8125 0.296875 1.4375q0.296875 0.609375 0.796875 1.03125q0.5 0.421875 1.1875 0.640625q0.6875 0.21875 1.46875 0.21875q0.78125 0 1.453125 -0.21875q0.6875 -0.21875 1.1875 -0.640625q0.5 -0.421875 0.796875 -1.046875q0.296875 -0.625 0.296875 -1.421875q0 -0.5 -0.140625 -0.921875q-0.140625 -0.4375 -0.40625 -0.8125q-0.265625 -0.375 -0.640625 -0.65625q-0.359375 -0.296875 -0.8125 -0.484375q0.265625 -0.125 0.484375 -0.28125q0.234375 -0.171875 0.421875 -0.359375q0.375 -0.390625 0.59375 -0.890625q0.21875 -0.515625 0.234375 -1.109375zm-1.234375 5.484375q0 0.5 -0.171875 0.90625q-0.15625 0.40625 -0.453125 0.671875q-0.296875 0.28125 -0.703125 0.421875q-0.40625 0.140625 -0.90625 0.140625q-0.515625 0 -0.9375 -0.140625q-0.40625 -0.140625 -0.703125 -0.421875q-0.28125 -0.265625 -0.4375 -0.671875q-0.15625 -0.40625 -0.15625 -0.90625q0 -0.5 0.15625 -0.90625q0.15625 -0.40625 0.4375 -0.703125q0.296875 -0.296875 0.703125 -0.453125q0.421875 -0.171875 0.921875 -0.171875q0.5 0 0.90625 0.171875q0.421875 0.15625 0.71875 0.453125q0.296875 0.296875 0.453125 0.703125q0.171875 0.40625 0.171875 0.90625zm-0.265625 -5.453125q0 0.453125 -0.15625 0.828125q-0.140625 0.359375 -0.390625 0.625q-0.28125 0.265625 -0.640625 0.40625q-0.359375 0.140625 -0.78125 0.140625q-0.4375 0 -0.796875 -0.140625q-0.359375 -0.140625 -0.625 -0.40625q-0.265625 -0.265625 -0.40625 -0.625q-0.140625 -0.375 -0.140625 -0.828125q0 -0.46875 0.140625 -0.84375q0.140625 -0.375 0.40625 -0.640625q0.25 -0.265625 0.609375 -0.40625q0.359375 -0.140625 0.796875 -0.140625q0.421875 0 0.78125 0.15625q0.375 0.140625 0.640625 0.40625q0.265625 0.28125 0.40625 0.65625q0.15625 0.359375 0.15625 0.8125zm20.153229 4.703125l0 -7.796875l-1.578125 0l-5.265625 8.140625l0 0.875l5.359375 0l0 2.734375l1.484375 0l0 -2.734375l1.640625 0l0 -1.21875l-1.640625 0zm-5.1875 0l3.453125 -5.359375l0.25 -0.453125l0 5.8125l-3.703125 0zm13.904755 3.953125l0 -11.75l-0.125 0l-4.453125 1.703125l0 1.375l3.078125 -1.171875l0 9.84375l1.5 0z" fill-rule="nonzero"/><path fill="#000000" d="m264.72314 151.68513l0 1.3125l2.96875 0l0 9.796875l-2.96875 0l0 1.296875l7.3125 0l0 -1.296875l-2.84375 0l0 -11.109375l-4.46875 0zm9.404755 7.96875l0 0.171875q0 0.9375 0.25 1.75q0.25 0.796875 0.703125 1.40625q0.453125 0.59375 1.09375 0.9375q0.640625 0.328125 1.421875 0.328125q0.8125 0 1.421875 -0.265625q0.609375 -0.28125 1.046875 -0.8125l0.0625 0.921875l1.359375 0l0 -12.40625l-1.484375 0l0 4.53125q-0.421875 -0.5 -1.015625 -0.75q-0.578125 -0.265625 -1.375 -0.265625q-0.796875 0 -1.4375 0.328125q-0.640625 0.328125 -1.09375 0.921875q-0.46875 0.578125 -0.71875 1.40625q-0.234375 0.8125 -0.234375 1.796875zm1.484375 0.171875l0 -0.171875q0 -0.640625 0.140625 -1.21875q0.140625 -0.578125 0.4375 -1.015625q0.28125 -0.4375 0.71875 -0.6875q0.453125 -0.265625 1.078125 -0.265625q0.734375 0 1.21875 0.34375q0.5 0.34375 0.796875 0.875l0 4.046875q-0.296875 0.578125 -0.796875 0.921875q-0.484375 0.328125 -1.234375 0.328125q-0.625 0 -1.0625 -0.25q-0.4375 -0.25 -0.71875 -0.6875q-0.296875 -0.4375 -0.4375 -1.0q-0.140625 -0.578125 -0.140625 -1.21875zm15.967224 5.484375l0 -1.21875l-7.40625 0l0 1.21875l7.40625 0zm2.6547546 2.140625l1.5 0l0 -4.203125q0.15625 0.1875 0.34375 0.34375q0.1875 0.140625 0.390625 0.265625q0.359375 0.1875 0.78125 0.28125q0.4375 0.109375 0.9375 0.109375q0.828125 0 1.46875 -0.328125q0.640625 -0.34375 1.078125 -0.9375q0.4375 -0.609375 0.65625 -1.40625q0.234375 -0.8125 0.234375 -1.75l0 -0.171875q0 -0.984375 -0.234375 -1.796875q-0.21875 -0.828125 -0.65625 -1.40625q-0.4375 -0.59375 -1.09375 -0.921875q-0.640625 -0.328125 -1.484375 -0.328125q-0.46875 0 -0.890625 0.109375q-0.40625 0.09375 -0.75 0.28125q-0.234375 0.125 -0.453125 0.3125q-0.203125 0.1875 -0.390625 0.40625l-0.0625 -0.953125l-1.375 0l0 12.09375zm5.890625 -7.796875l0 0.171875q0 0.640625 -0.140625 1.21875q-0.140625 0.578125 -0.4375 1.015625q-0.28125 0.453125 -0.734375 0.71875q-0.453125 0.25 -1.078125 0.25q-0.390625 0 -0.71875 -0.09375q-0.3125 -0.09375 -0.5625 -0.265625q-0.234375 -0.140625 -0.40625 -0.34375q-0.171875 -0.21875 -0.3125 -0.46875l0 -4.203125q0.15625 -0.265625 0.359375 -0.484375q0.203125 -0.234375 0.453125 -0.390625q0.234375 -0.15625 0.53125 -0.234375q0.296875 -0.078125 0.640625 -0.078125q0.625 0 1.078125 0.265625q0.453125 0.25 0.75 0.6875q0.296875 0.4375 0.4375 1.015625q0.140625 0.578125 0.140625 1.21875zm9.842224 2.125q0 0.203125 -0.078125 0.390625q-0.078125 0.1875 -0.234375 0.34375q-0.25 0.25 -0.703125 0.390625q-0.4375 0.140625 -1.03125 0.140625q-0.375 0 -0.765625 -0.078125q-0.390625 -0.078125 -0.703125 -0.28125q-0.328125 -0.1875 -0.546875 -0.5q-0.203125 -0.328125 -0.234375 -0.78125l-1.5 0q0 0.5625 0.25 1.078125q0.265625 0.515625 0.75 0.90625q0.46875 0.390625 1.15625 0.625q0.703125 0.234375 1.59375 0.234375q0.78125 0 1.421875 -0.171875q0.65625 -0.1875 1.125 -0.53125q0.46875 -0.34375 0.734375 -0.8125q0.265625 -0.484375 0.265625 -1.0625q0 -0.546875 -0.234375 -0.953125q-0.234375 -0.40625 -0.65625 -0.71875q-0.4375 -0.3125 -1.078125 -0.53125q-0.640625 -0.21875 -1.453125 -0.390625q-0.609375 -0.125 -1.015625 -0.25q-0.390625 -0.140625 -0.625 -0.296875q-0.25 -0.15625 -0.34375 -0.359375q-0.09375 -0.203125 -0.09375 -0.46875q0 -0.25 0.125 -0.484375q0.125 -0.234375 0.359375 -0.40625q0.234375 -0.171875 0.59375 -0.28125q0.359375 -0.109375 0.84375 -0.109375q0.453125 0 0.8125 0.140625q0.375 0.125 0.640625 0.328125q0.25 0.21875 0.390625 0.484375q0.15625 0.265625 0.15625 0.546875l1.484375 0q0 -0.5625 -0.25 -1.0625q-0.234375 -0.5 -0.6875 -0.875q-0.453125 -0.359375 -1.109375 -0.5625q-0.640625 -0.21875 -1.4375 -0.21875q-0.765625 0 -1.390625 0.203125q-0.625 0.203125 -1.078125 0.546875q-0.4375 0.34375 -0.6875 0.8125q-0.25 0.453125 -0.25 0.984375q0 0.546875 0.234375 0.953125q0.25 0.40625 0.6875 0.703125q0.4375 0.3125 1.046875 0.53125q0.625 0.21875 1.375 0.375q0.609375 0.109375 1.015625 0.265625q0.421875 0.15625 0.671875 0.328125q0.25 0.171875 0.34375 0.390625q0.109375 0.21875 0.109375 0.484375zm7.9828796 2.46875q1.265625 0 2.140625 -0.5q0.875 -0.515625 1.296875 -1.1875l-0.90625 -0.703125q-0.40625 0.53125 -1.03125 0.859375q-0.625 0.3125 -1.421875 0.3125q-0.609375 0 -1.109375 -0.21875q-0.5 -0.234375 -0.859375 -0.625q-0.34375 -0.375 -0.546875 -0.859375q-0.1875 -0.484375 -0.25 -1.109375l0 -0.0625l6.25 0l0 -0.671875q0 -0.90625 -0.234375 -1.6875q-0.234375 -0.796875 -0.703125 -1.375q-0.46875 -0.5625 -1.171875 -0.890625q-0.703125 -0.328125 -1.65625 -0.328125q-0.75 0 -1.46875 0.3125q-0.703125 0.296875 -1.265625 0.875q-0.5625 0.578125 -0.90625 1.421875q-0.328125 0.828125 -0.328125 1.875l0 0.34375q0 0.921875 0.296875 1.703125q0.3125 0.765625 0.859375 1.328125q0.546875 0.5625 1.3125 0.875q0.78125 0.3125 1.703125 0.3125zm-0.203125 -7.828125q0.578125 0 0.984375 0.21875q0.421875 0.203125 0.703125 0.546875q0.265625 0.328125 0.421875 0.796875q0.15625 0.46875 0.15625 0.875l0 0.0625l-4.703125 0q0.09375 -0.59375 0.3125 -1.0625q0.234375 -0.46875 0.546875 -0.78125q0.328125 -0.328125 0.71875 -0.484375q0.40625 -0.171875 0.859375 -0.171875zm12.014099 7.671875l1.359375 0l0 -8.734375l-1.5 0l0 6.265625q-0.125 0.28125 -0.3125 0.515625q-0.171875 0.234375 -0.421875 0.40625q-0.28125 0.21875 -0.6875 0.34375q-0.390625 0.109375 -0.890625 0.109375q-0.421875 0 -0.75 -0.109375q-0.328125 -0.125 -0.5625 -0.40625q-0.21875 -0.265625 -0.328125 -0.734375q-0.109375 -0.46875 -0.109375 -1.1875l0 -5.203125l-1.5 0l0 5.1875q0 0.984375 0.203125 1.6875q0.21875 0.6875 0.625 1.140625q0.390625 0.453125 0.9375 0.671875q0.5625 0.203125 1.25 0.203125q0.859375 0 1.515625 -0.359375q0.65625 -0.359375 1.09375 -1.0l0.078125 1.203125zm3.8891296 -4.4375l0 0.171875q0 0.9375 0.25 1.75q0.25 0.796875 0.703125 1.40625q0.453125 0.59375 1.09375 0.9375q0.640625 0.328125 1.421875 0.328125q0.8125 0 1.421875 -0.265625q0.609375 -0.28125 1.046875 -0.8125l0.0625 0.921875l1.359375 0l0 -12.40625l-1.484375 0l0 4.53125q-0.421875 -0.5 -1.015625 -0.75q-0.578125 -0.265625 -1.375 -0.265625q-0.796875 0 -1.4375 0.328125q-0.640625 0.328125 -1.09375 0.921875q-0.46875 0.578125 -0.71875 1.40625q-0.234375 0.8125 -0.234375 1.796875zm1.484375 0.171875l0 -0.171875q0 -0.640625 0.140625 -1.21875q0.140625 -0.578125 0.4375 -1.015625q0.28125 -0.4375 0.71875 -0.6875q0.453125 -0.265625 1.078125 -0.265625q0.734375 0 1.21875 0.34375q0.5 0.34375 0.796875 0.875l0 4.046875q-0.296875 0.578125 -0.796875 0.921875q-0.484375 0.328125 -1.234375 0.328125q-0.625 0 -1.0625 -0.25q-0.4375 -0.25 -0.71875 -0.6875q-0.296875 -0.4375 -0.4375 -1.0q-0.140625 -0.578125 -0.140625 -1.21875zm8.295349 -0.1875l0 0.1875q0 0.9375 0.265625 1.75q0.28125 0.796875 0.796875 1.40625q0.515625 0.59375 1.25 0.9375q0.734375 0.328125 1.671875 0.328125q0.921875 0 1.65625 -0.328125q0.734375 -0.34375 1.25 -0.9375q0.5 -0.609375 0.765625 -1.40625q0.28125 -0.8125 0.28125 -1.75l0 -0.1875q0 -0.9375 -0.28125 -1.75q-0.265625 -0.8125 -0.765625 -1.40625q-0.515625 -0.59375 -1.265625 -0.9375q-0.734375 -0.34375 -1.65625 -0.34375q-0.921875 0 -1.65625 0.34375q-0.734375 0.34375 -1.25 0.9375q-0.515625 0.59375 -0.796875 1.40625q-0.265625 0.8125 -0.265625 1.75zm1.5 0.1875l0 -0.1875q0 -0.625 0.140625 -1.203125q0.15625 -0.59375 0.46875 -1.046875q0.3125 -0.4375 0.765625 -0.703125q0.46875 -0.265625 1.09375 -0.265625q0.609375 0 1.078125 0.265625q0.46875 0.265625 0.78125 0.703125q0.3125 0.453125 0.46875 1.046875q0.15625 0.578125 0.15625 1.203125l0 0.1875q0 0.640625 -0.15625 1.234375q-0.15625 0.578125 -0.453125 1.015625q-0.328125 0.453125 -0.796875 0.71875q-0.453125 0.25 -1.0625 0.25q-0.625 0 -1.09375 -0.25q-0.46875 -0.265625 -0.78125 -0.71875q-0.3125 -0.4375 -0.46875 -1.015625q-0.140625 -0.59375 -0.140625 -1.234375zm24.481354 -4.625q-0.953125 0 -1.703125 0.421875q-0.734375 0.40625 -1.265625 1.125l-0.015625 -0.21875l-0.0625 -1.171875l-1.421875 0l0 8.734375l1.5 0l0 -5.609375q0.140625 -0.390625 0.359375 -0.71875q0.234375 -0.328125 0.53125 -0.5625q0.328125 -0.25 0.765625 -0.375q0.453125 -0.140625 1.0 -0.140625q0.421875 0 0.8125 0.046875q0.40625 0.03125 0.828125 0.140625l0.203125 -1.46875q-0.21875 -0.09375 -0.671875 -0.140625q-0.4375 -0.0625 -0.859375 -0.0625zm9.04538 8.890625l0 -11.75l-0.125 0l-4.453125 1.703125l0 1.375l3.078125 -1.171875l0 9.84375l1.5 0zm8.857849 -0.34375l0 -1.421875l-1.625 0l0 1.4375q0 0.6875 -0.15625 1.328125q-0.15625 0.640625 -0.546875 1.203125l0.921875 0.515625q0.65625 -0.578125 1.03125 -1.421875q0.375 -0.84375 0.375 -1.640625zm13.51413 -4.15625l0 -2.75q0 -1.125 -0.265625 -1.984375q-0.25 -0.875 -0.734375 -1.46875q-0.5 -0.59375 -1.203125 -0.90625q-0.703125 -0.3125 -1.609375 -0.3125q-0.890625 0 -1.609375 0.3125q-0.703125 0.3125 -1.1875 0.90625q-0.484375 0.59375 -0.75 1.46875q-0.25 0.859375 -0.25 1.984375l0 2.75q0 1.125 0.25 2.0q0.265625 0.859375 0.75 1.453125q0.5 0.609375 1.203125 0.90625q0.71875 0.296875 1.609375 0.296875q0.90625 0 1.609375 -0.296875q0.703125 -0.3125 1.1875 -0.90625q0.484375 -0.59375 0.734375 -1.453125q0.265625 -0.875 0.265625 -2.0zm-6.109375 -0.296875q0 -0.203125 0 -0.40625q0 -0.203125 0 -0.40625l0 -1.96875q0 -0.828125 0.15625 -1.453125q0.171875 -0.625 0.515625 -1.015625q0.28125 -0.3125 0.6875 -0.46875q0.40625 -0.171875 0.9375 -0.171875q0.53125 0 0.921875 0.15625q0.40625 0.140625 0.6875 0.453125q0.28125 0.296875 0.4375 0.75q0.171875 0.4375 0.234375 1.015625l-4.578125 3.515625zm4.609375 0.609375q0 0.875 -0.171875 1.515625q-0.171875 0.625 -0.546875 1.03125q-0.28125 0.28125 -0.671875 0.4375q-0.390625 0.15625 -0.90625 0.15625q-0.484375 0 -0.875 -0.140625q-0.375 -0.140625 -0.65625 -0.421875q-0.296875 -0.28125 -0.484375 -0.734375q-0.1875 -0.453125 -0.25 -1.03125l4.5625 -3.5q0 0.21875 0 0.5625q0 0.34375 0 0.46875l0 1.65625zm7.654724 -1.3125l-2.3125 -3.234375l-1.71875 0l3.25 4.3125l-3.34375 4.421875l1.734375 0l2.421875 -3.328125l2.40625 3.328125l1.734375 0l-3.34375 -4.421875l3.25 -4.3125l-1.75 0l-2.328125 3.234375zm12.35788 1.546875l0 -7.796875l-1.578125 0l-5.265625 8.140625l0 0.875l5.359375 0l0 2.734375l1.484375 0l0 -2.734375l1.640625 0l0 -1.21875l-1.640625 0zm-5.1875 0l3.453125 -5.359375l0.25 -0.453125l0 5.8125l-3.703125 0zm12.842224 3.609375l0 -1.421875l-1.625 0l0 1.4375q0 0.6875 -0.15625 1.328125q-0.15625 0.640625 -0.546875 1.203125l0.921875 0.515625q0.65625 -0.578125 1.03125 -1.421875q0.375 -0.84375 0.375 -1.640625zm13.51413 -4.15625l0 -2.75q0 -1.125 -0.265625 -1.984375q-0.25 -0.875 -0.734375 -1.46875q-0.5 -0.59375 -1.203125 -0.90625q-0.703125 -0.3125 -1.609375 -0.3125q-0.890625 0 -1.609375 0.3125q-0.703125 0.3125 -1.1875 0.90625q-0.484375 0.59375 -0.75 1.46875q-0.25 0.859375 -0.25 1.984375l0 2.75q0 1.125 0.25 2.0q0.265625 0.859375 0.75 1.453125q0.5 0.609375 1.203125 0.90625q0.71875 0.296875 1.609375 0.296875q0.90625 0 1.609375 -0.296875q0.703125 -0.3125 1.1875 -0.90625q0.484375 -0.59375 0.734375 -1.453125q0.265625 -0.875 0.265625 -2.0zm-6.109375 -0.296875q0 -0.203125 0 -0.40625q0 -0.203125 0 -0.40625l0 -1.96875q0 -0.828125 0.15625 -1.453125q0.171875 -0.625 0.515625 -1.015625q0.28125 -0.3125 0.6875 -0.46875q0.40625 -0.171875 0.9375 -0.171875q0.53125 0 0.921875 0.15625q0.40625 0.140625 0.6875 0.453125q0.28125 0.296875 0.4375 0.75q0.171875 0.4375 0.234375 1.015625l-4.578125 3.515625zm4.609375 0.609375q0 0.875 -0.171875 1.515625q-0.171875 0.625 -0.546875 1.03125q-0.28125 0.28125 -0.671875 0.4375q-0.390625 0.15625 -0.90625 0.15625q-0.484375 0 -0.875 -0.140625q-0.375 -0.140625 -0.65625 -0.421875q-0.296875 -0.28125 -0.484375 -0.734375q-0.1875 -0.453125 -0.25 -1.03125l4.5625 -3.5q0 0.21875 0 0.5625q0 0.34375 0 0.46875l0 1.65625zm7.654724 -1.3125l-2.3125 -3.234375l-1.71875 0l3.25 4.3125l-3.34375 4.421875l1.734375 0l2.421875 -3.328125l2.40625 3.328125l1.734375 0l-3.34375 -4.421875l3.25 -4.3125l-1.75 0l-2.328125 3.234375zm11.811005 -6.265625l-0.125 0q-1.265625 0 -2.265625 0.359375q-0.984375 0.34375 -1.671875 1.046875q-1.015625 1.0 -1.359375 2.421875q-0.34375 1.421875 -0.34375 2.890625l0 0.703125q0 0.859375 0.25 1.71875q0.265625 0.84375 0.78125 1.484375q0.46875 0.578125 1.15625 0.9375q0.6875 0.359375 1.59375 0.359375q0.890625 0 1.578125 -0.3125q0.6875 -0.3125 1.140625 -0.859375q0.46875 -0.546875 0.6875 -1.265625q0.234375 -0.734375 0.234375 -1.546875q0 -0.71875 -0.203125 -1.40625q-0.1875 -0.703125 -0.59375 -1.25q-0.40625 -0.546875 -1.046875 -0.875q-0.640625 -0.34375 -1.515625 -0.34375q-0.40625 0 -0.78125 0.09375q-0.359375 0.09375 -0.671875 0.234375q-0.328125 0.171875 -0.609375 0.390625q-0.265625 0.203125 -0.484375 0.453125q0.0625 -0.78125 0.3125 -1.515625q0.265625 -0.734375 0.78125 -1.265625q0.484375 -0.5 1.21875 -0.796875q0.75 -0.3125 1.8125 -0.3125l0.125 0l0 -1.34375zm-1.953125 5.296875q0.546875 0 0.9375 0.234375q0.40625 0.21875 0.6875 0.59375q0.265625 0.390625 0.390625 0.875q0.125 0.484375 0.125 1.0q0 0.578125 -0.140625 1.078125q-0.140625 0.5 -0.421875 0.859375q-0.28125 0.34375 -0.6875 0.546875q-0.390625 0.203125 -0.921875 0.203125q-0.453125 0 -0.859375 -0.203125q-0.40625 -0.21875 -0.734375 -0.625q-0.3125 -0.421875 -0.5 -1.015625q-0.1875 -0.609375 -0.1875 -1.375l0 -0.5q0.140625 -0.375 0.375 -0.671875q0.234375 -0.3125 0.546875 -0.53125q0.296875 -0.21875 0.65625 -0.34375q0.359375 -0.125 0.734375 -0.125z" fill-rule="nonzero"/><path fill="#f3f3f3" d="m310.17 211.956l104.22049 0l0 52.094482l-104.22049 0z" fill-rule="evenodd"/><path stroke="#666666" stroke-width="5.10761154855643" stroke-linejoin="round" stroke-linecap="butt" d="m310.17 211.956l104.22049 0l0 52.094482l-104.22049 0z" fill-rule="evenodd"/><path fill="#000000" d="m336.32462 243.88458l0 -11.75l-1.515625 0l-0.015625 8.765625l-4.5625 -8.765625l-1.515625 0l0 11.75l1.5 0l0.03125 -8.78125l4.5625 8.78125l1.515625 0zm6.889099 -6.296875l0 -3.4375l-1.5 0l0 3.4375l-3.28125 0l0 1.484375l3.28125 0l0 3.640625l1.5 0l0 -3.640625l3.28125 0l0 -1.484375l-3.28125 0zm10.436005 6.296875l0 -11.75l-0.125 0l-4.453125 1.703125l0 1.375l3.078125 -1.171875l0 9.84375l1.5 0zm8.076599 -0.96875q0 0.46875 0.296875 0.796875q0.296875 0.328125 0.875 0.328125q0.578125 0 0.875 -0.328125q0.3125 -0.328125 0.3125 -0.796875q0 -0.484375 -0.3125 -0.8125q-0.296875 -0.34375 -0.875 -0.34375q-0.59375 0 -0.890625 0.34375q-0.28125 0.34375 -0.28125 0.8125zm0 -7.078125q0 0.46875 0.296875 0.796875q0.296875 0.328125 0.875 0.328125q0.578125 0 0.875 -0.328125q0.3125 -0.328125 0.3125 -0.796875q0 -0.484375 -0.3125 -0.8125q-0.296875 -0.34375 -0.875 -0.34375q-0.59375 0 -0.890625 0.34375q-0.28125 0.34375 -0.28125 0.8125zm19.434479 7.078125q0 0.46875 0.296875 0.796875q0.296875 0.328125 0.875 0.328125q0.578125 0 0.875 -0.328125q0.3125 -0.328125 0.3125 -0.796875q0 -0.484375 -0.3125 -0.8125q-0.296875 -0.34375 -0.875 -0.34375q-0.59375 0 -0.890625 0.34375q-0.28125 0.34375 -0.28125 0.8125zm9.92038 0q0 0.46875 0.296875 0.796875q0.296875 0.328125 0.875 0.328125q0.578125 0 0.875 -0.328125q0.3125 -0.328125 0.3125 -0.796875q0 -0.484375 -0.3125 -0.8125q-0.296875 -0.34375 -0.875 -0.34375q-0.59375 0 -0.890625 0.34375q-0.28125 0.34375 -0.28125 0.8125z" fill-rule="nonzero"/><path fill="#000000" fill-opacity="0.0" d="m362.28616 74.66673l0 47.496063" fill-rule="evenodd"/><path stroke="#666666" stroke-width="1.3779527559055118" stroke-linejoin="round" stroke-linecap="butt" stroke-dasharray="1.3779527559055118,4.133858267716535" d="m362.28616 74.66673l0 39.22834" fill-rule="evenodd"/><path stroke="#666666" stroke-width="1.3779527559055118" stroke-linecap="butt" d="m360.01016 113.89507l2.276001 6.2532883l2.2760315 -6.2532883z" fill-rule="evenodd"/><path fill="#000000" fill-opacity="0.0" d="m288.60065 508.45294l147.3071 0l0 28.97638l-147.3071 0z" fill-rule="evenodd"/><path fill="#000000" d="m319.78372 528.22095q-0.671875 0 -1.203125 -0.328125q-0.53125 -0.328125 -0.765625 -0.765625l0 0.625q0 0.140625 -0.140625 0.265625q-0.125 0.109375 -0.3125 0.109375q-0.171875 0 -0.3125 -0.109375q-0.140625 -0.125 -0.140625 -0.265625l0 -10.265625q0 -0.15625 0.140625 -0.25q0.140625 -0.09375 0.3125 -0.09375q0.203125 0 0.34375 0.09375q0.140625 0.09375 0.140625 0.25l0 4.84375q0.25 -0.421875 0.71875 -0.75q0.484375 -0.34375 1.1875 -0.34375q0.71875 0 1.296875 0.375q0.578125 0.359375 0.921875 0.96875q0.359375 0.59375 0.359375 1.34375l0 1.5625q0 0.71875 -0.359375 1.359375q-0.34375 0.625 -0.921875 1.0q-0.578125 0.375 -1.265625 0.375zm-0.171875 -0.859375q0.484375 0 0.890625 -0.265625q0.40625 -0.265625 0.640625 -0.6875q0.25 -0.4375 0.25 -0.921875l0 -1.5625q0 -0.453125 -0.25 -0.875q-0.234375 -0.421875 -0.640625 -0.6875q-0.40625 -0.265625 -0.90625 -0.265625q-0.421875 0 -0.828125 0.234375q-0.40625 0.21875 -0.671875 0.625q-0.25 0.390625 -0.25 0.96875l0 2.015625q0 0.21875 0.234375 0.5625q0.234375 0.328125 0.640625 0.59375q0.40625 0.265625 0.890625 0.265625zm4.715088 4.109375q-0.171875 0 -0.3125 -0.125q-0.140625 -0.109375 -0.140625 -0.25l0 -9.4375q0 -0.15625 0.140625 -0.25q0.140625 -0.09375 0.3125 -0.09375q0.1875 0 0.3125 0.09375q0.140625 0.09375 0.140625 0.25l0 0.671875q0.25 -0.421875 0.734375 -0.75q0.484375 -0.34375 1.1875 -0.34375q0.734375 0 1.3125 0.375q0.578125 0.359375 0.921875 0.96875q0.359375 0.59375 0.359375 1.34375l0 1.5625q0 0.71875 -0.359375 1.359375q-0.34375 0.625 -0.921875 1.0q-0.578125 0.375 -1.265625 0.375q-0.65625 0 -1.171875 -0.328125q-0.515625 -0.328125 -0.765625 -0.765625l0 3.96875q0 0.140625 -0.140625 0.25q-0.140625 0.125 -0.34375 0.125zm2.25 -4.109375q0.484375 0 0.875 -0.265625q0.40625 -0.265625 0.65625 -0.6875q0.25 -0.4375 0.25 -0.921875l0 -1.5625q0 -0.453125 -0.25 -0.875q-0.234375 -0.421875 -0.640625 -0.6875q-0.40625 -0.265625 -0.921875 -0.265625q-0.421875 0 -0.828125 0.234375q-0.390625 0.21875 -0.65625 0.625q-0.25 0.390625 -0.25 0.96875l0 2.015625q0 0.21875 0.21875 0.5625q0.234375 0.328125 0.640625 0.59375q0.40625 0.265625 0.90625 0.265625zm4.7151184 0.765625q-0.1875 0 -0.328125 -0.09375q-0.125 -0.109375 -0.125 -0.265625l0 -7.96875q0 -0.734375 0.34375 -1.328125q0.359375 -0.609375 0.9375 -0.96875q0.59375 -0.359375 1.28125 -0.359375l0.359375 0q0.203125 0 0.296875 0.140625q0.109375 0.125 0.109375 0.296875q0 0.15625 -0.109375 0.296875q-0.09375 0.125 -0.296875 0.125l-0.25 0q-0.484375 0 -0.890625 0.234375q-0.390625 0.234375 -0.609375 0.640625q-0.21875 0.390625 -0.234375 0.84375l0 1.59375l2.0625 0q0.15625 0 0.234375 0.125q0.09375 0.109375 0.09375 0.25q0 0.15625 -0.09375 0.28125q-0.078125 0.125 -0.234375 0.125l-2.0625 0l0 5.671875q0 0.15625 -0.15625 0.265625q-0.140625 0.09375 -0.328125 0.09375zm3.1391602 0.828125q-0.140625 0 -0.234375 -0.109375q-0.109375 -0.109375 -0.109375 -0.296875q0 -0.171875 0.109375 -0.296875q0.09375 -0.125 0.234375 -0.125l4.609375 0q0.140625 0 0.25 0.125q0.125 0.125 0.125 0.296875q0 0.1875 -0.125 0.296875q-0.109375 0.109375 -0.25 0.109375l-4.609375 0zm6.0708923 2.515625q-0.171875 0 -0.3125 -0.125q-0.140625 -0.109375 -0.140625 -0.25l0 -9.4375q0 -0.15625 0.140625 -0.25q0.140625 -0.09375 0.3125 -0.09375q0.1875 0 0.3125 0.09375q0.140625 0.09375 0.140625 0.25l0 0.671875q0.25 -0.421875 0.734375 -0.75q0.484375 -0.34375 1.1875 -0.34375q0.734375 0 1.3125 0.375q0.578125 0.359375 0.921875 0.96875q0.359375 0.59375 0.359375 1.34375l0 1.5625q0 0.71875 -0.359375 1.359375q-0.34375 0.625 -0.921875 1.0q-0.578125 0.375 -1.265625 0.375q-0.65625 0 -1.171875 -0.328125q-0.515625 -0.328125 -0.765625 -0.765625l0 3.96875q0 0.140625 -0.140625 0.25q-0.140625 0.125 -0.34375 0.125zm2.25 -4.109375q0.484375 0 0.875 -0.265625q0.40625 -0.265625 0.65625 -0.6875q0.25 -0.4375 0.25 -0.921875l0 -1.5625q0 -0.453125 -0.25 -0.875q-0.234375 -0.421875 -0.640625 -0.6875q-0.40625 -0.265625 -0.921875 -0.265625q-0.421875 0 -0.828125 0.234375q-0.390625 0.21875 -0.65625 0.625q-0.25 0.390625 -0.25 0.96875l0 2.015625q0 0.21875 0.21875 0.5625q0.234375 0.328125 0.640625 0.59375q0.40625 0.265625 0.90625 0.265625zm6.105713 0.859375q-0.671875 0 -1.1875 -0.171875q-0.5 -0.171875 -0.796875 -0.40625q-0.28125 -0.234375 -0.28125 -0.453125q0 -0.09375 0.046875 -0.1875q0.046875 -0.09375 0.125 -0.15625q0.078125 -0.078125 0.15625 -0.078125q0.171875 0 0.359375 0.171875q0.1875 0.15625 0.546875 0.328125q0.359375 0.171875 1.0 0.171875q0.828125 0 1.15625 -0.3125q0.328125 -0.3125 0.328125 -0.71875q0 -0.46875 -0.25 -0.734375q-0.25 -0.265625 -0.671875 -0.40625q-0.40625 -0.15625 -0.859375 -0.28125q-0.453125 -0.125 -0.859375 -0.3125q-0.40625 -0.203125 -0.671875 -0.546875q-0.25 -0.34375 -0.25 -0.9375q0 -0.453125 0.234375 -0.90625q0.234375 -0.453125 0.71875 -0.75q0.5 -0.296875 1.328125 -0.296875q0.46875 0 0.90625 0.109375q0.453125 0.09375 0.734375 0.265625q0.28125 0.15625 0.28125 0.328125q0 0.078125 -0.046875 0.1875q-0.046875 0.109375 -0.140625 0.203125q-0.078125 0.09375 -0.1875 0.09375q-0.125 0 -0.328125 -0.109375q-0.1875 -0.109375 -0.484375 -0.203125q-0.296875 -0.09375 -0.71875 -0.09375q-0.515625 0 -0.84375 0.1875q-0.3125 0.1875 -0.453125 0.453125q-0.140625 0.25 -0.140625 0.484375q0 0.421875 0.25 0.640625q0.265625 0.21875 0.671875 0.359375q0.40625 0.125 0.859375 0.25q0.453125 0.125 0.859375 0.34375q0.421875 0.203125 0.671875 0.59375q0.25 0.390625 0.25 1.046875q0 0.84375 -0.609375 1.34375q-0.59375 0.5 -1.703125 0.5zm6.553589 0q-0.90625 0 -1.609375 -0.34375q-0.6875 -0.34375 -1.09375 -0.953125q-0.390625 -0.609375 -0.390625 -1.4375l0 -1.609375q0 -0.71875 0.375 -1.3125q0.375 -0.609375 1.0 -0.96875q0.625 -0.359375 1.375 -0.359375q0.71875 0 1.328125 0.34375q0.625 0.328125 1.0 0.921875q0.375 0.59375 0.375 1.34375q0 0.5625 -0.1875 0.8125q-0.1875 0.234375 -0.46875 0.296875q-0.28125 0.046875 -0.609375 0.046875l-3.25 0l0 0.53125q0 0.859375 0.625 1.375q0.625 0.5 1.5625 0.5q0.578125 0 0.890625 -0.140625q0.328125 -0.140625 0.5 -0.28125q0.1875 -0.15625 0.34375 -0.15625q0.109375 0 0.203125 0.078125q0.09375 0.078125 0.140625 0.1875q0.0625 0.09375 0.0625 0.1875q0 0.15625 -0.265625 0.390625q-0.265625 0.21875 -0.75 0.390625q-0.484375 0.15625 -1.15625 0.15625zm-2.15625 -3.90625l2.890625 0q0.421875 0 0.5625 -0.09375q0.15625 -0.09375 0.15625 -0.390625q0 -0.46875 -0.234375 -0.875q-0.21875 -0.421875 -0.625 -0.671875q-0.40625 -0.265625 -0.953125 -0.265625q-0.484375 0 -0.890625 0.234375q-0.40625 0.234375 -0.65625 0.640625q-0.25 0.390625 -0.25 0.875l0 0.546875zm8.590942 3.90625q-0.75 0 -1.375 -0.359375q-0.625 -0.375 -1.0 -1.0q-0.375 -0.640625 -0.375 -1.34375l0 -3.84375q0 -0.125 0.140625 -0.234375q0.15625 -0.125 0.34375 -0.125q0.1875 0 0.3125 0.125q0.140625 0.109375 0.140625 0.234375l0 3.84375q0 0.484375 0.25 0.90625q0.25 0.40625 0.640625 0.671875q0.40625 0.265625 0.90625 0.265625q0.53125 0 0.921875 -0.25q0.40625 -0.265625 0.640625 -0.6875q0.25 -0.421875 0.25 -0.90625l0 -3.859375q0 -0.140625 0.140625 -0.234375q0.140625 -0.109375 0.328125 -0.109375q0.21875 0 0.328125 0.109375q0.125 0.09375 0.125 0.234375l0 3.859375q0 0.734375 -0.375 1.359375q-0.359375 0.609375 -0.984375 0.984375q-0.625 0.359375 -1.359375 0.359375zm6.747162 0q-0.671875 0 -1.265625 -0.375q-0.578125 -0.375 -0.9375 -1.0q-0.34375 -0.640625 -0.34375 -1.359375l0 -1.5625q0 -0.75 0.34375 -1.34375q0.359375 -0.609375 0.9375 -0.96875q0.59375 -0.375 1.296875 -0.375q0.703125 0 1.1875 0.34375q0.484375 0.328125 0.71875 0.75l0 -4.84375q0 -0.15625 0.140625 -0.25q0.140625 -0.09375 0.328125 -0.09375q0.21875 0 0.34375 0.09375q0.125 0.09375 0.125 0.25l0 10.265625q0 0.140625 -0.125 0.265625q-0.125 0.109375 -0.34375 0.109375q-0.171875 0 -0.296875 -0.109375q-0.125 -0.125 -0.125 -0.265625l0 -0.625q-0.234375 0.4375 -0.78125 0.765625q-0.53125 0.328125 -1.203125 0.328125zm0.171875 -0.859375q0.515625 0 0.90625 -0.265625q0.390625 -0.265625 0.625 -0.59375q0.234375 -0.34375 0.234375 -0.5625l0 -2.015625q0 -0.578125 -0.265625 -0.96875q-0.25 -0.40625 -0.65625 -0.625q-0.40625 -0.234375 -0.828125 -0.234375q-0.5 0 -0.90625 0.265625q-0.390625 0.265625 -0.640625 0.6875q-0.25 0.421875 -0.25 0.875l0 1.5625q0 0.484375 0.25 0.921875q0.25 0.421875 0.640625 0.6875q0.40625 0.265625 0.890625 0.265625zm6.980713 0.859375q-0.734375 0 -1.359375 -0.375q-0.625 -0.375 -1.0 -1.0q-0.375 -0.625 -0.375 -1.359375l0 -1.5625q0 -0.71875 0.359375 -1.328125q0.375 -0.609375 1.0 -0.984375q0.625 -0.375 1.375 -0.375q0.71875 0 1.34375 0.375q0.640625 0.359375 1.015625 0.96875q0.375 0.59375 0.375 1.34375l0 1.5625q0 0.71875 -0.375 1.359375q-0.375 0.625 -1.015625 1.0q-0.625 0.375 -1.34375 0.375zm0 -0.859375q0.5 0 0.890625 -0.265625q0.40625 -0.265625 0.65625 -0.6875q0.25 -0.4375 0.25 -0.921875l0 -1.5625q0 -0.453125 -0.25 -0.875q-0.234375 -0.421875 -0.640625 -0.6875q-0.40625 -0.265625 -0.90625 -0.265625q-0.515625 0 -0.921875 0.265625q-0.390625 0.265625 -0.640625 0.6875q-0.25 0.421875 -0.25 0.875l0 1.5625q0 0.484375 0.25 0.921875q0.25 0.421875 0.65625 0.6875q0.40625 0.265625 0.90625 0.265625zm3.483612 1.59375q-0.140625 0 -0.234375 -0.109375q-0.109375 -0.109375 -0.109375 -0.296875q0 -0.171875 0.109375 -0.296875q0.09375 -0.125 0.234375 -0.125l4.609375 0q0.140625 0 0.25 0.125q0.125 0.125 0.125 0.296875q0 0.1875 -0.125 0.296875q-0.109375 0.109375 -0.25 0.109375l-4.609375 0zm6.0708923 -0.828125q-0.1875 0 -0.328125 -0.09375q-0.125 -0.109375 -0.125 -0.265625l0 -7.96875q0 -0.734375 0.34375 -1.328125q0.359375 -0.609375 0.9375 -0.96875q0.59375 -0.359375 1.28125 -0.359375l0.359375 0q0.203125 0 0.296875 0.140625q0.109375 0.125 0.109375 0.296875q0 0.15625 -0.109375 0.296875q-0.09375 0.125 -0.296875 0.125l-0.25 0q-0.484375 0 -0.890625 0.234375q-0.390625 0.234375 -0.609375 0.640625q-0.21875 0.390625 -0.234375 0.84375l0 1.59375l2.0625 0q0.15625 0 0.234375 0.125q0.09375 0.109375 0.09375 0.25q0 0.15625 -0.09375 0.28125q-0.078125 0.125 -0.234375 0.125l-2.0625 0l0 5.671875q0 0.15625 -0.15625 0.265625q-0.140625 0.09375 -0.328125 0.09375zm6.60791 0.09375q-0.75 0 -1.375 -0.359375q-0.625 -0.375 -1.0 -1.0q-0.375 -0.640625 -0.375 -1.34375l0 -3.84375q0 -0.125 0.140625 -0.234375q0.15625 -0.125 0.34375 -0.125q0.1875 0 0.3125 0.125q0.140625 0.109375 0.140625 0.234375l0 3.84375q0 0.484375 0.25 0.90625q0.25 0.40625 0.640625 0.671875q0.40625 0.265625 0.90625 0.265625q0.53125 0 0.921875 -0.25q0.40625 -0.265625 0.640625 -0.6875q0.25 -0.421875 0.25 -0.90625l0 -3.859375q0 -0.140625 0.140625 -0.234375q0.140625 -0.109375 0.328125 -0.109375q0.21875 0 0.328125 0.109375q0.125 0.09375 0.125 0.234375l0 3.859375q0 0.734375 -0.375 1.359375q-0.359375 0.609375 -0.984375 0.984375q-0.625 0.359375 -1.359375 0.359375zm4.919037 -0.09375q-0.1875 0 -0.328125 -0.109375q-0.140625 -0.125 -0.140625 -0.265625l0 -6.09375q0 -0.15625 0.140625 -0.25q0.140625 -0.09375 0.328125 -0.09375q0.1875 0 0.3125 0.09375q0.125 0.09375 0.125 0.25l0 0.671875q0.234375 -0.421875 0.71875 -0.75q0.484375 -0.34375 1.21875 -0.34375q0.6875 0 1.265625 0.375q0.578125 0.359375 0.921875 0.96875q0.359375 0.59375 0.359375 1.34375l0 3.828125q0 0.1875 -0.15625 0.28125q-0.140625 0.09375 -0.328125 0.09375q-0.15625 0 -0.3125 -0.09375q-0.140625 -0.09375 -0.140625 -0.28125l0 -3.828125q0 -0.453125 -0.25 -0.875q-0.25 -0.421875 -0.65625 -0.6875q-0.390625 -0.265625 -0.890625 -0.265625q-0.421875 0 -0.828125 0.234375q-0.390625 0.21875 -0.640625 0.625q-0.25 0.390625 -0.25 0.96875l0 3.828125q0 0.140625 -0.140625 0.265625q-0.140625 0.109375 -0.328125 0.109375zm9.202759 0.09375q-0.953125 0 -1.578125 -0.359375q-0.609375 -0.359375 -0.921875 -0.96875q-0.296875 -0.625 -0.296875 -1.40625l0 -1.53125q0 -0.765625 0.296875 -1.375q0.296875 -0.625 0.921875 -0.984375q0.625 -0.359375 1.578125 -0.359375q0.609375 0 1.0625 0.15625q0.453125 0.140625 0.703125 0.359375q0.25 0.21875 0.25 0.421875q0 0.078125 -0.046875 0.1875q-0.046875 0.109375 -0.140625 0.1875q-0.09375 0.078125 -0.21875 0.078125q-0.125 0 -0.296875 -0.125q-0.15625 -0.140625 -0.453125 -0.265625q-0.28125 -0.140625 -0.8125 -0.140625q-0.9375 0 -1.421875 0.5q-0.484375 0.5 -0.484375 1.359375l0 1.53125q0 0.890625 0.484375 1.390625q0.484375 0.484375 1.4375 0.484375q0.546875 0 0.84375 -0.125q0.296875 -0.140625 0.46875 -0.28125q0.171875 -0.140625 0.3125 -0.140625q0.125 0 0.21875 0.078125q0.09375 0.0625 0.140625 0.171875q0.0625 0.09375 0.0625 0.21875q0 0.1875 -0.265625 0.40625q-0.265625 0.21875 -0.734375 0.375q-0.46875 0.15625 -1.109375 0.15625z" fill-rule="nonzero"/><path fill="#000000" fill-opacity="0.0" d="m615.8381 461.03806l0 49.485596" fill-rule="evenodd"/><path stroke="#666666" stroke-width="1.4094488188976377" stroke-linejoin="round" stroke-linecap="butt" stroke-dasharray="1.4094488188976377,4.228346456692913" d="m615.8381 461.03806l0 41.0289" fill-rule="evenodd"/><path stroke="#666666" stroke-width="1.4094488188976377" stroke-linecap="butt" d="m613.5101 502.06696l2.328003 6.39624l2.328064 -6.39624z" fill-rule="evenodd"/><path fill="#f3f3f3" d="m562.5859 407.78583l106.504456 0l0 53.252228l-106.504456 0z" fill-rule="evenodd"/><path stroke="#666666" stroke-width="5.2204724409448815" stroke-linejoin="round" stroke-linecap="butt" d="m562.5859 407.78583l106.504456 0l0 53.252228l-106.504456 0z" fill-rule="evenodd"/><path fill="#000000" d="m589.298 440.64285l0 -12.015625l-1.546875 0l-0.03125 8.96875l-4.65625 -8.96875l-1.546875 0l0 12.015625l1.53125 0l0.03125 -8.984375l4.65625 8.984375l1.5625 0zm7.0360107 -6.453125l0 -3.5l-1.53125 0l0 3.5l-3.34375 0l0 1.53125l3.34375 0l0 3.71875l1.53125 0l0 -3.71875l3.359375 0l0 -1.53125l-3.359375 0zm13.332886 -4.703125l0 -0.859375l-8.125 0l0 1.328125l6.5 0l-4.953125 10.6875l1.59375 0l4.984375 -11.15625zm5.5985107 10.171875q0 0.46875 0.296875 0.8125q0.3125 0.328125 0.90625 0.328125q0.578125 0 0.890625 -0.328125q0.3125 -0.328125 0.3125 -0.8125q0 -0.5 -0.3125 -0.84375q-0.296875 -0.34375 -0.890625 -0.34375q-0.609375 0 -0.90625 0.34375q-0.296875 0.34375 -0.296875 0.84375zm0 -7.234375q0 0.46875 0.296875 0.8125q0.3125 0.328125 0.90625 0.328125q0.578125 0 0.890625 -0.328125q0.3125 -0.328125 0.3125 -0.8125q0 -0.5 -0.3125 -0.84375q-0.296875 -0.34375 -0.890625 -0.34375q-0.609375 0 -0.90625 0.34375q-0.296875 0.34375 -0.296875 0.84375zm19.884583 7.234375q0 0.46875 0.296875 0.8125q0.3125 0.328125 0.90625 0.328125q0.578125 0 0.890625 -0.328125q0.3125 -0.328125 0.3125 -0.8125q0 -0.5 -0.3125 -0.84375q-0.296875 -0.34375 -0.890625 -0.34375q-0.609375 0 -0.90625 0.34375q-0.296875 0.34375 -0.296875 0.84375zm10.145386 0q0 0.46875 0.296875 0.8125q0.3125 0.328125 0.90625 0.328125q0.578125 0 0.890625 -0.328125q0.3125 -0.328125 0.3125 -0.8125q0 -0.5 -0.3125 -0.84375q-0.296875 -0.34375 -0.890625 -0.34375q-0.609375 0 -0.90625 0.34375q-0.296875 0.34375 -0.296875 0.84375z" fill-rule="nonzero"/><path fill="#000000" fill-opacity="0.0" d="m615.8558 362.84647l0 44.939697" fill-rule="evenodd"/><path stroke="#666666" stroke-width="1.4094488188976377" stroke-linejoin="round" stroke-linecap="butt" d="m615.8558 362.84647l0 36.483" fill-rule="evenodd"/><path fill="#666666" stroke="#666666" stroke-width="1.4094488188976377" stroke-linecap="butt" d="m613.5277 399.32947l2.328064 6.39624l2.328003 -6.39624z" fill-rule="evenodd"/><path fill="#000000" fill-opacity="0.0" d="m615.8381 172.9301l0 38.4888" fill-rule="evenodd"/><path stroke="#666666" stroke-width="1.4094488188976377" stroke-linejoin="round" stroke-linecap="butt" d="m615.8381 172.9301l0 30.032104" fill-rule="evenodd"/><path fill="#666666" stroke="#666666" stroke-width="1.4094488188976377" stroke-linecap="butt" d="m613.5101 202.9622l2.328003 6.396225l2.328064 -6.396225z" fill-rule="evenodd"/><path fill="#000000" fill-opacity="0.0" d="m669.09033 146.30399l22.60852 0l0 288.12482l-22.565247 0" fill-rule="evenodd"/><path stroke="#666666" stroke-width="1.4094488188976377" stroke-linejoin="round" stroke-linecap="butt" d="m669.09033 146.30399l22.608582 0l0 288.12482l-14.108582 0" fill-rule="evenodd"/><path fill="#666666" stroke="#666666" stroke-width="1.4094488188976377" stroke-linecap="butt" d="m677.59033 432.10077l-6.39624 2.3280334l6.39624 2.3280334z" fill-rule="evenodd"/><path fill="#f3f3f3" d="m562.7387 303.1986l93.27435 0l0 53.234985l-93.27435 0z" fill-rule="evenodd"/><path stroke="#a9a9a9" stroke-width="1.4094488188976377" stroke-linejoin="round" stroke-linecap="butt" d="m562.7387 303.1986l93.27435 0l0 53.234985l-93.27435 0z" fill-rule="evenodd"/><path fill="#f3f3f3" d="m569.21857 309.61145l93.27435 0l0 53.235016l-93.27435 0z" fill-rule="evenodd"/><path stroke="#a9a9a9" stroke-width="1.4094488188976377" stroke-linejoin="round" stroke-linecap="butt" d="m569.21857 309.61145l93.27435 0l0 53.235016l-93.27435 0z" fill-rule="evenodd"/><path fill="#f3f3f3" d="m575.6984 316.02432l93.274414 0l0 53.235016l-93.274414 0z" fill-rule="evenodd"/><path stroke="#a9a9a9" stroke-width="1.4094488188976377" stroke-linejoin="round" stroke-linecap="butt" d="m575.6984 316.02432l93.274414 0l0 53.235016l-93.274414 0z" fill-rule="evenodd"/><path fill="#000000" d="m611.2113 347.88837q0 0.46875 0.296875 0.8125q0.3125 0.328125 0.90625 0.328125q0.578125 0 0.890625 -0.328125q0.3125 -0.328125 0.3125 -0.8125q0 -0.5 -0.3125 -0.84375q-0.296875 -0.34375 -0.890625 -0.34375q-0.609375 0 -0.90625 0.34375q-0.296875 0.34375 -0.296875 0.84375zm10.145386 0q0 0.46875 0.296875 0.8125q0.3125 0.328125 0.90625 0.328125q0.578125 0 0.890625 -0.328125q0.3125 -0.328125 0.3125 -0.8125q0 -0.5 -0.3125 -0.84375q-0.296875 -0.34375 -0.890625 -0.34375q-0.609375 0 -0.90625 0.34375q-0.296875 0.34375 -0.296875 0.84375zm10.145386 0q0 0.46875 0.296875 0.8125q0.3125 0.328125 0.90625 0.328125q0.578125 0 0.890625 -0.328125q0.3125 -0.328125 0.3125 -0.8125q0 -0.5 -0.3125 -0.84375q-0.296875 -0.34375 -0.890625 -0.34375q-0.609375 0 -0.90625 0.34375q-0.296875 0.34375 -0.296875 0.84375z" fill-rule="nonzero"/><path fill="#000000" fill-opacity="0.0" d="m615.8417 264.69028l0 44.939667" fill-rule="evenodd"/><path stroke="#666666" stroke-width="1.4094488188976377" stroke-linejoin="round" stroke-linecap="butt" d="m615.8417 264.69028l0 36.48297" fill-rule="evenodd"/><path fill="#666666" stroke="#666666" stroke-width="1.4094488188976377" stroke-linecap="butt" d="m613.5136 301.17325l2.328064 6.3962097l2.328003 -6.3962097z" fill-rule="evenodd"/><path fill="#f3f3f3" d="m562.5859 119.67788l106.504456 0l0 53.25222l-106.504456 0z" fill-rule="evenodd"/><path stroke="#666666" stroke-width="5.2204724409448815" stroke-linejoin="round" stroke-linecap="butt" d="m562.5859 119.67788l106.504456 0l0 53.25222l-106.504456 0z" fill-rule="evenodd"/><path fill="#000000" d="m584.2252 142.5349l0 -12.015625l-1.546875 0l-0.03125 8.96875l-4.65625 -8.96875l-1.546875 0l0 12.015625l1.53125 0l0.03125 -8.984375l4.65625 8.984375l1.5625 0zm5.676697 -0.984375q0 0.46875 0.296875 0.8125q0.3125 0.328125 0.90625 0.328125q0.578125 0 0.890625 -0.328125q0.3125 -0.328125 0.3125 -0.8125q0 -0.5 -0.3125 -0.84375q-0.296875 -0.34375 -0.890625 -0.34375q-0.609375 0 -0.90625 0.34375q-0.296875 0.34375 -0.296875 0.84375zm0 -7.234375q0 0.46875 0.296875 0.8125q0.3125 0.328125 0.90625 0.328125q0.578125 0 0.890625 -0.328125q0.3125 -0.328125 0.3125 -0.8125q0 -0.5 -0.3125 -0.84375q-0.296875 -0.34375 -0.890625 -0.34375q-0.609375 0 -0.90625 0.34375q-0.296875 0.34375 -0.296875 0.84375zm24.618896 -0.65625q0 -0.796875 -0.28125 -1.40625q-0.265625 -0.609375 -0.734375 -1.03125q-0.484375 -0.421875 -1.140625 -0.640625q-0.640625 -0.234375 -1.40625 -0.234375q-0.765625 0 -1.421875 0.234375q-0.640625 0.21875 -1.109375 0.640625q-0.46875 0.421875 -0.734375 1.03125q-0.265625 0.609375 -0.265625 1.40625q0 0.4375 0.125 0.84375q0.125 0.40625 0.359375 0.734375q0.21875 0.359375 0.53125 0.640625q0.328125 0.265625 0.71875 0.46875q-0.453125 0.1875 -0.828125 0.484375q-0.375 0.296875 -0.640625 0.671875q-0.265625 0.390625 -0.40625 0.84375q-0.125 0.4375 -0.125 0.9375q0 0.828125 0.296875 1.46875q0.296875 0.640625 0.8125 1.0625q0.515625 0.4375 1.203125 0.671875q0.703125 0.21875 1.515625 0.21875q0.78125 0 1.46875 -0.21875q0.703125 -0.234375 1.21875 -0.671875q0.515625 -0.4375 0.8125 -1.0625q0.3125 -0.640625 0.3125 -1.46875q0 -0.5 -0.15625 -0.9375q-0.140625 -0.453125 -0.40625 -0.828125q-0.265625 -0.390625 -0.640625 -0.671875q-0.375 -0.296875 -0.84375 -0.5q0.265625 -0.125 0.5 -0.28125q0.234375 -0.171875 0.421875 -0.359375q0.390625 -0.40625 0.609375 -0.921875q0.234375 -0.53125 0.234375 -1.125zm-1.25 5.59375q0 0.53125 -0.171875 0.9375q-0.171875 0.40625 -0.46875 0.6875q-0.296875 0.28125 -0.71875 0.4375q-0.421875 0.140625 -0.921875 0.140625q-0.53125 0 -0.96875 -0.140625q-0.421875 -0.15625 -0.71875 -0.4375q-0.296875 -0.28125 -0.453125 -0.6875q-0.15625 -0.40625 -0.15625 -0.9375q0 -0.5 0.15625 -0.921875q0.15625 -0.421875 0.453125 -0.71875q0.296875 -0.296875 0.71875 -0.46875q0.421875 -0.171875 0.953125 -0.171875q0.5 0 0.921875 0.171875q0.421875 0.171875 0.734375 0.46875q0.296875 0.296875 0.46875 0.71875q0.171875 0.421875 0.171875 0.921875zm-0.28125 -5.578125q0 0.46875 -0.15625 0.84375q-0.140625 0.375 -0.40625 0.640625q-0.265625 0.28125 -0.640625 0.421875q-0.375 0.140625 -0.8125 0.140625q-0.4375 0 -0.8125 -0.140625q-0.359375 -0.140625 -0.625 -0.421875q-0.28125 -0.265625 -0.421875 -0.640625q-0.140625 -0.375 -0.140625 -0.84375q0 -0.46875 0.140625 -0.84375q0.140625 -0.390625 0.40625 -0.671875q0.265625 -0.265625 0.625 -0.40625q0.375 -0.140625 0.8125 -0.140625q0.453125 0 0.8125 0.15625q0.375 0.140625 0.65625 0.40625q0.25 0.28125 0.40625 0.671875q0.15625 0.375 0.15625 0.828125zm4.8328857 2.828125l1.21875 0.3125q0.203125 -0.171875 0.390625 -0.3125q0.203125 -0.140625 0.421875 -0.25q0.234375 -0.09375 0.5 -0.140625q0.28125 -0.0625 0.65625 -0.0625q0.578125 0 1.015625 0.21875q0.453125 0.203125 0.765625 0.546875q0.296875 0.375 0.453125 0.859375q0.171875 0.484375 0.171875 1.046875q0 0.625 -0.140625 1.125q-0.140625 0.5 -0.421875 0.859375q-0.296875 0.359375 -0.71875 0.5625q-0.421875 0.1875 -0.96875 0.1875q-0.96875 0 -1.578125 -0.53125q-0.609375 -0.53125 -0.75 -1.546875l-1.453125 0q0.078125 0.828125 0.40625 1.453125q0.328125 0.625 0.84375 1.046875q0.5 0.40625 1.140625 0.625q0.65625 0.203125 1.390625 0.203125q0.96875 0 1.671875 -0.296875q0.703125 -0.3125 1.1875 -0.84375q0.453125 -0.53125 0.6875 -1.265625q0.234375 -0.734375 0.234375 -1.59375q0 -0.90625 -0.25 -1.640625q-0.25 -0.75 -0.71875 -1.28125q-0.453125 -0.515625 -1.125 -0.796875q-0.65625 -0.296875 -1.484375 -0.296875q-0.65625 0 -1.15625 0.15625q-0.484375 0.15625 -0.84375 0.359375l0.34375 -3.203125l4.875 0l0 -1.484375l-6.171875 0l-0.59375 5.984375zm24.697083 6.03125l0 -12.015625l-0.125 0l-4.546875 1.75l0 1.390625l3.140625 -1.203125l0 10.078125l1.53125 0zm12.739136 -4.59375l0 -2.8125q0 -1.15625 -0.265625 -2.03125q-0.265625 -0.890625 -0.765625 -1.515625q-0.5 -0.609375 -1.21875 -0.921875q-0.71875 -0.3125 -1.65625 -0.3125q-0.90625 0 -1.640625 0.3125q-0.71875 0.3125 -1.203125 0.921875q-0.515625 0.625 -0.78125 1.515625q-0.25 0.875 -0.25 2.03125l0 2.8125q0 1.140625 0.25 2.03125q0.265625 0.890625 0.78125 1.484375q0.5 0.625 1.21875 0.9375q0.734375 0.3125 1.65625 0.3125q0.921875 0 1.640625 -0.3125q0.71875 -0.328125 1.203125 -0.9375q0.5 -0.59375 0.765625 -1.484375q0.265625 -0.890625 0.265625 -2.03125zm-6.25 -0.3125q0 -0.21875 0 -0.421875q0 -0.203125 0 -0.40625l0 -2.015625q0 -0.84375 0.171875 -1.484375q0.171875 -0.640625 0.515625 -1.046875q0.28125 -0.3125 0.703125 -0.484375q0.421875 -0.171875 0.953125 -0.171875q0.546875 0 0.953125 0.15625q0.40625 0.15625 0.6875 0.46875q0.296875 0.3125 0.453125 0.765625q0.171875 0.453125 0.234375 1.046875l-4.671875 3.59375zm4.71875 0.625q0 0.890625 -0.1875 1.546875q-0.171875 0.640625 -0.546875 1.046875q-0.28125 0.296875 -0.6875 0.453125q-0.40625 0.15625 -0.921875 0.15625q-0.5 0 -0.90625 -0.140625q-0.390625 -0.140625 -0.671875 -0.421875q-0.296875 -0.296875 -0.5 -0.75q-0.1875 -0.46875 -0.25 -1.0625l4.671875 -3.578125q0 0.234375 0 0.59375q0 0.34375 0 0.453125l0 1.703125z" fill-rule="nonzero"/><path fill="#000000" d="m580.49084 161.45677q-0.703125 0 -1.1875 -0.28125q-0.484375 -0.28125 -0.78125 -0.75q-0.296875 -0.453125 -0.421875 -1.015625q-0.125 -0.578125 -0.125 -1.171875l0 -0.34375q0 -0.578125 0.125 -1.140625q0.125 -0.578125 0.421875 -1.03125q0.296875 -0.453125 0.78125 -0.734375q0.484375 -0.296875 1.1875 -0.296875q0.46875 0 0.859375 0.15625q0.40625 0.15625 0.703125 0.4375q0.28125 0.265625 0.453125 0.625q0.171875 0.359375 0.171875 0.765625l1.453125 0q0 -0.671875 -0.28125 -1.265625q-0.265625 -0.609375 -0.75 -1.046875q-0.484375 -0.421875 -1.15625 -0.671875q-0.65625 -0.25 -1.453125 -0.25q-1.0 0 -1.765625 0.359375q-0.765625 0.359375 -1.265625 0.96875q-0.515625 0.625 -0.765625 1.4375q-0.25 0.8125 -0.25 1.6875l0 0.34375q0 0.890625 0.25 1.703125q0.25 0.796875 0.765625 1.40625q0.5 0.625 1.265625 1.0q0.765625 0.359375 1.765625 0.359375q0.71875 0 1.359375 -0.25q0.65625 -0.25 1.171875 -0.65625q0.5 -0.40625 0.796875 -0.9375q0.296875 -0.546875 0.3125 -1.140625l-1.453125 0q0 0.375 -0.1875 0.6875q-0.1875 0.3125 -0.484375 0.546875q-0.3125 0.234375 -0.703125 0.375q-0.390625 0.125 -0.8125 0.125zm12.223572 1.078125l1.59375 0l0 -0.125q-0.15625 -0.375 -0.25 -0.875q-0.078125 -0.5 -0.078125 -0.953125l0 -4.140625q0 -0.765625 -0.265625 -1.3125q-0.265625 -0.5625 -0.75 -0.953125q-0.46875 -0.359375 -1.125 -0.546875q-0.65625 -0.1875 -1.40625 -0.1875q-0.84375 0 -1.5 0.234375q-0.65625 0.21875 -1.109375 0.59375q-0.453125 0.375 -0.703125 0.859375q-0.234375 0.46875 -0.25 0.953125l1.53125 0q0 -0.28125 0.140625 -0.53125q0.140625 -0.265625 0.390625 -0.46875q0.234375 -0.1875 0.59375 -0.296875q0.359375 -0.109375 0.8125 -0.109375q0.5 0 0.890625 0.125q0.390625 0.109375 0.65625 0.34375q0.28125 0.21875 0.421875 0.546875q0.15625 0.328125 0.15625 0.734375l0 0.6875l-1.671875 0q-0.9375 0 -1.6875 0.1875q-0.75 0.1875 -1.296875 0.546875q-0.53125 0.375 -0.828125 0.921875q-0.296875 0.546875 -0.296875 1.296875q0 0.546875 0.21875 1.03125q0.21875 0.484375 0.625 0.828125q0.40625 0.359375 0.96875 0.578125q0.578125 0.203125 1.296875 0.203125q0.4375 0 0.8125 -0.09375q0.390625 -0.09375 0.734375 -0.25q0.34375 -0.15625 0.625 -0.359375q0.296875 -0.21875 0.515625 -0.4375q0.03125 0.28125 0.078125 0.546875q0.0625 0.25 0.15625 0.421875zm-2.703125 -1.15625q-0.453125 0 -0.796875 -0.109375q-0.328125 -0.125 -0.546875 -0.328125q-0.234375 -0.203125 -0.34375 -0.484375q-0.109375 -0.28125 -0.109375 -0.609375q0 -0.34375 0.125 -0.609375q0.140625 -0.28125 0.375 -0.484375q0.359375 -0.28125 0.9375 -0.40625q0.59375 -0.140625 1.390625 -0.140625l1.421875 0l0 1.796875q-0.140625 0.265625 -0.375 0.515625q-0.21875 0.234375 -0.53125 0.4375q-0.328125 0.1875 -0.71875 0.3125q-0.390625 0.109375 -0.828125 0.109375zm7.2078857 -11.53125l0 1.34375l3.046875 0l0 10.015625l-3.046875 0l0 1.328125l7.484375 0l0 -1.328125l-2.921875 0l0 -11.359375l-4.5625 0zm10.145386 0l0 1.34375l3.046875 0l0 10.015625l-3.046875 0l0 1.328125l7.484375 0l0 -1.328125l-2.921875 0l0 -11.359375l-4.5625 0zm27.603333 8.09375l0 -2.8125q0 -1.15625 -0.265625 -2.03125q-0.265625 -0.890625 -0.765625 -1.515625q-0.5 -0.609375 -1.21875 -0.921875q-0.71875 -0.3125 -1.65625 -0.3125q-0.90625 0 -1.640625 0.3125q-0.71875 0.3125 -1.203125 0.921875q-0.515625 0.625 -0.78125 1.515625q-0.25 0.875 -0.25 2.03125l0 2.8125q0 1.140625 0.25 2.03125q0.265625 0.890625 0.78125 1.484375q0.5 0.625 1.21875 0.9375q0.734375 0.3125 1.65625 0.3125q0.921875 0 1.640625 -0.3125q0.71875 -0.328125 1.203125 -0.9375q0.5 -0.59375 0.765625 -1.484375q0.265625 -0.890625 0.265625 -2.03125zm-6.25 -0.3125q0 -0.21875 0 -0.421875q0 -0.203125 0 -0.40625l0 -2.015625q0 -0.84375 0.171875 -1.484375q0.171875 -0.640625 0.515625 -1.046875q0.28125 -0.3125 0.703125 -0.484375q0.421875 -0.171875 0.953125 -0.171875q0.546875 0 0.953125 0.15625q0.40625 0.15625 0.6875 0.46875q0.296875 0.3125 0.453125 0.765625q0.171875 0.453125 0.234375 1.046875l-4.671875 3.59375zm4.71875 0.625q0 0.890625 -0.1875 1.546875q-0.171875 0.640625 -0.546875 1.046875q-0.28125 0.296875 -0.6875 0.453125q-0.40625 0.15625 -0.921875 0.15625q-0.5 0 -0.90625 -0.140625q-0.390625 -0.140625 -0.671875 -0.421875q-0.296875 -0.296875 -0.5 -0.75q-0.1875 -0.46875 -0.25 -1.0625l4.671875 -3.578125q0 0.234375 0 0.59375q0 0.34375 0 0.453125l0 1.703125zm7.8172607 -1.34375l-2.359375 -3.3125l-1.765625 0l3.328125 4.421875l-3.421875 4.515625l1.78125 0l2.46875 -3.40625l2.46875 3.40625l1.765625 0l-3.40625 -4.515625l3.3125 -4.421875l-1.78125 0l-2.390625 3.3125zm12.082886 -6.40625l-0.125 0q-1.296875 0 -2.3125 0.359375q-1.015625 0.359375 -1.71875 1.078125q-1.03125 1.03125 -1.390625 2.484375q-0.359375 1.453125 -0.359375 2.953125l0 0.71875q0 0.875 0.265625 1.75q0.265625 0.859375 0.8125 1.515625q0.46875 0.59375 1.171875 0.96875q0.703125 0.375 1.625 0.375q0.921875 0 1.609375 -0.328125q0.703125 -0.328125 1.171875 -0.890625q0.46875 -0.546875 0.703125 -1.28125q0.25 -0.75 0.25 -1.59375q0 -0.734375 -0.203125 -1.4375q-0.203125 -0.71875 -0.625 -1.28125q-0.421875 -0.5625 -1.078125 -0.90625q-0.640625 -0.34375 -1.546875 -0.34375q-0.40625 0 -0.78125 0.109375q-0.375 0.09375 -0.703125 0.25q-0.328125 0.15625 -0.609375 0.375q-0.28125 0.21875 -0.5 0.484375q0.0625 -0.796875 0.328125 -1.546875q0.265625 -0.75 0.78125 -1.296875q0.5 -0.515625 1.25 -0.828125q0.765625 -0.3125 1.859375 -0.3125l0.125 0l0 -1.375zm-2.0 5.421875q0.5625 0 0.96875 0.234375q0.421875 0.21875 0.6875 0.609375q0.265625 0.390625 0.390625 0.890625q0.140625 0.5 0.140625 1.03125q0 0.59375 -0.140625 1.109375q-0.140625 0.5 -0.421875 0.859375q-0.296875 0.359375 -0.703125 0.578125q-0.40625 0.203125 -0.953125 0.203125q-0.453125 0 -0.875 -0.21875q-0.421875 -0.21875 -0.75 -0.640625q-0.3125 -0.421875 -0.515625 -1.03125q-0.1875 -0.625 -0.1875 -1.421875l0 -0.5q0.140625 -0.390625 0.375 -0.703125q0.25 -0.3125 0.5625 -0.53125q0.3125 -0.21875 0.671875 -0.34375q0.375 -0.125 0.75 -0.125z" fill-rule="nonzero"/><path fill="#f3f3f3" d="m562.5894 211.43805l106.504456 0l0 53.252228l-106.504456 0z" fill-rule="evenodd"/><path stroke="#666666" stroke-width="5.2204724409448815" stroke-linejoin="round" stroke-linecap="butt" d="m562.5894 211.43805l106.504456 0l0 53.252228l-106.504456 0z" fill-rule="evenodd"/><path fill="#000000" d="m589.3015 244.29507l0 -12.015625l-1.546875 0l-0.03125 8.96875l-4.65625 -8.96875l-1.546875 0l0 12.015625l1.53125 0l0.03125 -8.984375l4.65625 8.984375l1.5625 0zm7.0360107 -6.453125l0 -3.5l-1.53125 0l0 3.5l-3.34375 0l0 1.53125l3.34375 0l0 3.71875l1.53125 0l0 -3.71875l3.359375 0l0 -1.53125l-3.359375 0zm10.676636 6.453125l0 -12.015625l-0.125 0l-4.546875 1.75l0 1.390625l3.140625 -1.203125l0 10.078125l1.53125 0zm8.254822 -0.984375q0 0.46875 0.296875 0.8125q0.3125 0.328125 0.90625 0.328125q0.578125 0 0.890625 -0.328125q0.3125 -0.328125 0.3125 -0.8125q0 -0.5 -0.3125 -0.84375q-0.296875 -0.34375 -0.890625 -0.34375q-0.609375 0 -0.90625 0.34375q-0.296875 0.34375 -0.296875 0.84375zm0 -7.234375q0 0.46875 0.296875 0.8125q0.3125 0.328125 0.90625 0.328125q0.578125 0 0.890625 -0.328125q0.3125 -0.328125 0.3125 -0.8125q0 -0.5 -0.3125 -0.84375q-0.296875 -0.34375 -0.890625 -0.34375q-0.609375 0 -0.90625 0.34375q-0.296875 0.34375 -0.296875 0.84375zm19.884521 7.234375q0 0.46875 0.296875 0.8125q0.3125 0.328125 0.90625 0.328125q0.578125 0 0.890625 -0.328125q0.3125 -0.328125 0.3125 -0.8125q0 -0.5 -0.3125 -0.84375q-0.296875 -0.34375 -0.890625 -0.34375q-0.609375 0 -0.90625 0.34375q-0.296875 0.34375 -0.296875 0.84375zm10.145386 0q0 0.46875 0.296875 0.8125q0.3125 0.328125 0.90625 0.328125q0.578125 0 0.890625 -0.328125q0.3125 -0.328125 0.3125 -0.8125q0 -0.5 -0.3125 -0.84375q-0.296875 -0.34375 -0.890625 -0.34375q-0.609375 0 -0.90625 0.34375q-0.296875 0.34375 -0.296875 0.84375z" fill-rule="nonzero"/><path fill="#000000" fill-opacity="0.0" d="m615.8381 72.09724l0 47.580643" fill-rule="evenodd"/><path stroke="#666666" stroke-width="1.4094488188976377" stroke-linejoin="round" stroke-linecap="butt" stroke-dasharray="1.4094488188976377,4.228346456692913" d="m615.8381 72.09724l0 39.123955" fill-rule="evenodd"/><path stroke="#666666" stroke-width="1.4094488188976377" stroke-linecap="butt" d="m613.5101 111.22119l2.328003 6.3962173l2.328064 -6.3962173z" fill-rule="evenodd"/><path fill="#000000" fill-opacity="0.0" d="m542.85565 510.5185l149.95276 0l0 29.480347l-149.95276 0z" fill-rule="evenodd"/><path fill="#000000" d="m577.29333 530.53723q-0.1875 0 -0.3125 -0.109375q-0.125 -0.109375 -0.125 -0.25l0 -9.984375q0 -0.171875 0.140625 -0.265625q0.140625 -0.109375 0.296875 -0.109375l2.40625 0q0.828125 0 1.5 0.203125q0.6875 0.1875 1.09375 0.71875q0.40625 0.53125 0.40625 1.578125q0 0.921875 -0.34375 1.546875q-0.34375 0.625 -0.90625 0.875q0.453125 0.171875 0.78125 0.484375q0.34375 0.296875 0.53125 0.78125q0.1875 0.484375 0.1875 1.25l0 0.265625q0 1.109375 -0.375 1.765625q-0.375 0.65625 -1.046875 0.953125q-0.65625 0.296875 -1.453125 0.296875l-2.78125 0zm0.53125 -0.890625l2.109375 0q0.96875 0 1.515625 -0.515625q0.546875 -0.53125 0.546875 -1.65625l0 -0.25q0 -1.140625 -0.546875 -1.609375q-0.546875 -0.46875 -1.515625 -0.46875l-2.109375 0l0 4.5zm0 -5.34375l1.90625 0q1.03125 0 1.515625 -0.421875q0.484375 -0.421875 0.484375 -1.46875q0 -0.6875 -0.265625 -1.046875q-0.265625 -0.375 -0.71875 -0.5q-0.453125 -0.140625 -1.078125 -0.140625l-1.84375 0l0 3.578125zm7.400696 6.234375q-0.1875 0 -0.34375 -0.09375q-0.140625 -0.09375 -0.140625 -0.28125l0 -9.984375q0 -0.15625 0.109375 -0.25q0.109375 -0.09375 0.3125 -0.109375l2.6875 0q0.859375 0 1.546875 0.3125q0.6875 0.3125 1.078125 1.0q0.390625 0.671875 0.390625 1.796875l0 0.15625q0 1.140625 -0.40625 1.828125q-0.390625 0.671875 -1.09375 0.984375q-0.6875 0.296875 -1.546875 0.296875l-2.109375 0l0 3.96875q0 0.1875 -0.15625 0.28125q-0.15625 0.09375 -0.328125 0.09375zm0.484375 -5.171875l2.109375 0q0.984375 0 1.53125 -0.546875q0.546875 -0.546875 0.546875 -1.703125l0 -0.171875q0 -1.140625 -0.546875 -1.671875q-0.546875 -0.546875 -1.53125 -0.546875l-2.109375 0l0 4.640625zm7.239502 5.171875q-0.1875 0 -0.34375 -0.078125q-0.140625 -0.09375 -0.140625 -0.28125l0 -9.984375q0 -0.171875 0.140625 -0.265625q0.140625 -0.109375 0.296875 -0.109375l5.1875 0q0.203125 0 0.28125 0.140625q0.09375 0.140625 0.09375 0.296875q0 0.1875 -0.09375 0.328125q-0.09375 0.140625 -0.28125 0.140625l-4.65625 0l0 4.015625l2.3125 0q0.171875 0 0.265625 0.140625q0.09375 0.125 0.09375 0.3125q0 0.125 -0.078125 0.265625q-0.078125 0.125 -0.28125 0.125l-2.3125 0l0 4.59375q0 0.1875 -0.15625 0.28125q-0.15625 0.078125 -0.328125 0.078125zm11.810181 0q-1.125 0 -1.734375 -0.515625q-0.59375 -0.515625 -0.59375 -1.640625l0 -7.71875q0 -0.171875 0.15625 -0.265625q0.15625 -0.09375 0.3125 -0.09375q0.1875 0 0.328125 0.09375q0.15625 0.09375 0.15625 0.265625l0 2.9375l1.90625 0q0.15625 0 0.234375 0.125q0.09375 0.109375 0.09375 0.28125q0 0.15625 -0.09375 0.28125q-0.078125 0.109375 -0.234375 0.109375l-1.90625 0l0 3.984375q0 0.71875 0.3125 1.015625q0.3125 0.28125 1.0625 0.28125l0.421875 0q0.203125 0 0.3125 0.125q0.109375 0.125 0.109375 0.296875q0 0.171875 -0.109375 0.3125q-0.109375 0.125 -0.3125 0.125l-0.421875 0zm4.4104004 0.109375q-0.734375 0 -1.375 -0.390625q-0.625 -0.390625 -1.015625 -1.03125q-0.390625 -0.640625 -0.390625 -1.375l0 -1.59375q0 -0.734375 0.375 -1.359375q0.390625 -0.625 1.015625 -1.0q0.640625 -0.375 1.390625 -0.375q0.75 0 1.390625 0.375q0.640625 0.375 1.015625 0.984375q0.390625 0.609375 0.390625 1.375l0 1.59375q0 0.71875 -0.390625 1.375q-0.375 0.640625 -1.015625 1.03125q-0.640625 0.390625 -1.390625 0.390625zm0 -0.890625q0.515625 0 0.921875 -0.265625q0.421875 -0.265625 0.671875 -0.703125q0.25 -0.453125 0.25 -0.9375l0 -1.59375q0 -0.46875 -0.25 -0.890625q-0.234375 -0.421875 -0.65625 -0.6875q-0.421875 -0.28125 -0.9375 -0.28125q-0.5 0 -0.921875 0.28125q-0.40625 0.265625 -0.65625 0.6875q-0.25 0.421875 -0.25 0.890625l0 1.59375q0 0.484375 0.25 0.9375q0.25 0.4375 0.671875 0.703125q0.421875 0.265625 0.90625 0.265625zm7.9300537 0.78125q-0.1875 0 -0.3125 -0.109375q-0.125 -0.109375 -0.125 -0.25l0 -9.984375q0 -0.171875 0.140625 -0.265625q0.140625 -0.109375 0.296875 -0.109375l2.40625 0q0.828125 0 1.5 0.203125q0.6875 0.1875 1.09375 0.71875q0.40625 0.53125 0.40625 1.578125q0 0.921875 -0.34375 1.546875q-0.34375 0.625 -0.90625 0.875q0.453125 0.171875 0.78125 0.484375q0.34375 0.296875 0.53125 0.78125q0.1875 0.484375 0.1875 1.25l0 0.265625q0 1.109375 -0.375 1.765625q-0.375 0.65625 -1.046875 0.953125q-0.65625 0.296875 -1.453125 0.296875l-2.78125 0zm0.53125 -0.890625l2.109375 0q0.96875 0 1.515625 -0.515625q0.546875 -0.53125 0.546875 -1.65625l0 -0.25q0 -1.140625 -0.546875 -1.609375q-0.546875 -0.46875 -1.515625 -0.46875l-2.109375 0l0 4.5zm0 -5.34375l1.90625 0q1.03125 0 1.515625 -0.421875q0.484375 -0.421875 0.484375 -1.46875q0 -0.6875 -0.265625 -1.046875q-0.265625 -0.375 -0.71875 -0.5q-0.453125 -0.140625 -1.078125 -0.140625l-1.84375 0l0 3.578125zm7.400757 6.234375q-0.1875 0 -0.34375 -0.09375q-0.140625 -0.09375 -0.140625 -0.28125l0 -9.984375q0 -0.15625 0.109375 -0.25q0.109375 -0.09375 0.3125 -0.109375l2.6875 0q0.859375 0 1.546875 0.3125q0.6875 0.3125 1.078125 1.0q0.390625 0.671875 0.390625 1.796875l0 0.15625q0 1.140625 -0.40625 1.828125q-0.390625 0.671875 -1.09375 0.984375q-0.6875 0.296875 -1.546875 0.296875l-2.109375 0l0 3.96875q0 0.1875 -0.15625 0.28125q-0.15625 0.09375 -0.328125 0.09375zm0.484375 -5.171875l2.109375 0q0.984375 0 1.53125 -0.546875q0.546875 -0.546875 0.546875 -1.703125l0 -0.171875q0 -1.140625 -0.546875 -1.671875q-0.546875 -0.546875 -1.53125 -0.546875l-2.109375 0l0 4.640625zm7.239502 5.171875q-0.1875 0 -0.34375 -0.078125q-0.140625 -0.09375 -0.140625 -0.28125l0 -9.984375q0 -0.171875 0.140625 -0.265625q0.140625 -0.109375 0.296875 -0.109375l5.1875 0q0.203125 0 0.28125 0.140625q0.09375 0.140625 0.09375 0.296875q0 0.1875 -0.09375 0.328125q-0.09375 0.140625 -0.28125 0.140625l-4.65625 0l0 4.015625l2.3125 0q0.171875 0 0.265625 0.140625q0.09375 0.125 0.09375 0.3125q0 0.125 -0.078125 0.265625q-0.078125 0.125 -0.28125 0.125l-2.3125 0l0 4.59375q0 0.1875 -0.15625 0.28125q-0.15625 0.078125 -0.328125 0.078125zm12.12262 0.109375q-0.96875 0 -1.59375 -0.359375q-0.625 -0.375 -0.9375 -1.0q-0.3125 -0.640625 -0.3125 -1.4375l0 -1.5625q0 -0.78125 0.296875 -1.40625q0.3125 -0.625 0.9375 -0.984375q0.640625 -0.375 1.609375 -0.375q0.625 0 1.078125 0.15625q0.46875 0.140625 0.71875 0.375q0.25 0.21875 0.25 0.421875q0 0.078125 -0.046875 0.1875q-0.046875 0.109375 -0.140625 0.203125q-0.09375 0.078125 -0.21875 0.078125q-0.125 0 -0.296875 -0.140625q-0.171875 -0.140625 -0.46875 -0.265625q-0.28125 -0.140625 -0.828125 -0.140625q-0.953125 0 -1.453125 0.515625q-0.484375 0.5 -0.484375 1.375l0 1.5625q0 0.90625 0.484375 1.40625q0.5 0.5 1.46875 0.5q0.5625 0 0.859375 -0.140625q0.3125 -0.140625 0.46875 -0.265625q0.171875 -0.140625 0.328125 -0.140625q0.125 0 0.21875 0.078125q0.109375 0.0625 0.15625 0.171875q0.046875 0.09375 0.046875 0.21875q0 0.1875 -0.265625 0.421875q-0.265625 0.21875 -0.75 0.390625q-0.46875 0.15625 -1.125 0.15625zm4.975891 0q-0.828125 0 -1.421875 -0.46875q-0.578125 -0.484375 -0.578125 -1.46875q0 -0.8125 0.421875 -1.234375q0.4375 -0.4375 1.203125 -0.609375q0.78125 -0.171875 1.796875 -0.171875l0.734375 0l0 -0.34375q0 -0.46875 -0.171875 -0.921875q-0.15625 -0.46875 -0.53125 -0.765625q-0.375 -0.3125 -1.015625 -0.3125q-0.484375 0 -0.796875 0.109375q-0.3125 0.09375 -0.484375 0.203125q-0.171875 0.109375 -0.296875 0.109375q-0.171875 0 -0.28125 -0.171875q-0.09375 -0.171875 -0.09375 -0.328125q0 -0.203125 0.296875 -0.359375q0.296875 -0.171875 0.765625 -0.28125q0.46875 -0.109375 0.921875 -0.109375q0.984375 0 1.5625 0.40625q0.578125 0.390625 0.828125 1.046875q0.25 0.640625 0.25 1.375l0 3.8125q0 0.15625 -0.125 0.265625q-0.125 0.109375 -0.34375 0.109375q-0.171875 0 -0.3125 -0.109375q-0.125 -0.109375 -0.125 -0.265625l0 -0.65625q-0.375 0.4375 -0.921875 0.796875q-0.546875 0.34375 -1.28125 0.34375zm0.234375 -0.8125q0.484375 0 0.921875 -0.25q0.4375 -0.25 0.71875 -0.609375q0.28125 -0.359375 0.28125 -0.6875l0 -0.9375l-0.609375 0q-0.65625 0 -1.25 0.09375q-0.59375 0.078125 -0.96875 0.34375q-0.375 0.265625 -0.375 0.828125q0 0.625 0.375 0.921875q0.375 0.296875 0.90625 0.296875zm5.2476196 0.703125q-0.203125 0 -0.34375 -0.109375q-0.125 -0.125 -0.125 -0.265625l0 -10.453125q0 -0.171875 0.125 -0.265625q0.140625 -0.09375 0.34375 -0.09375q0.203125 0 0.34375 0.09375q0.140625 0.09375 0.140625 0.265625l0 10.453125q0 0.140625 -0.140625 0.265625q-0.140625 0.109375 -0.34375 0.109375zm3.048523 0q-0.203125 0 -0.34375 -0.109375q-0.125 -0.125 -0.125 -0.265625l0 -10.453125q0 -0.171875 0.125 -0.265625q0.140625 -0.09375 0.34375 -0.09375q0.203125 0 0.34375 0.09375q0.140625 0.09375 0.140625 0.265625l0 10.453125q0 0.140625 -0.140625 0.265625q-0.140625 0.109375 -0.34375 0.109375z" fill-rule="nonzero"/></g></svg>