<svg version="1.1" viewBox="0.0 0.0 960.0 540.0" fill="none" stroke="none" stroke-linecap="square" stroke-miterlimit="10" xmlns:xlink="http://www.w3.org/1999/xlink" xmlns="http://www.w3.org/2000/svg"><clipPath id="g3ad064c0d0a_0_191.0"><path d="m0 0l960.0 0l0 540.0l-960.0 0l0 -540.0z" clip-rule="nonzero"/></clipPath><g clip-path="url(#g3ad064c0d0a_0_191.0)"><path fill="#ffffff" d="m0 0l960.0 0l0 540.0l-960.0 0z" fill-rule="evenodd"/><path fill="#000000" fill-opacity="0.0" d="m38.819454 90.0018l0 0c0 -49.706623 40.295177 -90.0018 90.0018 -90.0018l702.35864 0c23.869934 0 46.762268 9.482306 63.64087 26.360918c16.878601 16.87861 26.3609 39.77092 26.3609 63.640884l0 359.9964c0 49.706635 -40.295166 90.0018 -90.00177 90.0018l-702.35864 0c-49.706627 0 -90.0018 -40.295166 -90.0018 -90.0018z" fill-rule="evenodd"/><path fill="#000000" d="m450.55408 60.38043q-1.71875 0 -2.984375 -0.59375q-1.265625 -0.609375 -1.96875 -1.6875q-0.703125 -1.078125 -0.703125 -2.453125q0 -0.546875 0.234375 -0.734375q0.234375 -0.1875 0.65625 -0.1875q0.328125 0 0.609375 0.171875q0.28125 0.15625 0.28125 0.53125q0.03125 1.0 0.484375 1.75q0.453125 0.75 1.3125 1.15625q0.875 0.40625 2.03125 0.40625q1.796875 0 2.8125 -1.0q1.015625 -1.015625 1.015625 -3.125l0 -12.4375l-3.796875 0q-0.296875 0 -0.484375 -0.25q-0.171875 -0.265625 -0.171875 -0.609375q0 -0.265625 0.140625 -0.515625q0.15625 -0.265625 0.515625 -0.265625l4.765625 0q0.296875 0 0.546875 0.171875q0.25 0.171875 0.25 0.5l0 13.40625q0 2.109375 -0.734375 3.375q-0.734375 1.265625 -2.0 1.828125q-1.25 0.5625 -2.8125 0.5625zm14.006989 0.03125q-1.421875 0 -2.578125 -0.703125q-1.15625 -0.703125 -1.859375 -1.875q-0.703125 -1.171875 -0.703125 -2.484375l0 -7.1875q0 -0.25 0.265625 -0.453125q0.265625 -0.21875 0.625 -0.21875q0.34375 0 0.59375 0.21875q0.265625 0.203125 0.265625 0.453125l0 7.1875q0 0.890625 0.453125 1.671875q0.46875 0.78125 1.21875 1.28125q0.75 0.5 1.703125 0.5q0.96875 0 1.71875 -0.484375q0.75 -0.484375 1.1875 -1.28125q0.453125 -0.796875 0.453125 -1.6875l0 -7.21875q0 -0.265625 0.265625 -0.453125q0.28125 -0.1875 0.625 -0.1875q0.40625 0 0.625 0.1875q0.234375 0.1875 0.234375 0.453125l0 7.21875q0 1.375 -0.6875 2.515625q-0.6875 1.140625 -1.859375 1.84375q-1.171875 0.703125 -2.546875 0.703125zm9.189087 -0.1875q-0.34375 0 -0.609375 -0.21875q-0.25 -0.21875 -0.25 -0.484375l0 -11.390625q0 -0.296875 0.25 -0.46875q0.265625 -0.171875 0.609375 -0.171875q0.34375 0 0.578125 0.171875q0.25 0.171875 0.25 0.46875l0 1.234375q0.46875 -0.78125 1.359375 -1.40625q0.90625 -0.640625 2.234375 -0.640625q1.34375 0 2.34375 0.765625q1.0 0.75 1.484375 1.9375q0.6875 -1.375 1.8125 -2.03125q1.125 -0.671875 2.28125 -0.671875q1.15625 0 2.1875 0.59375q1.046875 0.59375 1.6875 1.71875q0.640625 1.109375 0.640625 2.734375l0 7.15625q0 0.265625 -0.25 0.484375q-0.25 0.21875 -0.640625 0.21875q-0.34375 0 -0.609375 -0.21875q-0.25 -0.21875 -0.25 -0.484375l0 -7.15625q0 -1.140625 -0.453125 -1.890625q-0.453125 -0.75 -1.15625 -1.140625q-0.703125 -0.390625 -1.453125 -0.390625q-0.78125 0 -1.5 0.40625q-0.71875 0.390625 -1.1875 1.140625q-0.46875 0.734375 -0.46875 1.765625l0 7.296875q0 0.34375 -0.28125 0.515625q-0.28125 0.15625 -0.609375 0.15625q-0.296875 0 -0.578125 -0.15625q-0.28125 -0.171875 -0.28125 -0.515625l0 -7.28125q0 -0.96875 -0.421875 -1.71875q-0.421875 -0.75 -1.125 -1.171875q-0.6875 -0.4375 -1.53125 -0.4375q-0.78125 0 -1.515625 0.40625q-0.71875 0.390625 -1.1875 1.15625q-0.46875 0.75 -0.46875 1.859375l0 7.15625q0 0.265625 -0.265625 0.484375q-0.25 0.21875 -0.625 0.21875zm21.015564 6.250004q-0.359375 0 -0.609375 -0.21875q-0.25 -0.21875 -0.25 -0.484375l0 -17.640629q0 -0.296875 0.25 -0.46875q0.25 -0.171875 0.609375 -0.171875q0.34375 0 0.578125 0.171875q0.25 0.171875 0.25 0.46875l0 1.234375q0.46875 -0.78125 1.375 -1.40625q0.921875 -0.640625 2.234375 -0.640625q1.34375 0 2.4375 0.6875q1.09375 0.6875 1.75 1.828125q0.671875 1.125 0.671875 2.53125l0 2.9375q0 1.3125 -0.671875 2.5q-0.65625 1.1875 -1.734375 1.90625q-1.078125 0.703125 -2.375 0.703125q-1.234375 0 -2.203125 -0.609375q-0.96875 -0.625 -1.421875 -1.46875l0 7.437504q0 0.265625 -0.265625 0.484375q-0.25 0.21875 -0.625 0.21875zm4.203125 -7.671879q0.890625 0 1.640625 -0.5q0.75 -0.5 1.21875 -1.3125q0.46875 -0.8125 0.46875 -1.6875l0 -2.9375q0 -0.875 -0.453125 -1.65625q-0.453125 -0.78125 -1.21875 -1.265625q-0.765625 -0.5 -1.71875 -0.5q-0.796875 0 -1.546875 0.421875q-0.734375 0.40625 -1.21875 1.171875q-0.484375 0.75 -0.484375 1.828125l0 3.765625q0 0.40625 0.421875 1.046875q0.4375 0.625 1.1875 1.125q0.75 0.5 1.703125 0.5zm11.41275 1.609375q-1.265625 0 -2.203125 -0.3125q-0.9375 -0.328125 -1.484375 -0.765625q-0.53125 -0.453125 -0.53125 -0.859375q0 -0.1875 0.078125 -0.359375q0.078125 -0.1875 0.21875 -0.3125q0.15625 -0.140625 0.3125 -0.140625q0.296875 0 0.65625 0.3125q0.375 0.3125 1.03125 0.640625q0.65625 0.3125 1.875 0.3125q1.53125 0 2.140625 -0.578125q0.625 -0.578125 0.625 -1.328125q0 -0.890625 -0.46875 -1.390625q-0.46875 -0.5 -1.234375 -0.78125q-0.765625 -0.28125 -1.625 -0.5q-0.84375 -0.234375 -1.609375 -0.59375q-0.765625 -0.375 -1.234375 -1.015625q-0.46875 -0.65625 -0.46875 -1.75q0 -0.859375 0.421875 -1.703125q0.4375 -0.859375 1.359375 -1.40625q0.9375 -0.5625 2.46875 -0.5625q0.890625 0 1.71875 0.1875q0.84375 0.1875 1.359375 0.5q0.53125 0.3125 0.53125 0.640625q0 0.125 -0.09375 0.34375q-0.09375 0.21875 -0.265625 0.390625q-0.15625 0.171875 -0.375 0.171875q-0.203125 0 -0.578125 -0.203125q-0.359375 -0.203125 -0.921875 -0.375q-0.5625 -0.171875 -1.34375 -0.171875q-0.96875 0 -1.5625 0.359375q-0.59375 0.34375 -0.875 0.8125q-0.265625 0.46875 -0.265625 0.921875q0 0.78125 0.484375 1.1875q0.484375 0.40625 1.25 0.671875q0.78125 0.25 1.625 0.484375q0.84375 0.21875 1.609375 0.625q0.78125 0.40625 1.25 1.140625q0.46875 0.71875 0.46875 1.9375q0 1.578125 -1.140625 2.53125q-1.125 0.9375 -3.203125 0.9375z" fill-rule="nonzero"/><path fill="#000000" fill-opacity="0.0" d="m355.14395 155.68317l37.970245 0l0 262.29922l-62.127747 0" fill-rule="evenodd"/><path stroke="#666666" stroke-width="1.6404199475065617" stroke-linejoin="round" stroke-linecap="butt" stroke-dasharray="6.561679790026247,4.921259842519685" d="m355.14395 155.68317l37.970215 0l0 262.2992l-52.285187 0" fill-rule="evenodd"/><path fill="#666666" stroke="#666666" stroke-width="1.6404199475065617" stroke-linecap="butt" d="m340.82898 415.27283l-7.4443665 2.7095337l7.4443665 2.7095337z" fill-rule="evenodd"/><path fill="#000000" fill-opacity="0.0" d="m268.9702 448.97675l0 50.698578" fill-rule="evenodd"/><path stroke="#666666" stroke-width="1.5538057742782152" stroke-linejoin="round" stroke-linecap="butt" stroke-dasharray="1.5538057742782152,4.661417322834645" d="m268.9702 448.97675l0 41.375732" fill-rule="evenodd"/><path stroke="#666666" stroke-width="1.5538057742782152" stroke-linecap="butt" d="m266.40375 490.35248l2.5664673 7.0513306l2.5664978 -7.0513306z" fill-rule="evenodd"/><path fill="#f3f3f3" d="m206.94943 386.9799l124.041565 0l0 61.996857l-124.041565 0z" fill-rule="evenodd"/><path stroke="#666666" stroke-width="6.078740157480315" stroke-linejoin="round" stroke-linecap="butt" d="m206.94943 386.9799l124.041565 0l0 61.996857l-124.041565 0z" fill-rule="evenodd"/><path fill="#000000" d="m238.05725 424.87878l0 -14.0l-1.796875 0l-0.03125 10.4375l-5.421875 -10.4375l-1.8125 0l0 14.0l1.796875 0l0.03125 -10.453125l5.421875 10.453125l1.8125 0zm8.205048 -7.5l0 -4.09375l-1.78125 0l0 4.09375l-3.90625 0l0 1.765625l3.90625 0l0 4.328125l1.78125 0l0 -4.328125l3.90625 0l0 -1.765625l-3.90625 0zm15.517548 -5.5l0 -1.0l-9.453125 0l0 1.5625l7.578125 0l-5.78125 12.4375l1.859375 0l5.796875 -13.0zm6.5331726 11.84375q0 0.5625 0.34375 0.953125q0.359375 0.390625 1.046875 0.390625q0.6875 0 1.046875 -0.390625q0.375 -0.390625 0.375 -0.953125q0 -0.578125 -0.359375 -0.96875q-0.359375 -0.40625 -1.0625 -0.40625q-0.703125 0 -1.046875 0.40625q-0.34375 0.40625 -0.34375 0.96875zm0 -8.421875q0 0.5625 0.34375 0.953125q0.359375 0.390625 1.046875 0.390625q0.6875 0 1.046875 -0.390625q0.375 -0.390625 0.375 -0.953125q0 -0.578125 -0.359375 -0.96875q-0.359375 -0.40625 -1.0625 -0.40625q-0.703125 0 -1.046875 0.40625q-0.34375 0.40625 -0.34375 0.96875zm23.14447 8.421875q0 0.5625 0.34375 0.953125q0.359375 0.390625 1.046875 0.390625q0.6875 0 1.046875 -0.390625q0.375 -0.390625 0.375 -0.953125q0 -0.578125 -0.359375 -0.96875q-0.359375 -0.40625 -1.0625 -0.40625q-0.703125 0 -1.046875 0.40625q-0.34375 0.40625 -0.34375 0.96875zm11.814423 0q0 0.5625 0.34375 0.953125q0.359375 0.390625 1.046875 0.390625q0.6875 0 1.046875 -0.390625q0.375 -0.390625 0.375 -0.953125q0 -0.578125 -0.359375 -0.96875q-0.359375 -0.40625 -1.0625 -0.40625q-0.703125 0 -1.046875 0.40625q-0.34375 0.40625 -0.34375 0.96875z" fill-rule="nonzero"/><path fill="#f3f3f3" d="m182.79749 155.68317l86.17322 -64.62992l86.17325 64.62992l-86.17325 64.62993z" fill-rule="evenodd"/><path stroke="#a9a9a9" stroke-width="1.6404199475065617" stroke-linejoin="round" stroke-linecap="butt" d="m182.79749 155.68317l86.17322 -64.62992l86.17325 64.62992l-86.17325 64.62993z" fill-rule="evenodd"/><path fill="#000000" d="m243.96495 150.58365l0 -14.0l-1.796875 0l-0.03125 10.4375l-5.421875 -10.4375l-1.8125 0l0 14.0l1.796875 0l0.03125 -10.453125l5.421875 10.453125l1.8125 0zm6.6269226 -1.15625q0 0.5625 0.34375 0.953125q0.359375 0.390625 1.046875 0.390625q0.6875 0 1.046875 -0.390625q0.375 -0.390625 0.375 -0.953125q0 -0.578125 -0.359375 -0.96875q-0.359375 -0.40625 -1.0625 -0.40625q-0.703125 0 -1.046875 0.40625q-0.34375 0.40625 -0.34375 0.96875zm0 -8.421875q0 0.5625 0.34375 0.953125q0.359375 0.390625 1.046875 0.390625q0.6875 0 1.046875 -0.390625q0.375 -0.390625 0.375 -0.953125q0 -0.578125 -0.359375 -0.96875q-0.359375 -0.40625 -1.0625 -0.40625q-0.703125 0 -1.046875 0.40625q-0.34375 0.40625 -0.34375 0.96875zm7.9081573 4.296875l0 0.203125q0 1.109375 0.28125 2.078125q0.296875 0.96875 0.84375 1.671875q0.515625 0.71875 1.28125 1.125q0.78125 0.390625 1.734375 0.390625q0.5625 0 1.046875 -0.125q0.5 -0.109375 0.90625 -0.328125q0.25 -0.140625 0.46875 -0.328125q0.234375 -0.203125 0.4375 -0.4375l0 0.890625q0 0.671875 -0.203125 1.1875q-0.1875 0.53125 -0.53125 0.875q-0.375 0.359375 -0.890625 0.53125q-0.5 0.1875 -1.140625 0.1875q-0.34375 0 -0.703125 -0.078125q-0.359375 -0.0625 -0.71875 -0.21875q-0.34375 -0.171875 -0.703125 -0.453125q-0.34375 -0.265625 -0.671875 -0.65625l-0.921875 1.0625q0.359375 0.515625 0.84375 0.859375q0.5 0.34375 1.046875 0.546875q0.53125 0.203125 1.046875 0.296875q0.515625 0.09375 0.921875 0.09375q0.984375 0 1.78125 -0.296875q0.8125 -0.28125 1.40625 -0.84375q0.578125 -0.546875 0.890625 -1.34375q0.328125 -0.796875 0.328125 -1.828125l0 -10.1875l-1.625 0l-0.078125 1.140625q-0.1875 -0.234375 -0.390625 -0.421875q-0.203125 -0.1875 -0.4375 -0.34375q-0.421875 -0.28125 -0.953125 -0.421875q-0.515625 -0.140625 -1.140625 -0.140625q-0.96875 0 -1.75 0.390625q-0.765625 0.390625 -1.296875 1.09375q-0.546875 0.703125 -0.828125 1.6875q-0.28125 0.96875 -0.28125 2.140625zm1.78125 0.203125l0 -0.203125q0 -0.765625 0.15625 -1.453125q0.15625 -0.6875 0.5 -1.21875q0.34375 -0.515625 0.875 -0.8125q0.53125 -0.3125 1.28125 -0.3125q0.453125 0 0.8125 0.109375q0.359375 0.109375 0.65625 0.296875q0.296875 0.203125 0.53125 0.46875q0.234375 0.265625 0.40625 0.59375l0 4.78125q-0.171875 0.328125 -0.40625 0.609375q-0.234375 0.28125 -0.515625 0.484375q-0.296875 0.203125 -0.671875 0.3125q-0.359375 0.109375 -0.828125 0.109375q-0.734375 0 -1.265625 -0.296875q-0.53125 -0.3125 -0.875 -0.828125q-0.34375 -0.515625 -0.5 -1.203125q-0.15625 -0.6875 -0.15625 -1.4375zm9.861298 -0.21875l0 0.21875q0 1.125 0.328125 2.09375q0.328125 0.953125 0.9375 1.65625q0.609375 0.71875 1.484375 1.125q0.890625 0.390625 1.984375 0.390625q1.109375 0 1.96875 -0.390625q0.875 -0.40625 1.5 -1.125q0.609375 -0.703125 0.921875 -1.65625q0.328125 -0.96875 0.328125 -2.09375l0 -0.21875q0 -1.125 -0.328125 -2.09375q-0.3125 -0.96875 -0.921875 -1.671875q-0.625 -0.71875 -1.5 -1.125q-0.875 -0.40625 -1.984375 -0.40625q-1.09375 0 -1.96875 0.40625q-0.875 0.40625 -1.484375 1.125q-0.609375 0.703125 -0.9375 1.671875q-0.328125 0.96875 -0.328125 2.09375zm1.78125 0.21875l0 -0.21875q0 -0.765625 0.171875 -1.453125q0.1875 -0.703125 0.5625 -1.234375q0.375 -0.515625 0.921875 -0.828125q0.546875 -0.3125 1.28125 -0.3125q0.75 0 1.296875 0.3125q0.546875 0.3125 0.921875 0.828125q0.375 0.53125 0.5625 1.234375q0.1875 0.6875 0.1875 1.453125l0 0.21875q0 0.765625 -0.1875 1.46875q-0.1875 0.6875 -0.546875 1.21875q-0.375 0.53125 -0.9375 0.84375q-0.546875 0.296875 -1.28125 0.296875q-0.734375 0 -1.296875 -0.296875q-0.546875 -0.3125 -0.921875 -0.84375q-0.375 -0.53125 -0.5625 -1.21875q-0.171875 -0.703125 -0.171875 -1.46875zm14.751923 -7.84375l-1.796875 0l0 2.515625l-2.734375 0l0 1.375l2.734375 0l0 5.65625q0 0.96875 0.25 1.640625q0.265625 0.671875 0.703125 1.09375q0.4375 0.4375 1.03125 0.640625q0.609375 0.1875 1.3125 0.1875q0.40625 0 0.8125 -0.046875q0.421875 -0.03125 0.796875 -0.109375q0.375 -0.0625 0.6875 -0.15625q0.328125 -0.109375 0.546875 -0.234375l-0.25 -1.265625q-0.15625 0.03125 -0.421875 0.09375q-0.25 0.046875 -0.53125 0.09375q-0.296875 0.046875 -0.609375 0.09375q-0.3125 0.03125 -0.59375 0.03125q-0.390625 0 -0.75 -0.09375q-0.34375 -0.109375 -0.625 -0.34375q-0.265625 -0.234375 -0.421875 -0.625q-0.140625 -0.390625 -0.140625 -1.0l0 -5.65625l3.953125 0l0 -1.375l-3.953125 0l0 -2.515625zm7.0956726 7.625l0 0.21875q0 1.125 0.328125 2.09375q0.328125 0.953125 0.9375 1.65625q0.609375 0.71875 1.484375 1.125q0.890625 0.390625 1.984375 0.390625q1.109375 0 1.96875 -0.390625q0.875 -0.40625 1.5 -1.125q0.609375 -0.703125 0.921875 -1.65625q0.328125 -0.96875 0.328125 -2.09375l0 -0.21875q0 -1.125 -0.328125 -2.09375q-0.3125 -0.96875 -0.921875 -1.671875q-0.625 -0.71875 -1.5 -1.125q-0.875 -0.40625 -1.984375 -0.40625q-1.09375 0 -1.96875 0.40625q-0.875 0.40625 -1.484375 1.125q-0.609375 0.703125 -0.9375 1.671875q-0.328125 0.96875 -0.328125 2.09375zm1.78125 0.21875l0 -0.21875q0 -0.765625 0.171875 -1.453125q0.1875 -0.703125 0.5625 -1.234375q0.375 -0.515625 0.921875 -0.828125q0.546875 -0.3125 1.28125 -0.3125q0.75 0 1.296875 0.3125q0.546875 0.3125 0.921875 0.828125q0.375 0.53125 0.5625 1.234375q0.1875 0.6875 0.1875 1.453125l0 0.21875q0 0.765625 -0.1875 1.46875q-0.1875 0.6875 -0.546875 1.21875q-0.375 0.53125 -0.9375 0.84375q-0.546875 0.296875 -1.28125 0.296875q-0.734375 0 -1.296875 -0.296875q-0.546875 -0.3125 -0.921875 -0.84375q-0.375 -0.53125 -0.5625 -1.21875q-0.171875 -0.703125 -0.171875 -1.46875z" fill-rule="nonzero"/><path fill="#000000" d="m252.17 167.08365l0 -4.09375l-1.78125 0l0 4.09375l-3.90625 0l0 1.765625l3.90625 0l0 4.328125l1.78125 0l0 -4.328125l3.9062347 0l0 -1.765625l-3.9062347 0zm15.439407 2.140625l0 -3.265625q0 -1.34375 -0.3125 -2.375q-0.296875 -1.03125 -0.875 -1.75q-0.578125 -0.703125 -1.421875 -1.078125q-0.84375 -0.375 -1.921875 -0.375q-1.0625 0 -1.90625 0.375q-0.84375 0.375 -1.421875 1.078125q-0.578125 0.71875 -0.890625 1.75q-0.3125 1.03125 -0.3125 2.375l0 3.265625q0 1.34375 0.3125 2.375q0.3125 1.03125 0.890625 1.734375q0.59375 0.71875 1.4375 1.078125q0.84375 0.359375 1.90625 0.359375q1.078125 0 1.90625 -0.359375q0.84375 -0.359375 1.421875 -1.078125q0.578125 -0.703125 0.875 -1.734375q0.3125 -1.03125 0.3125 -2.375zm-7.265625 -0.34375q0 -0.25 0 -0.484375q0 -0.25 0 -0.5l0 -2.34375q0 -0.96875 0.1875 -1.71875q0.203125 -0.75 0.609375 -1.21875q0.328125 -0.375 0.8125 -0.5625q0.484375 -0.203125 1.125 -0.203125q0.625 0 1.09375 0.1875q0.484375 0.171875 0.8125 0.546875q0.328125 0.34375 0.53125 0.890625q0.203125 0.53125 0.265625 1.21875l-5.4375 4.1875zm5.484375 0.71875q0 1.03125 -0.21875 1.796875q-0.203125 0.75 -0.640625 1.21875q-0.328125 0.359375 -0.796875 0.546875q-0.46875 0.171875 -1.078125 0.171875q-0.578125 0 -1.046875 -0.171875q-0.453125 -0.171875 -0.78125 -0.484375q-0.34375 -0.359375 -0.578125 -0.890625q-0.21875 -0.53125 -0.296875 -1.234375l5.4375 -4.15625q0 0.265625 0 0.671875q0 0.40625 0 0.5625l0 1.96875zm9.111298 -1.5625l-2.75 -3.859375l-2.0625 0l3.875 5.140625l-3.96875 5.265625l2.078125 0l2.875 -3.953125l2.859375 3.953125l2.0625 0l-3.984375 -5.265625l3.875 -5.140625l-2.078125 0l-2.78125 3.859375zm14.080048 -7.453125l-0.15625 0q-1.5 0 -2.6875 0.421875q-1.1875 0.40625 -2.0 1.234375q-1.203125 1.203125 -1.625 2.90625q-0.40625 1.6875 -0.40625 3.421875l0 0.84375q0 1.015625 0.296875 2.03125q0.3125 1.015625 0.9375 1.78125q0.5625 0.6875 1.375 1.125q0.8125 0.421875 1.890625 0.421875q1.078125 0 1.890625 -0.375q0.8125 -0.375 1.359375 -1.03125q0.546875 -0.640625 0.8125 -1.5q0.28125 -0.859375 0.28125 -1.84375q0 -0.859375 -0.234375 -1.6875q-0.234375 -0.828125 -0.71875 -1.484375q-0.5 -0.640625 -1.265625 -1.046875q-0.75 -0.40625 -1.796875 -0.40625q-0.484375 0 -0.921875 0.125q-0.4375 0.109375 -0.8125 0.28125q-0.375 0.203125 -0.703125 0.453125q-0.328125 0.25 -0.578125 0.546875q0.0625 -0.921875 0.375 -1.796875q0.3125 -0.875 0.90625 -1.5q0.578125 -0.609375 1.46875 -0.96875q0.890625 -0.359375 2.15625 -0.359375l0.15625 0l0 -1.59375zm-2.328125 6.296875q0.640625 0 1.109375 0.28125q0.484375 0.265625 0.8125 0.71875q0.3125 0.4375 0.46875 1.03125q0.15625 0.578125 0.15625 1.1875q0 0.703125 -0.171875 1.296875q-0.171875 0.578125 -0.5 1.0q-0.328125 0.421875 -0.8125 0.671875q-0.484375 0.234375 -1.109375 0.234375q-0.53125 0 -1.03125 -0.25q-0.484375 -0.25 -0.859375 -0.75q-0.375 -0.484375 -0.59375 -1.203125q-0.21875 -0.71875 -0.21875 -1.640625l0 -0.59375q0.15625 -0.4375 0.4375 -0.796875q0.28125 -0.375 0.640625 -0.640625q0.375 -0.25 0.796875 -0.390625q0.421875 -0.15625 0.875 -0.15625z" fill-rule="nonzero"/><path fill="#000000" fill-opacity="0.0" d="m268.97125 334.64407l0 52.326294" fill-rule="evenodd"/><path stroke="#666666" stroke-width="1.6404199475065617" stroke-linejoin="round" stroke-linecap="butt" d="m268.97125 334.64404l0 42.483795" fill-rule="evenodd"/><path fill="#666666" stroke="#666666" stroke-width="1.6404199475065617" stroke-linecap="butt" d="m266.26172 377.12784l2.7095337 7.4443665l2.7095337 -7.4443665z" fill-rule="evenodd"/><path fill="#f3f3f3" d="m207.11346 265.17886l108.6232 0l0 61.996857l-108.6232 0z" fill-rule="evenodd"/><path stroke="#a9a9a9" stroke-width="1.6404199475065617" stroke-linejoin="round" stroke-linecap="butt" d="m207.11346 265.17886l108.6232 0l0 61.996857l-108.6232 0z" fill-rule="evenodd"/><path fill="#f3f3f3" d="m214.65965 272.64722l108.623215 0l0 61.996857l-108.623215 0z" fill-rule="evenodd"/><path stroke="#a9a9a9" stroke-width="1.6404199475065617" stroke-linejoin="round" stroke-linecap="butt" d="m214.65965 272.64722l108.623215 0l0 61.996857l-108.623215 0z" fill-rule="evenodd"/><path fill="#f3f3f3" d="m222.20584 280.11554l108.6232 0l0 61.996857l-108.6232 0z" fill-rule="evenodd"/><path stroke="#a9a9a9" stroke-width="1.6404199475065617" stroke-linejoin="round" stroke-linecap="butt" d="m222.20584 280.11554l108.6232 0l0 61.996857l-108.6232 0z" fill-rule="evenodd"/><path fill="#000000" d="m263.56143 316.85822q0 0.5625 0.34375 0.953125q0.359375 0.390625 1.046875 0.390625q0.6875 0 1.046875 -0.390625q0.375 -0.390625 0.375 -0.953125q0 -0.578125 -0.359375 -0.96875q-0.359375 -0.40625 -1.0625 -0.40625q-0.703125 0 -1.046875 0.40625q-0.34375 0.40625 -0.34375 0.96875zm11.814423 0q0 0.5625 0.34375 0.953125q0.359375 0.390625 1.046875 0.390625q0.6875 0 1.046875 -0.390625q0.375 -0.390625 0.375 -0.953125q0 -0.578125 -0.359375 -0.96875q-0.359375 -0.40625 -1.0625 -0.40625q-0.703125 0 -1.046875 0.40625q-0.34375 0.40625 -0.34375 0.96875zm11.814423 0q0 0.5625 0.34375 0.953125q0.359375 0.390625 1.046875 0.390625q0.6875 0 1.046875 -0.390625q0.375 -0.390625 0.375 -0.953125q0 -0.578125 -0.359375 -0.96875q-0.359375 -0.40625 -1.0625 -0.40625q-0.703125 0 -1.046875 0.40625q-0.34375 0.40625 -0.34375 0.96875z" fill-rule="nonzero"/><path fill="#000000" fill-opacity="0.0" d="m268.9707 220.3131l0 52.32631" fill-rule="evenodd"/><path stroke="#666666" stroke-width="1.6404199475065617" stroke-linejoin="round" stroke-linecap="butt" stroke-dasharray="6.561679790026247,4.921259842519685" d="m268.97073 220.3131l0 42.48378" fill-rule="evenodd"/><path fill="#666666" stroke="#666666" stroke-width="1.6404199475065617" stroke-linecap="butt" d="m266.26117 262.79688l2.7095642 7.444397l2.7095337 -7.444397z" fill-rule="evenodd"/><path fill="#000000" fill-opacity="0.0" d="m268.9707 40.354668l0 50.698578" fill-rule="evenodd"/><path stroke="#666666" stroke-width="1.5538057742782152" stroke-linejoin="round" stroke-linecap="butt" stroke-dasharray="1.5538057742782152,4.661417322834645" d="m268.97073 40.354668l0 41.375748" fill-rule="evenodd"/><path stroke="#666666" stroke-width="1.5538057742782152" stroke-linecap="butt" d="m266.40424 81.730415l2.5664978 7.051323l2.5664673 -7.051323z" fill-rule="evenodd"/><path fill="#000000" fill-opacity="0.0" d="m739.2272 155.68317l38.045654 0l0 263.3071l-62.203125 0" fill-rule="evenodd"/><path stroke="#666666" stroke-width="1.6404199475065617" stroke-linejoin="round" stroke-linecap="butt" stroke-dasharray="6.561679790026247,4.921259842519685" d="m739.2272 155.68317l38.045654 0l0 263.30707l-52.360596 0" fill-rule="evenodd"/><path fill="#666666" stroke="#666666" stroke-width="1.6404199475065617" stroke-linecap="butt" d="m724.91223 416.2807l-7.444397 2.7095337l7.444397 2.7095337z" fill-rule="evenodd"/><path fill="#000000" fill-opacity="0.0" d="m653.0575 449.9821l0 49.693237" fill-rule="evenodd"/><path stroke="#666666" stroke-width="1.5538057742782152" stroke-linejoin="round" stroke-linecap="butt" stroke-dasharray="1.5538057742782152,4.661417322834645" d="m653.05743 449.9821l0 40.37039" fill-rule="evenodd"/><path stroke="#666666" stroke-width="1.5538057742782152" stroke-linecap="butt" d="m650.49097 490.35248l2.5664673 7.0513306l2.5664673 -7.0513306z" fill-rule="evenodd"/><path fill="#f3f3f3" d="m591.0367 387.98523l124.041565 0l0 61.996857l-124.041565 0z" fill-rule="evenodd"/><path stroke="#666666" stroke-width="6.078740157480315" stroke-linejoin="round" stroke-linecap="butt" d="m591.0367 387.98523l124.041565 0l0 61.996857l-124.041565 0z" fill-rule="evenodd"/><path fill="#000000" d="m622.1445 425.88416l0 -14.0l-1.796875 0l-0.03125 10.4375l-5.421875 -10.4375l-1.8125 0l0 14.0l1.796875 0l0.03125 -10.453125l5.421875 10.453125l1.8125 0zm8.205078 -7.5l0 -4.09375l-1.78125 0l0 4.09375l-3.90625 0l0 1.765625l3.90625 0l0 4.328125l1.78125 0l0 -4.328125l3.90625 0l0 -1.765625l-3.90625 0zm15.517517 -5.5l0 -1.0l-9.453125 0l0 1.5625l7.578125 0l-5.78125 12.4375l1.859375 0l5.796875 -13.0zm6.533203 11.84375q0 0.5625 0.34375 0.953125q0.359375 0.390625 1.046875 0.390625q0.6875 0 1.046875 -0.390625q0.375 -0.390625 0.375 -0.953125q0 -0.578125 -0.359375 -0.96875q-0.359375 -0.40625 -1.0625 -0.40625q-0.703125 0 -1.046875 0.40625q-0.34375 0.40625 -0.34375 0.96875zm0 -8.421875q0 0.5625 0.34375 0.953125q0.359375 0.390625 1.046875 0.390625q0.6875 0 1.046875 -0.390625q0.375 -0.390625 0.375 -0.953125q0 -0.578125 -0.359375 -0.96875q-0.359375 -0.40625 -1.0625 -0.40625q-0.703125 0 -1.046875 0.40625q-0.34375 0.40625 -0.34375 0.96875zm23.14447 8.421875q0 0.5625 0.34375 0.953125q0.359375 0.390625 1.046875 0.390625q0.6875 0 1.046875 -0.390625q0.375 -0.390625 0.375 -0.953125q0 -0.578125 -0.359375 -0.96875q-0.359375 -0.40625 -1.0625 -0.40625q-0.703125 0 -1.046875 0.40625q-0.34375 0.40625 -0.34375 0.96875zm11.814392 0q0 0.5625 0.34375 0.953125q0.359375 0.390625 1.046875 0.390625q0.6875 0 1.046875 -0.390625q0.375 -0.390625 0.375 -0.953125q0 -0.578125 -0.359375 -0.96875q-0.359375 -0.40625 -1.0625 -0.40625q-0.703125 0 -1.046875 0.40625q-0.34375 0.40625 -0.34375 0.96875z" fill-rule="nonzero"/><path fill="#f3f3f3" d="m566.88074 155.68317l86.17322 -64.62992l86.17322 64.62992l-86.17322 64.62993z" fill-rule="evenodd"/><path stroke="#666666" stroke-width="6.078740157480315" stroke-linejoin="round" stroke-linecap="butt" d="m566.88074 155.68317l86.17322 -64.62992l86.17322 64.62992l-86.17322 64.62993z" fill-rule="evenodd"/><path fill="#000000" d="m639.8626 126.58365l0 -14.0l-1.796875 0l-0.03125 10.4375l-5.421875 -10.4375l-1.8125 0l0 14.0l1.796875 0l0.03125 -10.453125l5.421875 10.453125l1.8125 0zm6.626953 -1.15625q0 0.5625 0.34375 0.953125q0.359375 0.390625 1.046875 0.390625q0.6875 0 1.046875 -0.390625q0.375 -0.390625 0.375 -0.953125q0 -0.578125 -0.359375 -0.96875q-0.359375 -0.40625 -1.0625 -0.40625q-0.703125 0 -1.046875 0.40625q-0.34375 0.40625 -0.34375 0.96875zm0 -8.421875q0 0.5625 0.34375 0.953125q0.359375 0.390625 1.046875 0.390625q0.6875 0 1.046875 -0.390625q0.375 -0.390625 0.375 -0.953125q0 -0.578125 -0.359375 -0.96875q-0.359375 -0.40625 -1.0625 -0.40625q-0.703125 0 -1.046875 0.40625q-0.34375 0.40625 -0.34375 0.96875zm8.517517 -0.828125l0 1.546875l3.53125 0l0 7.328125l-3.53125 0l0 1.53125l8.703125 0l0 -1.53125l-3.390625 0l0 -8.875l-5.3125 0zm3.3125 -2.71875q0 0.421875 0.25 0.71875q0.265625 0.28125 0.8125 0.28125q0.53125 0 0.796875 -0.28125q0.265625 -0.296875 0.265625 -0.71875q0 -0.25 -0.078125 -0.453125q-0.078125 -0.203125 -0.234375 -0.328125q-0.125 -0.125 -0.3125 -0.1875q-0.1875 -0.078125 -0.4375 -0.078125q-0.25 0 -0.453125 0.078125q-0.1875 0.0625 -0.3125 0.1875q-0.15625 0.140625 -0.234375 0.34375q-0.0625 0.203125 -0.0625 0.4375zm10.876953 13.125l1.78125 0l0 -9.03125l4.015625 0l0 -1.375l-4.015625 0l0 -0.71875q0 -0.65625 0.171875 -1.140625q0.171875 -0.5 0.5 -0.8125q0.296875 -0.296875 0.765625 -0.4375q0.46875 -0.15625 1.078125 -0.15625q0.59375 0 1.109375 0.109375q0.53125 0.09375 0.921875 0.234375l0.21875 -1.46875q-0.25 -0.078125 -0.5 -0.125q-0.234375 -0.0625 -0.46875 -0.109375q-0.375 -0.0625 -0.75 -0.09375q-0.375 -0.046875 -0.75 -0.046875q-0.921875 0 -1.671875 0.265625q-0.75 0.25 -1.28125 0.75q-0.546875 0.515625 -0.84375 1.28125q-0.28125 0.75 -0.28125 1.75l0 0.71875l-2.859375 0l0 1.375l2.859375 0l0 9.03125z" fill-rule="nonzero"/><path fill="#000000" d="m646.0052 149.4274q0 0.5625 0.34375 0.953125q0.359375 0.390625 1.046875 0.390625q0.6875 0 1.046875 -0.390625q0.375 -0.390625 0.375 -0.953125q0 -0.578125 -0.359375 -0.96875q-0.359375 -0.40625 -1.0625 -0.40625q-0.703125 0 -1.046875 0.40625q-0.34375 0.40625 -0.34375 0.96875zm11.814392 0q0 0.5625 0.34375 0.953125q0.359375 0.390625 1.046875 0.390625q0.6875 0 1.046875 -0.390625q0.375 -0.390625 0.375 -0.953125q0 -0.578125 -0.359375 -0.96875q-0.359375 -0.40625 -1.0625 -0.40625q-0.703125 0 -1.046875 0.40625q-0.34375 0.40625 -0.34375 0.96875z" fill-rule="nonzero"/><path fill="#000000" d="m630.76886 169.3024l0 0.203125q0 1.109375 0.28125 2.078125q0.296875 0.96875 0.84375 1.671875q0.515625 0.71875 1.28125 1.125q0.78125 0.390625 1.734375 0.390625q0.5625 0 1.046875 -0.125q0.5 -0.109375 0.90625 -0.328125q0.25 -0.140625 0.46875 -0.328125q0.234375 -0.203125 0.4375 -0.4375l0 0.890625q0 0.671875 -0.203125 1.1875q-0.1875 0.53125 -0.53125 0.875q-0.375 0.359375 -0.890625 0.53125q-0.5 0.1875 -1.140625 0.1875q-0.34375 0 -0.703125 -0.078125q-0.359375 -0.0625 -0.71875 -0.21875q-0.34375 -0.171875 -0.703125 -0.453125q-0.34375 -0.265625 -0.671875 -0.65625l-0.921875 1.0625q0.359375 0.515625 0.84375 0.859375q0.5 0.34375 1.046875 0.546875q0.53125 0.203125 1.046875 0.296875q0.515625 0.09375 0.921875 0.09375q0.984375 0 1.78125 -0.296875q0.8125 -0.28125 1.40625 -0.84375q0.578125 -0.546875 0.890625 -1.34375q0.328125 -0.796875 0.328125 -1.828125l0 -10.1875l-1.625 0l-0.078125 1.140625q-0.1875 -0.234375 -0.390625 -0.421875q-0.203125 -0.1875 -0.4375 -0.34375q-0.421875 -0.28125 -0.953125 -0.421875q-0.515625 -0.140625 -1.140625 -0.140625q-0.96875 0 -1.75 0.390625q-0.765625 0.390625 -1.296875 1.09375q-0.546875 0.703125 -0.828125 1.6875q-0.28125 0.96875 -0.28125 2.140625zm1.78125 0.203125l0 -0.203125q0 -0.765625 0.15625 -1.453125q0.15625 -0.6875 0.5 -1.21875q0.34375 -0.515625 0.875 -0.8125q0.53125 -0.3125 1.28125 -0.3125q0.453125 0 0.8125 0.109375q0.359375 0.109375 0.65625 0.296875q0.296875 0.203125 0.53125 0.46875q0.234375 0.265625 0.40625 0.59375l0 4.78125q-0.171875 0.328125 -0.40625 0.609375q-0.234375 0.28125 -0.515625 0.484375q-0.296875 0.203125 -0.671875 0.3125q-0.359375 0.109375 -0.828125 0.109375q-0.734375 0 -1.265625 -0.296875q-0.53125 -0.3125 -0.875 -0.828125q-0.34375 -0.515625 -0.5 -1.203125q-0.15625 -0.6875 -0.15625 -1.4375zm9.861328 -0.21875l0 0.21875q0 1.125 0.328125 2.09375q0.328125 0.953125 0.9375 1.65625q0.609375 0.71875 1.484375 1.125q0.890625 0.390625 1.984375 0.390625q1.109375 0 1.96875 -0.390625q0.875 -0.40625 1.5 -1.125q0.609375 -0.703125 0.921875 -1.65625q0.328125 -0.96875 0.328125 -2.09375l0 -0.21875q0 -1.125 -0.328125 -2.09375q-0.3125 -0.96875 -0.921875 -1.671875q-0.625 -0.71875 -1.5 -1.125q-0.875 -0.40625 -1.984375 -0.40625q-1.09375 0 -1.96875 0.40625q-0.875 0.40625 -1.484375 1.125q-0.609375 0.703125 -0.9375 1.671875q-0.328125 0.96875 -0.328125 2.09375zm1.78125 0.21875l0 -0.21875q0 -0.765625 0.171875 -1.453125q0.1875 -0.703125 0.5625 -1.234375q0.375 -0.515625 0.921875 -0.828125q0.546875 -0.3125 1.28125 -0.3125q0.75 0 1.296875 0.3125q0.546875 0.3125 0.921875 0.828125q0.375 0.53125 0.5625 1.234375q0.1875 0.6875 0.1875 1.453125l0 0.21875q0 0.765625 -0.1875 1.46875q-0.1875 0.6875 -0.546875 1.21875q-0.375 0.53125 -0.9375 0.84375q-0.546875 0.296875 -1.28125 0.296875q-0.734375 0 -1.296875 -0.296875q-0.546875 -0.3125 -0.921875 -0.84375q-0.375 -0.53125 -0.5625 -1.21875q-0.171875 -0.703125 -0.171875 -1.46875zm14.751892 -7.84375l-1.796875 0l0 2.515625l-2.734375 0l0 1.375l2.734375 0l0 5.65625q0 0.96875 0.25 1.640625q0.265625 0.671875 0.703125 1.09375q0.4375 0.4375 1.03125 0.640625q0.609375 0.1875 1.3125 0.1875q0.40625 0 0.8125 -0.046875q0.421875 -0.03125 0.796875 -0.109375q0.375 -0.0625 0.6875 -0.15625q0.328125 -0.109375 0.546875 -0.234375l-0.25 -1.265625q-0.15625 0.03125 -0.421875 0.09375q-0.25 0.046875 -0.53125 0.09375q-0.296875 0.046875 -0.609375 0.09375q-0.3125 0.03125 -0.59375 0.03125q-0.390625 0 -0.75 -0.09375q-0.34375 -0.109375 -0.625 -0.34375q-0.265625 -0.234375 -0.421875 -0.625q-0.140625 -0.390625 -0.140625 -1.0l0 -5.65625l3.953125 0l0 -1.375l-3.953125 0l0 -2.515625zm7.095703 7.625l0 0.21875q0 1.125 0.328125 2.09375q0.328125 0.953125 0.9375 1.65625q0.609375 0.71875 1.484375 1.125q0.890625 0.390625 1.984375 0.390625q1.109375 0 1.96875 -0.390625q0.875 -0.40625 1.5 -1.125q0.609375 -0.703125 0.921875 -1.65625q0.328125 -0.96875 0.328125 -2.09375l0 -0.21875q0 -1.125 -0.328125 -2.09375q-0.3125 -0.96875 -0.921875 -1.671875q-0.625 -0.71875 -1.5 -1.125q-0.875 -0.40625 -1.984375 -0.40625q-1.09375 0 -1.96875 0.40625q-0.875 0.40625 -1.484375 1.125q-0.609375 0.703125 -0.9375 1.671875q-0.328125 0.96875 -0.328125 2.09375zm1.78125 0.21875l0 -0.21875q0 -0.765625 0.171875 -1.453125q0.1875 -0.703125 0.5625 -1.234375q0.375 -0.515625 0.921875 -0.828125q0.546875 -0.3125 1.28125 -0.3125q0.75 0 1.296875 0.3125q0.546875 0.3125 0.921875 0.828125q0.375 0.53125 0.5625 1.234375q0.1875 0.6875 0.1875 1.453125l0 0.21875q0 0.765625 -0.1875 1.46875q-0.1875 0.6875 -0.546875 1.21875q-0.375 0.53125 -0.9375 0.84375q-0.546875 0.296875 -1.28125 0.296875q-0.734375 0 -1.296875 -0.296875q-0.546875 -0.3125 -0.921875 -0.84375q-0.375 -0.53125 -0.5625 -1.21875q-0.171875 -0.703125 -0.171875 -1.46875z" fill-rule="nonzero"/><path fill="#000000" d="m636.25323 191.08365l0 -4.09375l-1.78125 0l0 4.09375l-3.90625 0l0 1.765625l3.90625 0l0 4.328125l1.78125 0l0 -4.328125l3.90625 0l0 -1.765625l-3.90625 0zm15.439453 2.140625l0 -3.265625q0 -1.34375 -0.3125 -2.375q-0.296875 -1.03125 -0.875 -1.75q-0.578125 -0.703125 -1.421875 -1.078125q-0.84375 -0.375 -1.921875 -0.375q-1.0625 0 -1.90625 0.375q-0.84375 0.375 -1.421875 1.078125q-0.578125 0.71875 -0.890625 1.75q-0.3125 1.03125 -0.3125 2.375l0 3.265625q0 1.34375 0.3125 2.375q0.3125 1.03125 0.890625 1.734375q0.59375 0.71875 1.4375 1.078125q0.84375 0.359375 1.90625 0.359375q1.078125 0 1.90625 -0.359375q0.84375 -0.359375 1.421875 -1.078125q0.578125 -0.703125 0.875 -1.734375q0.3125 -1.03125 0.3125 -2.375zm-7.265625 -0.34375q0 -0.25 0 -0.484375q0 -0.25 0 -0.5l0 -2.34375q0 -0.96875 0.1875 -1.71875q0.203125 -0.75 0.609375 -1.21875q0.328125 -0.375 0.8125 -0.5625q0.484375 -0.203125 1.125 -0.203125q0.625 0 1.09375 0.1875q0.484375 0.171875 0.8125 0.546875q0.328125 0.34375 0.53125 0.890625q0.203125 0.53125 0.265625 1.21875l-5.4375 4.1875zm5.484375 0.71875q0 1.03125 -0.21875 1.796875q-0.203125 0.75 -0.640625 1.21875q-0.328125 0.359375 -0.796875 0.546875q-0.46875 0.171875 -1.078125 0.171875q-0.578125 0 -1.046875 -0.171875q-0.453125 -0.171875 -0.78125 -0.484375q-0.34375 -0.359375 -0.578125 -0.890625q-0.21875 -0.53125 -0.296875 -1.234375l5.4375 -4.15625q0 0.265625 0 0.671875q0 0.40625 0 0.5625l0 1.96875zm9.111267 -1.5625l-2.75 -3.859375l-2.0625 0l3.875 5.140625l-3.96875 5.265625l2.078125 0l2.875 -3.953125l2.859375 3.953125l2.0625 0l-3.984375 -5.265625l3.875 -5.140625l-2.078125 0l-2.78125 3.859375zm14.080078 -7.453125l-0.15625 0q-1.5 0 -2.6875 0.421875q-1.1875 0.40625 -2.0 1.234375q-1.203125 1.203125 -1.625 2.90625q-0.40625 1.6875 -0.40625 3.421875l0 0.84375q0 1.015625 0.296875 2.03125q0.3125 1.015625 0.9375 1.78125q0.5625 0.6875 1.375 1.125q0.8125 0.421875 1.890625 0.421875q1.078125 0 1.890625 -0.375q0.8125 -0.375 1.359375 -1.03125q0.546875 -0.640625 0.8125 -1.5q0.28125 -0.859375 0.28125 -1.84375q0 -0.859375 -0.234375 -1.6875q-0.234375 -0.828125 -0.71875 -1.484375q-0.5 -0.640625 -1.265625 -1.046875q-0.75 -0.40625 -1.796875 -0.40625q-0.484375 0 -0.921875 0.125q-0.4375 0.109375 -0.8125 0.28125q-0.375 0.203125 -0.703125 0.453125q-0.328125 0.25 -0.578125 0.546875q0.0625 -0.921875 0.375 -1.796875q0.3125 -0.875 0.90625 -1.5q0.578125 -0.609375 1.46875 -0.96875q0.890625 -0.359375 2.15625 -0.359375l0.15625 0l0 -1.59375zm-2.328125 6.296875q0.640625 0 1.109375 0.28125q0.484375 0.265625 0.8125 0.71875q0.3125 0.4375 0.46875 1.03125q0.15625 0.578125 0.15625 1.1875q0 0.703125 -0.171875 1.296875q-0.171875 0.578125 -0.5 1.0q-0.328125 0.421875 -0.8125 0.671875q-0.484375 0.234375 -1.109375 0.234375q-0.53125 0 -1.03125 -0.25q-0.484375 -0.25 -0.859375 -0.75q-0.375 -0.484375 -0.59375 -1.203125q-0.21875 -0.71875 -0.21875 -1.640625l0 -0.59375q0.15625 -0.4375 0.4375 -0.796875q0.28125 -0.375 0.640625 -0.640625q0.375 -0.25 0.796875 -0.390625q0.421875 -0.15625 0.875 -0.15625z" fill-rule="nonzero"/><path fill="#000000" fill-opacity="0.0" d="m653.0585 335.6494l0 52.326294" fill-rule="evenodd"/><path stroke="#666666" stroke-width="1.6404199475065617" stroke-linejoin="round" stroke-linecap="butt" d="m653.0585 335.6494l0 42.483795" fill-rule="evenodd"/><path fill="#666666" stroke="#666666" stroke-width="1.6404199475065617" stroke-linecap="butt" d="m650.34894 378.1332l2.7095337 7.4443665l2.7095337 -7.4443665z" fill-rule="evenodd"/><path fill="#f3f3f3" d="m591.2007 266.1842l108.62323 0l0 61.996857l-108.62323 0z" fill-rule="evenodd"/><path stroke="#a9a9a9" stroke-width="1.6404199475065617" stroke-linejoin="round" stroke-linecap="butt" d="m591.2007 266.1842l108.62323 0l0 61.996857l-108.62323 0z" fill-rule="evenodd"/><path fill="#f3f3f3" d="m598.7469 273.65256l108.62323 0l0 61.996857l-108.62323 0z" fill-rule="evenodd"/><path stroke="#a9a9a9" stroke-width="1.6404199475065617" stroke-linejoin="round" stroke-linecap="butt" d="m598.7469 273.65256l108.62323 0l0 61.996857l-108.62323 0z" fill-rule="evenodd"/><path fill="#f3f3f3" d="m606.2931 281.1209l108.62317 0l0 61.996857l-108.62317 0z" fill-rule="evenodd"/><path stroke="#a9a9a9" stroke-width="1.6404199475065617" stroke-linejoin="round" stroke-linecap="butt" d="m606.2931 281.1209l108.62317 0l0 61.996857l-108.62317 0z" fill-rule="evenodd"/><path fill="#000000" d="m647.6487 317.86356q0 0.5625 0.34375 0.953125q0.359375 0.390625 1.046875 0.390625q0.6875 0 1.046875 -0.390625q0.375 -0.390625 0.375 -0.953125q0 -0.578125 -0.359375 -0.96875q-0.359375 -0.40625 -1.0625 -0.40625q-0.703125 0 -1.046875 0.40625q-0.34375 0.40625 -0.34375 0.96875zm11.814392 0q0 0.5625 0.34375 0.953125q0.359375 0.390625 1.046875 0.390625q0.6875 0 1.046875 -0.390625q0.375 -0.390625 0.375 -0.953125q0 -0.578125 -0.359375 -0.96875q-0.359375 -0.40625 -1.0625 -0.40625q-0.703125 0 -1.046875 0.40625q-0.34375 0.40625 -0.34375 0.96875zm11.814453 0q0 0.5625 0.34375 0.953125q0.359375 0.390625 1.046875 0.390625q0.6875 0 1.046875 -0.390625q0.375 -0.390625 0.375 -0.953125q0 -0.578125 -0.359375 -0.96875q-0.359375 -0.40625 -1.0625 -0.40625q-0.703125 0 -1.046875 0.40625q-0.34375 0.40625 -0.34375 0.96875z" fill-rule="nonzero"/><path fill="#000000" fill-opacity="0.0" d="m653.05396 220.3131l0 53.33165" fill-rule="evenodd"/><path stroke="#666666" stroke-width="1.6404199475065617" stroke-linejoin="round" stroke-linecap="butt" stroke-dasharray="6.561679790026247,4.921259842519685" d="m653.05396 220.3131l0 43.48912" fill-rule="evenodd"/><path fill="#666666" stroke="#666666" stroke-width="1.6404199475065617" stroke-linecap="butt" d="m650.3444 263.80222l2.7095337 7.444397l2.7095337 -7.444397z" fill-rule="evenodd"/><path fill="#000000" fill-opacity="0.0" d="m653.05396 40.354668l0 50.698578" fill-rule="evenodd"/><path stroke="#666666" stroke-width="1.5538057742782152" stroke-linejoin="round" stroke-linecap="butt" stroke-dasharray="1.5538057742782152,4.661417322834645" d="m653.05396 40.354668l0 41.375748" fill-rule="evenodd"/><path stroke="#666666" stroke-width="1.5538057742782152" stroke-linecap="butt" d="m650.4875 81.730415l2.5664673 7.051323l2.5664673 -7.051323z" fill-rule="evenodd"/><path fill="#000000" fill-opacity="0.0" d="m186.06421 499.65433l165.76376 0l0 32.59842l-165.76376 0z" fill-rule="evenodd"/><path fill="#000000" d="m214.06793 521.884q-0.953125 0 -1.71875 -0.328125q-0.75 -0.34375 -1.203125 -1.109375q-0.453125 -0.765625 -0.453125 -2.03125l0 -8.078125q0 -0.203125 0.15625 -0.296875q0.15625 -0.09375 0.375 -0.09375q0.203125 0 0.359375 0.09375q0.171875 0.09375 0.171875 0.296875l0 8.078125q0 1.28125 0.609375 1.890625q0.625 0.59375 1.703125 0.59375q1.109375 0 1.71875 -0.59375q0.625 -0.609375 0.625 -1.890625l0 -8.078125q0 -0.203125 0.15625 -0.296875q0.15625 -0.09375 0.375 -0.09375q0.203125 0 0.359375 0.09375q0.171875 0.09375 0.171875 0.296875l0 8.078125q0 1.265625 -0.453125 2.03125q-0.4375 0.765625 -1.21875 1.109375q-0.765625 0.328125 -1.734375 0.328125zm5.9776306 -0.09375q-0.203125 0 -0.359375 -0.125q-0.15625 -0.140625 -0.15625 -0.296875l0 -6.859375q0 -0.171875 0.15625 -0.28125q0.15625 -0.109375 0.359375 -0.109375q0.21875 0 0.359375 0.109375q0.15625 0.109375 0.15625 0.28125l0 0.75q0.25 -0.46875 0.796875 -0.84375q0.5625 -0.390625 1.375 -0.390625q0.765625 0 1.421875 0.421875q0.65625 0.40625 1.046875 1.09375q0.390625 0.671875 0.390625 1.515625l0 4.3125q0 0.21875 -0.171875 0.328125q-0.15625 0.09375 -0.359375 0.09375q-0.171875 0 -0.34375 -0.09375q-0.171875 -0.109375 -0.171875 -0.328125l0 -4.3125q0 -0.515625 -0.28125 -0.984375q-0.28125 -0.46875 -0.734375 -0.765625q-0.453125 -0.3125 -1.0 -0.3125q-0.484375 0 -0.9375 0.265625q-0.4375 0.25 -0.71875 0.703125q-0.28125 0.453125 -0.28125 1.09375l0 4.3125q0 0.15625 -0.15625 0.296875q-0.15625 0.125 -0.390625 0.125zm10.379364 0.109375q-1.078125 0 -1.78125 -0.40625q-0.6875 -0.40625 -1.03125 -1.09375q-0.328125 -0.703125 -0.328125 -1.578125l0 -1.734375q0 -0.859375 0.328125 -1.546875q0.328125 -0.703125 1.03125 -1.109375q0.703125 -0.40625 1.78125 -0.40625q0.671875 0 1.1875 0.171875q0.515625 0.171875 0.796875 0.421875q0.28125 0.234375 0.28125 0.46875q0 0.09375 -0.0625 0.21875q-0.046875 0.109375 -0.15625 0.203125q-0.109375 0.09375 -0.234375 0.09375q-0.140625 0 -0.328125 -0.15625q-0.1875 -0.15625 -0.515625 -0.296875q-0.328125 -0.15625 -0.921875 -0.15625q-1.046875 0 -1.59375 0.5625q-0.546875 0.5625 -0.546875 1.53125l0 1.734375q0 0.984375 0.546875 1.546875q0.546875 0.5625 1.609375 0.5625q0.609375 0 0.953125 -0.15625q0.34375 -0.15625 0.53125 -0.296875q0.1875 -0.15625 0.34375 -0.15625q0.15625 0 0.25 0.078125q0.109375 0.078125 0.15625 0.203125q0.0625 0.109375 0.0625 0.234375q0 0.203125 -0.296875 0.453125q-0.28125 0.25 -0.8125 0.4375q-0.515625 0.171875 -1.25 0.171875zm6.48468 0q-0.828125 0 -1.53125 -0.421875q-0.6875 -0.4375 -1.125 -1.140625q-0.421875 -0.703125 -0.421875 -1.515625l0 -1.765625q0 -0.8125 0.421875 -1.5q0.421875 -0.6875 1.109375 -1.109375q0.703125 -0.421875 1.546875 -0.421875q0.828125 0 1.53125 0.421875q0.703125 0.40625 1.125 1.09375q0.421875 0.671875 0.421875 1.515625l0 1.765625q0 0.796875 -0.421875 1.515625q-0.421875 0.703125 -1.125 1.140625q-0.703125 0.421875 -1.53125 0.421875zm0 -0.96875q0.5625 0 1.015625 -0.296875q0.453125 -0.296875 0.71875 -0.78125q0.28125 -0.5 0.28125 -1.03125l0 -1.765625q0 -0.515625 -0.265625 -0.984375q-0.265625 -0.46875 -0.734375 -0.765625q-0.453125 -0.3125 -1.015625 -0.3125q-0.578125 0 -1.03125 0.3125q-0.453125 0.296875 -0.734375 0.765625q-0.265625 0.46875 -0.265625 0.984375l0 1.765625q0 0.53125 0.265625 1.03125q0.28125 0.484375 0.734375 0.78125q0.46875 0.296875 1.03125 0.296875zm5.318039 0.859375q-0.203125 0 -0.359375 -0.125q-0.15625 -0.140625 -0.15625 -0.296875l0 -6.859375q0 -0.171875 0.15625 -0.28125q0.15625 -0.109375 0.359375 -0.109375q0.21875 0 0.359375 0.109375q0.15625 0.109375 0.15625 0.28125l0 0.75q0.25 -0.46875 0.796875 -0.84375q0.5625 -0.390625 1.375 -0.390625q0.765625 0 1.421875 0.421875q0.65625 0.40625 1.046875 1.09375q0.390625 0.671875 0.390625 1.515625l0 4.3125q0 0.21875 -0.171875 0.328125q-0.15625 0.09375 -0.359375 0.09375q-0.171875 0 -0.34375 -0.09375q-0.171875 -0.109375 -0.171875 -0.328125l0 -4.3125q0 -0.515625 -0.28125 -0.984375q-0.28125 -0.46875 -0.734375 -0.765625q-0.453125 -0.3125 -1.0 -0.3125q-0.484375 0 -0.9375 0.265625q-0.4375 0.25 -0.71875 0.703125q-0.28125 0.453125 -0.28125 1.09375l0 4.3125q0 0.15625 -0.15625 0.296875q-0.15625 0.125 -0.390625 0.125zm10.082489 0.109375q-0.765625 0 -1.4375 -0.421875q-0.65625 -0.4375 -1.046875 -1.140625q-0.375 -0.71875 -0.375 -1.515625l0 -1.765625q0 -0.84375 0.375 -1.515625q0.390625 -0.6875 1.046875 -1.09375q0.671875 -0.421875 1.46875 -0.421875q0.796875 0 1.34375 0.390625q0.546875 0.375 0.796875 0.84375l0 -5.4375q0 -0.1875 0.15625 -0.28125q0.171875 -0.109375 0.375 -0.109375q0.25 0 0.390625 0.109375q0.140625 0.09375 0.140625 0.28125l0 11.546875q0 0.15625 -0.140625 0.296875q-0.140625 0.125 -0.390625 0.125q-0.1875 0 -0.34375 -0.125q-0.140625 -0.140625 -0.140625 -0.296875l0 -0.71875q-0.25 0.515625 -0.859375 0.890625q-0.609375 0.359375 -1.359375 0.359375zm0.1875 -0.96875q0.578125 0 1.015625 -0.296875q0.453125 -0.296875 0.703125 -0.671875q0.265625 -0.390625 0.265625 -0.640625l0 -2.265625q0 -0.640625 -0.296875 -1.09375q-0.28125 -0.453125 -0.734375 -0.703125q-0.453125 -0.265625 -0.9375 -0.265625q-0.5625 0 -1.015625 0.3125q-0.453125 0.296875 -0.734375 0.765625q-0.265625 0.46875 -0.265625 0.984375l0 1.765625q0 0.53125 0.265625 1.03125q0.28125 0.484375 0.734375 0.78125q0.453125 0.296875 1.0 0.296875zm5.607956 -9.078125q-0.296875 0 -0.515625 -0.203125q-0.203125 -0.203125 -0.203125 -0.46875q0 -0.28125 0.203125 -0.46875q0.21875 -0.203125 0.515625 -0.203125q0.28125 0 0.484375 0.203125q0.21875 0.1875 0.21875 0.46875q0 0.265625 -0.21875 0.46875q-0.203125 0.203125 -0.484375 0.203125zm-0.03125 9.9375q-0.203125 0 -0.359375 -0.125q-0.15625 -0.140625 -0.15625 -0.296875l0 -6.859375q0 -0.171875 0.15625 -0.28125q0.15625 -0.109375 0.359375 -0.109375q0.234375 0 0.390625 0.109375q0.15625 0.109375 0.15625 0.28125l0 6.859375q0 0.15625 -0.15625 0.296875q-0.15625 0.125 -0.390625 0.125zm5.093628 0q-1.25 0 -1.921875 -0.5625q-0.65625 -0.578125 -0.65625 -1.8125l0 -8.546875q0 -0.171875 0.171875 -0.28125q0.171875 -0.109375 0.34375 -0.109375q0.21875 0 0.375 0.109375q0.171875 0.109375 0.171875 0.28125l0 3.25l2.09375 0q0.171875 0 0.265625 0.140625q0.09375 0.125 0.09375 0.296875q0 0.1875 -0.09375 0.3125q-0.09375 0.125 -0.265625 0.125l-2.09375 0l0 4.421875q0 0.78125 0.328125 1.109375q0.34375 0.3125 1.1875 0.3125l0.453125 0q0.234375 0 0.34375 0.140625q0.125 0.125 0.125 0.328125q0 0.1875 -0.125 0.34375q-0.109375 0.140625 -0.34375 0.140625l-0.453125 0zm2.7799377 -9.9375q-0.296875 0 -0.515625 -0.203125q-0.203125 -0.203125 -0.203125 -0.46875q0 -0.28125 0.203125 -0.46875q0.21875 -0.203125 0.515625 -0.203125q0.28125 0 0.484375 0.203125q0.21875 0.1875 0.21875 0.46875q0 0.265625 -0.21875 0.46875q-0.203125 0.203125 -0.484375 0.203125zm-0.03125 9.9375q-0.203125 0 -0.359375 -0.125q-0.15625 -0.140625 -0.15625 -0.296875l0 -6.859375q0 -0.171875 0.15625 -0.28125q0.15625 -0.109375 0.359375 -0.109375q0.234375 0 0.390625 0.109375q0.15625 0.109375 0.15625 0.28125l0 6.859375q0 0.15625 -0.15625 0.296875q-0.15625 0.125 -0.390625 0.125zm5.3436584 0.109375q-0.828125 0 -1.53125 -0.421875q-0.6875 -0.4375 -1.125 -1.140625q-0.421875 -0.703125 -0.421875 -1.515625l0 -1.765625q0 -0.8125 0.421875 -1.5q0.421875 -0.6875 1.109375 -1.109375q0.703125 -0.421875 1.546875 -0.421875q0.828125 0 1.53125 0.421875q0.703125 0.40625 1.125 1.09375q0.421875 0.671875 0.421875 1.515625l0 1.765625q0 0.796875 -0.421875 1.515625q-0.421875 0.703125 -1.125 1.140625q-0.703125 0.421875 -1.53125 0.421875zm0 -0.96875q0.5625 0 1.015625 -0.296875q0.453125 -0.296875 0.71875 -0.78125q0.28125 -0.5 0.28125 -1.03125l0 -1.765625q0 -0.515625 -0.265625 -0.984375q-0.265625 -0.46875 -0.734375 -0.765625q-0.453125 -0.3125 -1.015625 -0.3125q-0.578125 0 -1.03125 0.3125q-0.453125 0.296875 -0.734375 0.765625q-0.265625 0.46875 -0.265625 0.984375l0 1.765625q0 0.53125 0.265625 1.03125q0.28125 0.484375 0.734375 0.78125q0.46875 0.296875 1.03125 0.296875zm5.3180237 0.859375q-0.203125 0 -0.359375 -0.125q-0.15625 -0.140625 -0.15625 -0.296875l0 -6.859375q0 -0.171875 0.15625 -0.28125q0.15625 -0.109375 0.359375 -0.109375q0.21875 0 0.359375 0.109375q0.15625 0.109375 0.15625 0.28125l0 0.75q0.25 -0.46875 0.796875 -0.84375q0.5625 -0.390625 1.375 -0.390625q0.765625 0 1.421875 0.421875q0.65625 0.40625 1.046875 1.09375q0.390625 0.671875 0.390625 1.515625l0 4.3125q0 0.21875 -0.171875 0.328125q-0.15625 0.09375 -0.359375 0.09375q-0.171875 0 -0.34375 -0.09375q-0.171875 -0.109375 -0.171875 -0.328125l0 -4.3125q0 -0.515625 -0.28125 -0.984375q-0.28125 -0.46875 -0.734375 -0.765625q-0.453125 -0.3125 -1.0 -0.3125q-0.484375 0 -0.9375 0.265625q-0.4375 0.25 -0.71875 0.703125q-0.28125 0.453125 -0.28125 1.09375l0 4.3125q0 0.15625 -0.15625 0.296875q-0.15625 0.125 -0.390625 0.125zm9.191864 0.109375q-0.90625 0 -1.5625 -0.515625q-0.640625 -0.53125 -0.640625 -1.625q0 -0.890625 0.46875 -1.359375q0.484375 -0.484375 1.328125 -0.671875q0.859375 -0.1875 1.984375 -0.1875l0.828125 0l0 -0.390625q0 -0.515625 -0.1875 -1.015625q-0.1875 -0.515625 -0.609375 -0.84375q-0.40625 -0.34375 -1.125 -0.34375q-0.53125 0 -0.875 0.125q-0.328125 0.109375 -0.53125 0.234375q-0.1875 0.109375 -0.328125 0.109375q-0.1875 0 -0.3125 -0.1875q-0.109375 -0.1875 -0.109375 -0.375q0 -0.203125 0.328125 -0.390625q0.34375 -0.1875 0.84375 -0.3125q0.515625 -0.125 1.015625 -0.125q1.09375 0 1.734375 0.453125q0.640625 0.4375 0.921875 1.15625q0.28125 0.71875 0.28125 1.515625l0 4.21875q0 0.171875 -0.140625 0.296875q-0.140625 0.125 -0.375 0.125q-0.203125 0 -0.34375 -0.125q-0.140625 -0.125 -0.140625 -0.296875l0 -0.71875q-0.421875 0.46875 -1.03125 0.859375q-0.59375 0.390625 -1.421875 0.390625zm0.265625 -0.890625q0.53125 0 1.015625 -0.265625q0.484375 -0.28125 0.796875 -0.671875q0.328125 -0.40625 0.328125 -0.765625l0 -1.03125l-0.6875 0q-0.734375 0 -1.390625 0.09375q-0.65625 0.078125 -1.0625 0.375q-0.40625 0.296875 -0.40625 0.921875q0 0.703125 0.40625 1.03125q0.40625 0.3125 1.0 0.3125zm5.80011 0.78125q-0.21875 0 -0.375 -0.125q-0.140625 -0.140625 -0.140625 -0.296875l0 -11.546875q0 -0.1875 0.140625 -0.28125q0.15625 -0.109375 0.375 -0.109375q0.21875 0 0.375 0.109375q0.15625 0.09375 0.15625 0.28125l0 11.546875q0 0.15625 -0.15625 0.296875q-0.15625 0.125 -0.375 0.125zm4.892151 3.765625q-0.296875 0 -0.421875 -0.15625q-0.125 -0.140625 -0.125 -0.3125q0 -0.234375 0.140625 -0.375q0.125 -0.125 0.3125 -0.125q0.515625 0 0.765625 -0.28125q0.25 -0.265625 0.3125 -0.75q0.078125 -0.46875 0.078125 -1.0625l0 -7.984375q0 -0.171875 0.140625 -0.28125q0.15625 -0.109375 0.390625 -0.109375q0.21875 0 0.375 0.109375q0.15625 0.109375 0.15625 0.28125l0 7.984375q0 0.890625 -0.21875 1.578125q-0.203125 0.703125 -0.671875 1.09375q-0.46875 0.390625 -1.234375 0.390625zm1.59375 -13.703125q-0.296875 0 -0.515625 -0.203125q-0.203125 -0.203125 -0.203125 -0.46875q0 -0.28125 0.203125 -0.46875q0.21875 -0.203125 0.515625 -0.203125q0.28125 0 0.484375 0.203125q0.21875 0.1875 0.21875 0.46875q0 0.265625 -0.21875 0.46875q-0.203125 0.203125 -0.484375 0.203125zm5.5791626 10.046875q-0.859375 0 -1.5625 -0.421875q-0.6875 -0.421875 -1.109375 -1.125q-0.421875 -0.703125 -0.421875 -1.5l0 -4.328125q0 -0.140625 0.15625 -0.265625q0.171875 -0.140625 0.375 -0.140625q0.21875 0 0.375 0.140625q0.15625 0.125 0.15625 0.265625l0 4.328125q0 0.546875 0.265625 1.015625q0.28125 0.46875 0.734375 0.765625q0.453125 0.296875 1.015625 0.296875q0.59375 0 1.046875 -0.28125q0.453125 -0.296875 0.71875 -0.765625q0.265625 -0.484375 0.265625 -1.03125l0 -4.34375q0 -0.15625 0.15625 -0.265625q0.171875 -0.125 0.375 -0.125q0.25 0 0.375 0.125q0.140625 0.109375 0.140625 0.265625l0 4.34375q0 0.828125 -0.421875 1.515625q-0.40625 0.6875 -1.109375 1.109375q-0.703125 0.421875 -1.53125 0.421875zm5.5211487 -0.109375q-0.203125 0 -0.359375 -0.125q-0.15625 -0.140625 -0.15625 -0.296875l0 -6.859375q0 -0.171875 0.15625 -0.28125q0.15625 -0.109375 0.359375 -0.109375q0.21875 0 0.359375 0.109375q0.15625 0.109375 0.15625 0.28125l0 0.75q0.265625 -0.46875 0.8125 -0.84375q0.546875 -0.390625 1.34375 -0.390625q0.796875 0 1.390625 0.453125q0.609375 0.453125 0.90625 1.171875q0.421875 -0.828125 1.09375 -1.21875q0.671875 -0.40625 1.359375 -0.40625q0.703125 0 1.328125 0.359375q0.625 0.359375 1.015625 1.03125q0.390625 0.671875 0.390625 1.640625l0 4.3125q0 0.15625 -0.15625 0.296875q-0.15625 0.125 -0.390625 0.125q-0.203125 0 -0.359375 -0.125q-0.15625 -0.140625 -0.15625 -0.296875l0 -4.3125q0 -0.671875 -0.28125 -1.125q-0.265625 -0.453125 -0.6875 -0.6875q-0.421875 -0.25 -0.875 -0.25q-0.46875 0 -0.90625 0.25q-0.421875 0.25 -0.703125 0.703125q-0.28125 0.4375 -0.28125 1.046875l0 4.390625q0 0.21875 -0.171875 0.3125q-0.171875 0.09375 -0.375 0.09375q-0.171875 0 -0.34375 -0.09375q-0.171875 -0.09375 -0.171875 -0.3125l0 -4.375q0 -0.578125 -0.25 -1.03125q-0.25 -0.453125 -0.671875 -0.71875q-0.421875 -0.265625 -0.921875 -0.265625q-0.46875 0 -0.90625 0.25q-0.4375 0.25 -0.71875 0.703125q-0.28125 0.453125 -0.28125 1.109375l0 4.3125q0 0.15625 -0.15625 0.296875q-0.15625 0.125 -0.390625 0.125zm12.653534 3.765625q-0.21875 0 -0.375 -0.140625q-0.15625 -0.125 -0.15625 -0.28125l0 -10.625q0 -0.171875 0.15625 -0.28125q0.15625 -0.109375 0.375 -0.109375q0.203125 0 0.34375 0.109375q0.15625 0.109375 0.15625 0.28125l0 0.75q0.265625 -0.46875 0.8125 -0.84375q0.5625 -0.390625 1.359375 -0.390625q0.796875 0 1.453125 0.421875q0.65625 0.40625 1.046875 1.09375q0.40625 0.671875 0.40625 1.515625l0 1.765625q0 0.796875 -0.40625 1.515625q-0.390625 0.703125 -1.03125 1.140625q-0.640625 0.421875 -1.421875 0.421875q-0.75 0 -1.34375 -0.359375q-0.578125 -0.375 -0.84375 -0.890625l0 4.484375q0 0.15625 -0.15625 0.28125q-0.15625 0.140625 -0.375 0.140625zm2.515625 -4.625q0.546875 0 1.0 -0.296875q0.453125 -0.296875 0.734375 -0.78125q0.28125 -0.5 0.28125 -1.03125l0 -1.765625q0 -0.515625 -0.28125 -0.984375q-0.265625 -0.46875 -0.734375 -0.765625q-0.453125 -0.3125 -1.03125 -0.3125q-0.484375 0 -0.9375 0.265625q-0.4375 0.25 -0.734375 0.703125q-0.28125 0.453125 -0.28125 1.09375l0 2.265625q0 0.25 0.25 0.640625q0.265625 0.375 0.71875 0.671875q0.453125 0.296875 1.015625 0.296875z" fill-rule="nonzero"/><path fill="#000000" fill-opacity="0.0" d="m570.13965 499.65433l165.7638 0l0 32.59842l-165.7638 0z" fill-rule="evenodd"/><path fill="#000000" d="m605.6077 521.884q-0.90625 0 -1.671875 -0.328125q-0.765625 -0.34375 -1.21875 -1.109375q-0.453125 -0.765625 -0.453125 -2.03125l0 -5.015625q0 -1.25 0.453125 -2.0q0.46875 -0.765625 1.234375 -1.109375q0.765625 -0.34375 1.6875 -0.34375q1.078125 0 1.8125 0.375q0.75 0.375 1.140625 0.984375q0.40625 0.609375 0.40625 1.34375q0 0.390625 -0.140625 0.53125q-0.140625 0.125 -0.390625 0.125q-0.296875 0 -0.421875 -0.125q-0.109375 -0.125 -0.109375 -0.28125q-0.03125 -0.265625 -0.125 -0.59375q-0.078125 -0.34375 -0.3125 -0.65625q-0.234375 -0.3125 -0.6875 -0.515625q-0.4375 -0.203125 -1.15625 -0.203125q-1.125 0 -1.734375 0.609375q-0.59375 0.59375 -0.59375 1.859375l0 5.015625q0 1.28125 0.609375 1.890625q0.609375 0.59375 1.765625 0.59375q0.734375 0 1.15625 -0.203125q0.421875 -0.203125 0.640625 -0.5q0.21875 -0.296875 0.296875 -0.640625q0.078125 -0.359375 0.140625 -0.65625q0.015625 -0.203125 0.140625 -0.3125q0.125 -0.109375 0.375 -0.109375q0.265625 0 0.40625 0.140625q0.140625 0.140625 0.140625 0.53125q0 0.734375 -0.40625 1.359375q-0.40625 0.609375 -1.15625 1.0q-0.75 0.375 -1.828125 0.375zm7.834839 0.015625q-0.828125 0 -1.53125 -0.421875q-0.6875 -0.4375 -1.125 -1.140625q-0.421875 -0.703125 -0.421875 -1.515625l0 -1.765625q0 -0.8125 0.421875 -1.5q0.421875 -0.6875 1.109375 -1.109375q0.703125 -0.421875 1.546875 -0.421875q0.828125 0 1.53125 0.421875q0.703125 0.40625 1.125 1.09375q0.421875 0.671875 0.421875 1.515625l0 1.765625q0 0.796875 -0.421875 1.515625q-0.421875 0.703125 -1.125 1.140625q-0.703125 0.421875 -1.53125 0.421875zm0 -0.96875q0.5625 0 1.015625 -0.296875q0.453125 -0.296875 0.71875 -0.78125q0.28125 -0.5 0.28125 -1.03125l0 -1.765625q0 -0.515625 -0.265625 -0.984375q-0.265625 -0.46875 -0.734375 -0.765625q-0.453125 -0.3125 -1.015625 -0.3125q-0.578125 0 -1.03125 0.3125q-0.453125 0.296875 -0.734375 0.765625q-0.265625 0.46875 -0.265625 0.984375l0 1.765625q0 0.53125 0.265625 1.03125q0.28125 0.484375 0.734375 0.78125q0.46875 0.296875 1.03125 0.296875zm5.317993 0.859375q-0.203125 0 -0.359375 -0.125q-0.15625 -0.140625 -0.15625 -0.296875l0 -6.859375q0 -0.171875 0.15625 -0.28125q0.15625 -0.109375 0.359375 -0.109375q0.21875 0 0.359375 0.109375q0.15625 0.109375 0.15625 0.28125l0 0.75q0.25 -0.46875 0.796875 -0.84375q0.5625 -0.390625 1.375 -0.390625q0.765625 0 1.421875 0.421875q0.65625 0.40625 1.046875 1.09375q0.390625 0.671875 0.390625 1.515625l0 4.3125q0 0.21875 -0.171875 0.328125q-0.15625 0.09375 -0.359375 0.09375q-0.171875 0 -0.34375 -0.09375q-0.171875 -0.109375 -0.171875 -0.328125l0 -4.3125q0 -0.515625 -0.28125 -0.984375q-0.28125 -0.46875 -0.734375 -0.765625q-0.453125 -0.3125 -1.0 -0.3125q-0.484375 0 -0.9375 0.265625q-0.4375 0.25 -0.71875 0.703125q-0.28125 0.453125 -0.28125 1.09375l0 4.3125q0 0.15625 -0.15625 0.296875q-0.15625 0.125 -0.390625 0.125zm10.08252 0.109375q-0.765625 0 -1.4375 -0.421875q-0.65625 -0.4375 -1.046875 -1.140625q-0.375 -0.71875 -0.375 -1.515625l0 -1.765625q0 -0.84375 0.375 -1.515625q0.390625 -0.6875 1.046875 -1.09375q0.671875 -0.421875 1.46875 -0.421875q0.796875 0 1.34375 0.390625q0.546875 0.375 0.796875 0.84375l0 -5.4375q0 -0.1875 0.15625 -0.28125q0.171875 -0.109375 0.375 -0.109375q0.25 0 0.390625 0.109375q0.140625 0.09375 0.140625 0.28125l0 11.546875q0 0.15625 -0.140625 0.296875q-0.140625 0.125 -0.390625 0.125q-0.1875 0 -0.34375 -0.125q-0.140625 -0.140625 -0.140625 -0.296875l0 -0.71875q-0.25 0.515625 -0.859375 0.890625q-0.609375 0.359375 -1.359375 0.359375zm0.1875 -0.96875q0.578125 0 1.015625 -0.296875q0.453125 -0.296875 0.703125 -0.671875q0.265625 -0.390625 0.265625 -0.640625l0 -2.265625q0 -0.640625 -0.296875 -1.09375q-0.28125 -0.453125 -0.734375 -0.703125q-0.453125 -0.265625 -0.9375 -0.265625q-0.5625 0 -1.015625 0.3125q-0.453125 0.296875 -0.734375 0.765625q-0.265625 0.46875 -0.265625 0.984375l0 1.765625q0 0.53125 0.265625 1.03125q0.28125 0.484375 0.734375 0.78125q0.453125 0.296875 1.0 0.296875zm5.607971 -9.078125q-0.296875 0 -0.515625 -0.203125q-0.203125 -0.203125 -0.203125 -0.46875q0 -0.28125 0.203125 -0.46875q0.21875 -0.203125 0.515625 -0.203125q0.28125 0 0.484375 0.203125q0.21875 0.1875 0.21875 0.46875q0 0.265625 -0.21875 0.46875q-0.203125 0.203125 -0.484375 0.203125zm-0.03125 9.9375q-0.203125 0 -0.359375 -0.125q-0.15625 -0.140625 -0.15625 -0.296875l0 -6.859375q0 -0.171875 0.15625 -0.28125q0.15625 -0.109375 0.359375 -0.109375q0.234375 0 0.390625 0.109375q0.15625 0.109375 0.15625 0.28125l0 6.859375q0 0.15625 -0.15625 0.296875q-0.15625 0.125 -0.390625 0.125zm5.093628 0q-1.25 0 -1.921875 -0.5625q-0.65625 -0.578125 -0.65625 -1.8125l0 -8.546875q0 -0.171875 0.171875 -0.28125q0.171875 -0.109375 0.34375 -0.109375q0.21875 0 0.375 0.109375q0.171875 0.109375 0.171875 0.28125l0 3.25l2.09375 0q0.171875 0 0.265625 0.140625q0.09375 0.125 0.09375 0.296875q0 0.1875 -0.09375 0.3125q-0.09375 0.125 -0.265625 0.125l-2.09375 0l0 4.421875q0 0.78125 0.328125 1.109375q0.34375 0.3125 1.1875 0.3125l0.453125 0q0.234375 0 0.34375 0.140625q0.125 0.125 0.125 0.328125q0 0.1875 -0.125 0.34375q-0.109375 0.140625 -0.34375 0.140625l-0.453125 0zm2.7799072 -9.9375q-0.296875 0 -0.515625 -0.203125q-0.203125 -0.203125 -0.203125 -0.46875q0 -0.28125 0.203125 -0.46875q0.21875 -0.203125 0.515625 -0.203125q0.28125 0 0.484375 0.203125q0.21875 0.1875 0.21875 0.46875q0 0.265625 -0.21875 0.46875q-0.203125 0.203125 -0.484375 0.203125zm-0.03125 9.9375q-0.203125 0 -0.359375 -0.125q-0.15625 -0.140625 -0.15625 -0.296875l0 -6.859375q0 -0.171875 0.15625 -0.28125q0.15625 -0.109375 0.359375 -0.109375q0.234375 0 0.390625 0.109375q0.15625 0.109375 0.15625 0.28125l0 6.859375q0 0.15625 -0.15625 0.296875q-0.15625 0.125 -0.390625 0.125zm5.343689 0.109375q-0.828125 0 -1.53125 -0.421875q-0.6875 -0.4375 -1.125 -1.140625q-0.421875 -0.703125 -0.421875 -1.515625l0 -1.765625q0 -0.8125 0.421875 -1.5q0.421875 -0.6875 1.109375 -1.109375q0.703125 -0.421875 1.546875 -0.421875q0.828125 0 1.53125 0.421875q0.703125 0.40625 1.125 1.09375q0.421875 0.671875 0.421875 1.515625l0 1.765625q0 0.796875 -0.421875 1.515625q-0.421875 0.703125 -1.125 1.140625q-0.703125 0.421875 -1.53125 0.421875zm0 -0.96875q0.5625 0 1.015625 -0.296875q0.453125 -0.296875 0.71875 -0.78125q0.28125 -0.5 0.28125 -1.03125l0 -1.765625q0 -0.515625 -0.265625 -0.984375q-0.265625 -0.46875 -0.734375 -0.765625q-0.453125 -0.3125 -1.015625 -0.3125q-0.578125 0 -1.03125 0.3125q-0.453125 0.296875 -0.734375 0.765625q-0.265625 0.46875 -0.265625 0.984375l0 1.765625q0 0.53125 0.265625 1.03125q0.28125 0.484375 0.734375 0.78125q0.46875 0.296875 1.03125 0.296875zm5.317993 0.859375q-0.203125 0 -0.359375 -0.125q-0.15625 -0.140625 -0.15625 -0.296875l0 -6.859375q0 -0.171875 0.15625 -0.28125q0.15625 -0.109375 0.359375 -0.109375q0.21875 0 0.359375 0.109375q0.15625 0.109375 0.15625 0.28125l0 0.75q0.25 -0.46875 0.796875 -0.84375q0.5625 -0.390625 1.375 -0.390625q0.765625 0 1.421875 0.421875q0.65625 0.40625 1.046875 1.09375q0.390625 0.671875 0.390625 1.515625l0 4.3125q0 0.21875 -0.171875 0.328125q-0.15625 0.09375 -0.359375 0.09375q-0.171875 0 -0.34375 -0.09375q-0.171875 -0.109375 -0.171875 -0.328125l0 -4.3125q0 -0.515625 -0.28125 -0.984375q-0.28125 -0.46875 -0.734375 -0.765625q-0.453125 -0.3125 -1.0 -0.3125q-0.484375 0 -0.9375 0.265625q-0.4375 0.25 -0.71875 0.703125q-0.28125 0.453125 -0.28125 1.09375l0 4.3125q0 0.15625 -0.15625 0.296875q-0.15625 0.125 -0.390625 0.125zm9.191895 0.109375q-0.90625 0 -1.5625 -0.515625q-0.640625 -0.53125 -0.640625 -1.625q0 -0.890625 0.46875 -1.359375q0.484375 -0.484375 1.328125 -0.671875q0.859375 -0.1875 1.984375 -0.1875l0.828125 0l0 -0.390625q0 -0.515625 -0.1875 -1.015625q-0.1875 -0.515625 -0.609375 -0.84375q-0.40625 -0.34375 -1.125 -0.34375q-0.53125 0 -0.875 0.125q-0.328125 0.109375 -0.53125 0.234375q-0.1875 0.109375 -0.328125 0.109375q-0.1875 0 -0.3125 -0.1875q-0.109375 -0.1875 -0.109375 -0.375q0 -0.203125 0.328125 -0.390625q0.34375 -0.1875 0.84375 -0.3125q0.515625 -0.125 1.015625 -0.125q1.09375 0 1.734375 0.453125q0.640625 0.4375 0.921875 1.15625q0.28125 0.71875 0.28125 1.515625l0 4.21875q0 0.171875 -0.140625 0.296875q-0.140625 0.125 -0.375 0.125q-0.203125 0 -0.34375 -0.125q-0.140625 -0.125 -0.140625 -0.296875l0 -0.71875q-0.421875 0.46875 -1.03125 0.859375q-0.59375 0.390625 -1.421875 0.390625zm0.265625 -0.890625q0.53125 0 1.015625 -0.265625q0.484375 -0.28125 0.796875 -0.671875q0.328125 -0.40625 0.328125 -0.765625l0 -1.03125l-0.6875 0q-0.734375 0 -1.390625 0.09375q-0.65625 0.078125 -1.0625 0.375q-0.40625 0.296875 -0.40625 0.921875q0 0.703125 0.40625 1.03125q0.40625 0.3125 1.0 0.3125zm5.80011 0.78125q-0.21875 0 -0.375 -0.125q-0.140625 -0.140625 -0.140625 -0.296875l0 -11.546875q0 -0.1875 0.140625 -0.28125q0.15625 -0.109375 0.375 -0.109375q0.21875 0 0.375 0.109375q0.15625 0.09375 0.15625 0.28125l0 11.546875q0 0.15625 -0.15625 0.296875q-0.15625 0.125 -0.375 0.125zm4.892151 3.765625q-0.296875 0 -0.421875 -0.15625q-0.125 -0.140625 -0.125 -0.3125q0 -0.234375 0.140625 -0.375q0.125 -0.125 0.3125 -0.125q0.515625 0 0.765625 -0.28125q0.25 -0.265625 0.3125 -0.75q0.078125 -0.46875 0.078125 -1.0625l0 -7.984375q0 -0.171875 0.140625 -0.28125q0.15625 -0.109375 0.390625 -0.109375q0.21875 0 0.375 0.109375q0.15625 0.109375 0.15625 0.28125l0 7.984375q0 0.890625 -0.21875 1.578125q-0.203125 0.703125 -0.671875 1.09375q-0.46875 0.390625 -1.234375 0.390625zm1.59375 -13.703125q-0.296875 0 -0.515625 -0.203125q-0.203125 -0.203125 -0.203125 -0.46875q0 -0.28125 0.203125 -0.46875q0.21875 -0.203125 0.515625 -0.203125q0.28125 0 0.484375 0.203125q0.21875 0.1875 0.21875 0.46875q0 0.265625 -0.21875 0.46875q-0.203125 0.203125 -0.484375 0.203125zm5.5791626 10.046875q-0.859375 0 -1.5625 -0.421875q-0.6875 -0.421875 -1.109375 -1.125q-0.421875 -0.703125 -0.421875 -1.5l0 -4.328125q0 -0.140625 0.15625 -0.265625q0.171875 -0.140625 0.375 -0.140625q0.21875 0 0.375 0.140625q0.15625 0.125 0.15625 0.265625l0 4.328125q0 0.546875 0.265625 1.015625q0.28125 0.46875 0.734375 0.765625q0.453125 0.296875 1.015625 0.296875q0.59375 0 1.046875 -0.28125q0.453125 -0.296875 0.71875 -0.765625q0.265625 -0.484375 0.265625 -1.03125l0 -4.34375q0 -0.15625 0.15625 -0.265625q0.171875 -0.125 0.375 -0.125q0.25 0 0.375 0.125q0.140625 0.109375 0.140625 0.265625l0 4.34375q0 0.828125 -0.421875 1.515625q-0.40625 0.6875 -1.109375 1.109375q-0.703125 0.421875 -1.53125 0.421875zm5.521118 -0.109375q-0.203125 0 -0.359375 -0.125q-0.15625 -0.140625 -0.15625 -0.296875l0 -6.859375q0 -0.171875 0.15625 -0.28125q0.15625 -0.109375 0.359375 -0.109375q0.21875 0 0.359375 0.109375q0.15625 0.109375 0.15625 0.28125l0 0.75q0.265625 -0.46875 0.8125 -0.84375q0.546875 -0.390625 1.34375 -0.390625q0.796875 0 1.390625 0.453125q0.609375 0.453125 0.90625 1.171875q0.421875 -0.828125 1.09375 -1.21875q0.671875 -0.40625 1.359375 -0.40625q0.703125 0 1.328125 0.359375q0.625 0.359375 1.015625 1.03125q0.390625 0.671875 0.390625 1.640625l0 4.3125q0 0.15625 -0.15625 0.296875q-0.15625 0.125 -0.390625 0.125q-0.203125 0 -0.359375 -0.125q-0.15625 -0.140625 -0.15625 -0.296875l0 -4.3125q0 -0.671875 -0.28125 -1.125q-0.265625 -0.453125 -0.6875 -0.6875q-0.421875 -0.25 -0.875 -0.25q-0.46875 0 -0.90625 0.25q-0.421875 0.25 -0.703125 0.703125q-0.28125 0.4375 -0.28125 1.046875l0 4.390625q0 0.21875 -0.171875 0.3125q-0.171875 0.09375 -0.375 0.09375q-0.171875 0 -0.34375 -0.09375q-0.171875 -0.09375 -0.171875 -0.3125l0 -4.375q0 -0.578125 -0.25 -1.03125q-0.25 -0.453125 -0.671875 -0.71875q-0.421875 -0.265625 -0.921875 -0.265625q-0.46875 0 -0.90625 0.25q-0.4375 0.25 -0.71875 0.703125q-0.28125 0.453125 -0.28125 1.109375l0 4.3125q0 0.15625 -0.15625 0.296875q-0.15625 0.125 -0.390625 0.125zm12.653564 3.765625q-0.21875 0 -0.375 -0.140625q-0.15625 -0.125 -0.15625 -0.28125l0 -10.625q0 -0.171875 0.15625 -0.28125q0.15625 -0.109375 0.375 -0.109375q0.203125 0 0.34375 0.109375q0.15625 0.109375 0.15625 0.28125l0 0.75q0.265625 -0.46875 0.8125 -0.84375q0.5625 -0.390625 1.359375 -0.390625q0.796875 0 1.453125 0.421875q0.65625 0.40625 1.046875 1.09375q0.40625 0.671875 0.40625 1.515625l0 1.765625q0 0.796875 -0.40625 1.515625q-0.390625 0.703125 -1.03125 1.140625q-0.640625 0.421875 -1.421875 0.421875q-0.75 0 -1.34375 -0.359375q-0.578125 -0.375 -0.84375 -0.890625l0 4.484375q0 0.15625 -0.15625 0.28125q-0.15625 0.140625 -0.375 0.140625zm2.515625 -4.625q0.546875 0 1.0 -0.296875q0.453125 -0.296875 0.734375 -0.78125q0.28125 -0.5 0.28125 -1.03125l0 -1.765625q0 -0.515625 -0.28125 -0.984375q-0.265625 -0.46875 -0.734375 -0.765625q-0.453125 -0.3125 -1.03125 -0.3125q-0.484375 0 -0.9375 0.265625q-0.4375 0.25 -0.734375 0.703125q-0.28125 0.453125 -0.28125 1.09375l0 2.265625q0 0.25 0.25 0.640625q0.265625 0.375 0.71875 0.671875q0.453125 0.296875 1.015625 0.296875z" fill-rule="nonzero"/></g></svg>